<svg xmlns="http://www.w3.org/2000/svg" fill="none" viewBox="0 0 184 39"><path fill="#FF9D28" d="M0 14.324h26.146V4.588L0 14.324z"/><path fill="#68C5ED" d="M26.146 4.588V39L38.509 0 26.146 4.588z"/><path fill="#044D80" d="M26.146 14.323h-9.879l9.879 24.647V14.324z"/><path fill="#E54747" d="M0 14.323l18.81 6.324-2.543-6.323H0z"/><path fill="#F1A246" d="M61.305 1.18a.655.655 0 011.172 0l2.448 4.932a.653.653 0 00.492.355l5.474.796a.65.65 0 01.362 1.109l-3.96 3.836a.648.648 0 00-.189.575l.935 5.419a.653.653 0 01-.949.685l-4.894-2.56a.657.657 0 00-.609 0l-4.895 2.56a.653.653 0 01-.948-.685l.934-5.419a.648.648 0 00-.188-.575l-3.96-3.836a.65.65 0 01.361-1.109l5.475-.796a.653.653 0 00.491-.355l2.448-4.931zm23.888 0a.655.655 0 011.172 0l2.448 4.932a.65.65 0 00.491.355l5.475.796a.65.65 0 01.362 1.109l-3.96 3.836a.648.648 0 00-.189.575l.934 5.419a.653.653 0 01-.948.685l-4.895-2.56a.657.657 0 00-.608 0l-4.895 2.56a.653.653 0 01-.948-.685l.934-5.419a.648.648 0 00-.188-.575l-3.96-3.836a.65.65 0 01.361-1.109l5.475-.796a.654.654 0 00.491-.355l2.448-4.931zm23.888 0a.655.655 0 011.172 0l2.448 4.932a.653.653 0 00.491.355l5.475.796a.649.649 0 01.361 1.109l-3.96 3.836a.646.646 0 00-.188.575l.934 5.419a.653.653 0 01-.948.685l-4.895-2.56a.656.656 0 00-.608 0l-4.895 2.56a.653.653 0 01-.949-.685l.935-5.419a.65.65 0 00-.188-.575l-3.961-3.836a.65.65 0 01.362-1.109l5.475-.796a.653.653 0 00.491-.355l2.448-4.931zm23.888 0a.655.655 0 011.172 0l2.447 4.932a.655.655 0 00.492.355l5.475.796a.649.649 0 01.361 1.109l-3.96 3.836a.646.646 0 00-.188.575l.934 5.419a.653.653 0 01-.948.685l-4.895-2.56a.658.658 0 00-.609 0l-4.894 2.56a.653.653 0 01-.949-.685l.935-5.419a.65.65 0 00-.188-.575l-3.961-3.836a.65.65 0 01.362-1.109l5.474-.796a.653.653 0 00.492-.355l2.448-4.931zm23.887 0a.656.656 0 011.173 0l2.447 4.932a.655.655 0 00.492.355l5.475.796a.649.649 0 01.361 1.109l-3.96 3.836a.647.647 0 00-.189.575l.935 5.419a.653.653 0 01-.948.685l-4.895-2.56a.658.658 0 00-.609 0l-4.895 2.56a.653.653 0 01-.948-.685l.934-5.419a.646.646 0 00-.188-.575l-3.96-3.836a.65.65 0 01.362-1.109l5.474-.796a.653.653 0 00.492-.355l2.447-4.931z"/><path fill="#EDF0F5" d="M53.602 29.354h1.23c.718 0 1.168.428 1.168 1.095 0 .68-.426 1.095-1.154 1.095h-1.244v-2.19zm0 3.232h1.158l1.288 2.514h1.637l-1.455-2.728c.795-.31 1.255-1.071 1.255-1.952 0-1.357-.91-2.19-2.5-2.19h-2.829v6.87h1.446v-2.514zm6.669 1.59c-.474 0-.79-.238-.79-.619 0-.361.296-.595.818-.633l1.082-.066v.371c0 .552-.502.947-1.11.947zm-.46 1.005c.642 0 1.278-.319 1.566-.862h.028v.781h1.35v-3.509c0-1.028-.857-1.704-2.173-1.704-1.36 0-2.207.68-2.26 1.671H59.6c.067-.376.398-.633.92-.633.526 0 .861.276.861.752v.338l-1.292.076c-1.279.076-1.997.614-1.997 1.543 0 .918.743 1.547 1.72 1.547zm4.223-6.36v1.175h-.723v1.048h.723v2.68c0 .995.469 1.395 1.675 1.395.283 0 .522-.024.666-.057v-1.024a2.267 2.267 0 01-.34.024c-.412 0-.604-.186-.604-.576v-2.442h.948v-1.047h-.948V28.82h-1.397zm5.338 2.094c.622 0 1.048.448 1.077 1.1H68.27c.047-.638.488-1.1 1.1-1.1zm1.096 2.623c-.13.39-.522.643-1.034.643-.713 0-1.178-.5-1.178-1.228v-.086h3.538v-.423c0-1.553-.943-2.557-2.437-2.557-1.517 0-2.475 1.057-2.475 2.685 0 1.633.948 2.637 2.528 2.637 1.269 0 2.188-.67 2.34-1.67h-1.282zm3.954 1.643c.757 0 1.35-.395 1.6-.957h.023v.876h1.379v-6.87h-1.398v2.642h-.029c-.249-.566-.823-.956-1.565-.956-1.288 0-2.102 1.004-2.102 2.623 0 1.633.81 2.642 2.092 2.642zm.474-4.151c.694 0 1.14.59 1.14 1.518 0 .933-.446 1.514-1.14 1.514-.704 0-1.135-.576-1.135-1.514 0-.933.431-1.518 1.135-1.518zm8.733 4.07h1.373v-1.262h.91v-1.147h-.91v-4.46h-2.039c-1.417 2.07-2.169 3.27-2.772 4.408v1.2h3.438V35.1zm-2.179-2.409c.55-1.024 1.178-2 2.178-3.432h.03v3.47H81.45v-.038zm6.109 2.466a.768.768 0 00.77-.766.765.765 0 00-.77-.767c-.43 0-.77.338-.77.767 0 .423.34.766.77.766zm4.562.095c1.647 0 2.8-.819 2.8-2.009 0-.904-.665-1.57-1.608-1.756v-.029c.81-.2 1.355-.79 1.355-1.528 0-1.076-1.048-1.852-2.547-1.852-1.498 0-2.552.78-2.552 1.847 0 .747.551 1.338 1.365 1.533v.029c-.943.18-1.613.847-1.613 1.751 0 1.19 1.148 2.014 2.8 2.014zm0-1.047c-.76 0-1.292-.448-1.292-1.071 0-.614.531-1.062 1.292-1.062s1.288.443 1.288 1.062c0 .623-.527 1.07-1.288 1.07zm0-3.18c-.656 0-1.12-.39-1.12-.952 0-.567.464-.957 1.12-.957.651 0 1.12.39 1.12.957 0 .561-.469.952-1.12.952zm7.344 2.913c.934 0 1.709-.766 1.709-1.695 0-.928-.775-1.7-1.709-1.7s-1.704.772-1.704 1.7c0 .929.77 1.695 1.704 1.695zm7.287 1.314c1.584 0 2.671-.985 2.671-2.437 0-1.31-.943-2.252-2.26-2.252-.699 0-1.268.28-1.556.743h-.028l.167-1.933h3.26V28.23h-4.409l-.316 4.033h1.26c.234-.415.665-.672 1.22-.672.756 0 1.283.52 1.283 1.257 0 .748-.527 1.267-1.288 1.267-.665 0-1.177-.39-1.259-.986h-1.335c.038 1.247 1.11 2.123 2.59 2.123zm6.204 0c1.752 0 2.815-1.385 2.815-3.604 0-2.218-1.072-3.575-2.815-3.575-1.743 0-2.82 1.362-2.82 3.58 0 2.223 1.068 3.6 2.82 3.6zm0-1.152c-.852 0-1.35-.871-1.35-2.447 0-1.561.508-2.428 1.35-2.428.848 0 1.345.862 1.345 2.428 0 1.576-.493 2.447-1.345 2.447zm6.435 1.152c1.752 0 2.814-1.385 2.814-3.604 0-2.218-1.072-3.575-2.814-3.575-1.743 0-2.82 1.362-2.82 3.58 0 2.223 1.067 3.6 2.82 3.6zm0-1.152c-.853 0-1.351-.871-1.351-2.447 0-1.561.508-2.428 1.351-2.428.847 0 1.345.862 1.345 2.428 0 1.576-.493 2.447-1.345 2.447zm7.013-1.147h1.862v-1.214h-1.862v-1.947h-1.25v1.947h-1.857v1.214h1.857v1.942h1.25v-1.942zm6.516-3.6h1.23c.718 0 1.168.43 1.168 1.096 0 .68-.426 1.095-1.154 1.095h-1.244v-2.19zm0 3.233h1.158l1.288 2.514h1.637l-1.455-2.728c.795-.31 1.254-1.071 1.254-1.952 0-1.357-.909-2.19-2.499-2.19h-2.829v6.87h1.446v-2.514zm6.97-1.67c.623 0 1.048.447 1.077 1.099h-2.178c.048-.638.488-1.1 1.101-1.1zm1.096 2.622c-.129.39-.521.643-1.034.643-.713 0-1.177-.5-1.177-1.228v-.086h3.537v-.423c0-1.553-.942-2.557-2.436-2.557-1.518 0-2.475 1.057-2.475 2.685 0 1.633.947 2.637 2.527 2.637 1.269 0 2.188-.67 2.341-1.67h-1.283zm6.664-3.541h-1.46l-1.062 3.875h-.029l-1.068-3.875h-1.498l1.776 5.103h1.58l1.761-5.104zm.513 5.103h1.398v-5.104h-1.398V35.1zm.694-5.794a.72.72 0 00.727-.714.717.717 0 00-.727-.714.718.718 0 00-.728.714c0 .39.321.714.728.714zm3.94 1.61c.622 0 1.048.447 1.077 1.099h-2.178c.048-.638.488-1.1 1.101-1.1zm1.096 2.622c-.129.39-.522.643-1.034.643-.713 0-1.178-.5-1.178-1.228v-.086h3.539v-.423c0-1.553-.944-2.557-2.438-2.557-1.517 0-2.475 1.057-2.475 2.685 0 1.633.949 2.637 2.528 2.637 1.269 0 2.188-.67 2.341-1.67h-1.283zm9.221-3.541h-1.379l-.78 3.784h-.029l-.914-3.784h-1.341l-.909 3.784h-.029l-.776-3.784h-1.407l1.364 5.103h1.47l.924-3.609h.028l.929 3.609h1.489l1.36-5.104zm.431 1.5c0 .766.502 1.26 1.493 1.47l.876.181c.503.114.68.266.68.538 0 .333-.325.547-.852.547-.555 0-.876-.237-.962-.685h-1.364c.09 1.004.909 1.661 2.326 1.661 1.322 0 2.245-.661 2.245-1.666 0-.747-.44-1.166-1.512-1.39l-.877-.186c-.517-.11-.708-.285-.708-.547 0-.338.321-.557.804-.557.517 0 .828.28.871.695h1.288c-.028-1-.842-1.671-2.159-1.671-1.307 0-2.149.638-2.149 1.61z"/></svg>