<svg xmlns="http://www.w3.org/2000/svg" fill="none" viewBox="0 0 188 39"><path fill="#00B67A" d="M41.474 14.905H25.636L20.744 0l-4.907 14.905L0 14.89l12.826 9.22L7.919 39l12.825-9.206L33.555 39l-4.892-14.89 12.81-9.205z"/><path fill="#005128" d="M29.764 27.481l-1.1-3.37-7.92 5.683 9.02-2.313z"/><path fill="#00B67A" d="M74.34 0H54.62v19.5h19.72V0z"/><path fill="#fff" d="M64.48 13.143l3-.752 1.253 3.819-4.252-3.068zm6.903-4.936h-5.28L64.481 3.29l-1.623 4.916h-5.28l4.273 3.046-1.623 4.916 4.273-3.047 2.63-1.868 4.252-3.047z"/><path fill="#00B67A" d="M97.348 0h-19.72v19.5h19.72V0z"/><path fill="#fff" d="M87.488 13.143l2.999-.752 1.253 3.819-4.252-3.068zm6.902-4.936h-5.28L87.488 3.29l-1.623 4.916h-5.28l4.273 3.046-1.623 4.916 4.273-3.047 2.63-1.868 4.252-3.047z"/><path fill="#00B67A" d="M120.355 0h-19.72v19.5h19.72V0z"/><path fill="#fff" d="M110.495 13.143l2.999-.752 1.253 3.819-4.252-3.068zm6.902-4.936h-5.28l-1.622-4.916-1.623 4.916h-5.279l4.272 3.046-1.623 4.916 4.273-3.047 2.629-1.868 4.253-3.047z"/><path fill="#00B67A" d="M143.362 0h-19.72v19.5h19.72V0z"/><path fill="#fff" d="M133.502 13.143l2.999-.752 1.253 3.819-4.252-3.068zm6.902-4.936h-5.28l-1.622-4.916-1.623 4.916H126.6l4.272 3.046-1.623 4.916 4.273-3.047 2.629-1.868 4.253-3.047z"/><path fill="#00B67A" d="M166.369 0h-19.721v19.5h19.721V0z"/><path fill="#fff" d="M156.509 13.143l2.999-.752 1.253 3.819-4.252-3.068zm6.902-4.936h-5.28l-1.622-4.916-1.623 4.916h-5.279l4.272 3.046-1.623 4.916 4.273-3.047 2.63-1.868 4.252-3.047z"/><path fill="#262838" d="M56.652 29.354h1.238c.722 0 1.174.428 1.174 1.095 0 .68-.428 1.095-1.16 1.095h-1.252v-2.19zm0 3.232h1.165l1.296 2.514h1.646l-1.464-2.728c.8-.31 1.262-1.071 1.262-1.952 0-1.357-.915-2.19-2.513-2.19h-2.845v6.87h1.453v-2.514zm6.707 1.59c-.477 0-.794-.238-.794-.619 0-.361.298-.595.823-.633l1.088-.066v.371c0 .552-.506.947-1.117.947zm-.462 1.005c.645 0 1.285-.319 1.574-.862h.029v.781h1.358v-3.509c0-1.028-.862-1.704-2.186-1.704-1.367 0-2.22.68-2.272 1.671h1.285c.067-.376.4-.633.924-.633.53 0 .867.276.867.752v.338l-1.3.076c-1.285.076-2.008.614-2.008 1.543 0 .918.747 1.547 1.729 1.547zm4.246-6.36v1.175h-.727v1.048h.727v2.68c0 .995.472 1.395 1.685 1.395.284 0 .525-.024.67-.057v-1.024a2.29 2.29 0 01-.343.024c-.413 0-.606-.186-.606-.576v-2.442h.953v-1.047h-.953V28.82h-1.406zm5.368 2.094c.626 0 1.055.448 1.084 1.1h-2.191c.048-.638.491-1.1 1.107-1.1zm1.103 2.623c-.13.39-.525.643-1.04.643-.718 0-1.184-.5-1.184-1.228v-.086h3.557v-.423c0-1.553-.948-2.557-2.45-2.557-1.526 0-2.49 1.057-2.49 2.685 0 1.633.954 2.637 2.543 2.637 1.276 0 2.2-.67 2.354-1.67h-1.29zm3.977 1.643c.76 0 1.357-.395 1.608-.957h.024v.876h1.386v-6.87h-1.405v2.642h-.03c-.25-.566-.828-.956-1.574-.956-1.295 0-2.113 1.004-2.113 2.623 0 1.633.814 2.642 2.104 2.642zm.476-4.151c.699 0 1.146.59 1.146 1.518 0 .933-.447 1.514-1.146 1.514-.707 0-1.14-.576-1.14-1.514 0-.933.432-1.518 1.14-1.518zm8.782 4.07h1.382v-1.262h.915v-1.147h-.915v-4.46H86.18c-1.425 2.07-2.181 3.27-2.788 4.408v1.2h3.457V35.1zm-2.19-2.409c.553-1.024 1.184-2 2.19-3.432h.029v3.47h-2.22v-.038zm6.143 2.466a.77.77 0 00.775-.766.767.767 0 00-.775-.767.767.767 0 100 1.533zm4.588.095c1.656 0 2.816-.819 2.816-2.009 0-.904-.669-1.57-1.617-1.756v-.029c.814-.2 1.362-.79 1.362-1.528 0-1.076-1.054-1.852-2.56-1.852-1.508 0-2.567.78-2.567 1.847 0 .747.554 1.338 1.372 1.533v.029c-.948.18-1.623.847-1.623 1.751 0 1.19 1.156 2.014 2.817 2.014zm0-1.047c-.765 0-1.3-.448-1.3-1.071 0-.614.535-1.062 1.3-1.062.766 0 1.295.443 1.295 1.062 0 .623-.53 1.07-1.295 1.07zm0-3.18c-.66 0-1.127-.39-1.127-.952 0-.567.467-.957 1.127-.957.655 0 1.126.39 1.126.957 0 .561-.471.952-1.126.952zm7.385 2.913c.939 0 1.719-.766 1.719-1.695 0-.928-.78-1.7-1.719-1.7-.938 0-1.713.772-1.713 1.7 0 .929.775 1.695 1.713 1.695zm6.399 1.162h1.439v-6.87h-1.444l-1.796 1.233v1.276l1.772-1.19h.029V35.1zm3.876 1.504l.645-2.685h-1.339l-.361 2.685h1.055zm4.342-1.352c1.762 0 2.831-1.385 2.831-3.604 0-2.218-1.078-3.575-2.831-3.575-1.752 0-2.835 1.362-2.835 3.58 0 2.223 1.073 3.6 2.835 3.6zm0-1.152c-.857 0-1.357-.871-1.357-2.447 0-1.561.51-2.428 1.357-2.428.853 0 1.353.862 1.353 2.428 0 1.576-.496 2.447-1.353 2.447zm6.471 1.152c1.762 0 2.831-1.385 2.831-3.604 0-2.218-1.078-3.575-2.831-3.575-1.752 0-2.836 1.362-2.836 3.58 0 2.223 1.074 3.6 2.836 3.6zm0-1.152c-.857 0-1.358-.871-1.358-2.447 0-1.561.511-2.428 1.358-2.428.852 0 1.353.862 1.353 2.428 0 1.576-.496 2.447-1.353 2.447zm6.471 1.152c1.762 0 2.831-1.385 2.831-3.604 0-2.218-1.079-3.575-2.831-3.575-1.753 0-2.836 1.362-2.836 3.58 0 2.223 1.074 3.6 2.836 3.6zm0-1.152c-.857 0-1.358-.871-1.358-2.447 0-1.561.51-2.428 1.358-2.428.852 0 1.353.862 1.353 2.428 0 1.576-.496 2.447-1.353 2.447zm7.053-1.147h1.873v-1.214h-1.873v-1.947h-1.256v1.947h-1.869v1.214h1.869v1.942h1.256v-1.942zm6.553-3.6h1.237c.722 0 1.175.43 1.175 1.096 0 .68-.429 1.095-1.161 1.095h-1.251v-2.19zm0 3.233h1.165L146.4 35.1h1.646l-1.463-2.728c.799-.31 1.261-1.071 1.261-1.952 0-1.357-.915-2.19-2.513-2.19h-2.845v6.87h1.454v-2.514zm7.01-1.67c.625 0 1.054.447 1.083 1.099h-2.191c.048-.638.491-1.1 1.108-1.1zm1.102 2.622c-.13.39-.525.643-1.04.643-.717 0-1.184-.5-1.184-1.228v-.086h3.558v-.423c0-1.553-.949-2.557-2.451-2.557-1.526 0-2.489 1.057-2.489 2.685 0 1.633.953 2.637 2.542 2.637 1.276 0 2.2-.67 2.354-1.67h-1.29zm6.702-3.541h-1.469l-1.068 3.875h-.029l-1.074-3.875h-1.507l1.786 5.103h1.589l1.772-5.104zm.515 5.103h1.406v-5.104h-1.406V35.1zm.698-5.794a.723.723 0 00.732-.714.72.72 0 00-.732-.714.72.72 0 00-.732.714c0 .39.323.714.732.714zm3.963 1.61c.625 0 1.054.447 1.083 1.099h-2.191c.048-.638.491-1.1 1.108-1.1zm1.102 2.622c-.13.39-.525.643-1.04.643-.717 0-1.184-.5-1.184-1.228v-.086h3.558v-.423c0-1.553-.949-2.557-2.451-2.557-1.526 0-2.489 1.057-2.489 2.685 0 1.633.953 2.637 2.542 2.637 1.276 0 2.2-.67 2.354-1.67h-1.29zm9.273-3.541h-1.387l-.785 3.784h-.028l-.92-3.784h-1.348l-.915 3.784h-.029l-.78-3.784h-1.415l1.372 5.103h1.478l.929-3.609h.029l.934 3.609h1.497l1.368-5.104zm.433 1.5c0 .766.506 1.26 1.502 1.47l.881.181c.506.114.684.266.684.538 0 .333-.327.547-.857.547-.559 0-.881-.237-.968-.685h-1.372c.091 1.004.915 1.661 2.34 1.661 1.329 0 2.258-.661 2.258-1.666 0-.747-.443-1.166-1.522-1.39l-.88-.186c-.52-.11-.713-.285-.713-.547 0-.338.322-.557.809-.557.52 0 .833.28.876.695h1.295c-.029-1-.847-1.671-2.171-1.671-1.314 0-2.162.638-2.162 1.61z"/></svg>