<svg xmlns="http://www.w3.org/2000/svg" xmlns:xlink="http://www.w3.org/1999/xlink" fill="none" viewBox="0 0 50 42"><defs><path id="a" fill="#E6F85E" d="M5.665 30.449l-3.543 9.182c-.57 1.477.952 2.889 2.35 2.181l9.931-5.007-8.738-6.356z"/></defs><g clip-path="url(#a)"><path fill="#E6F85E" d="M19.9 4.996h10.48c.41 0 .813.019 1.216.052a2.475 2.475 0 002.37-1.238c.897-1.585-.128-3.582-1.923-3.736A19.146 19.146 0 0030.38 0H19.973C9.102 0-.077 9.02 0 20.04a19.986 19.986 0 005.748 13.931c3.55 3.6 8.455 5.826 13.876 5.826h10.755c.56 0 1.115-.026 1.664-.07 1.795-.155 2.82-2.156 1.922-3.736a2.472 2.472 0 00-2.369-1.239c-.403.034-.806.052-1.217.052H19.624c-8.226 0-14.893-6.883-14.694-15.265.193-8.14 6.947-14.543 14.97-14.543z"/><use xlink:href="#a"/><path fill="url(#c)" fill-opacity=".2" d="M5.665 30.449l-3.543 9.182c-.57 1.477.952 2.889 2.35 2.181l9.931-5.007-8.738-6.356z"/><use xlink:href="#a"/><rect width="35.971" height="4.79" x="11.991" y="9.211" fill="url(#d)" rx="2.395"/><rect width="42.875" height="4.79" x="50.142" y="22.476" fill="url(#e)" rx="2.395" transform="rotate(180 50.142 22.476)"/><rect width="35.608" height="4.79" x="11.991" y="26.16" fill="url(#f)" rx="2.395"/></g><defs><linearGradient id="d" x1="47.962" x2="11.987" y1="9.211" y2="11.361" gradientUnits="userSpaceOnUse"><stop stop-color="#E6F85E"/><stop offset="1" stop-color="#E6F85E" stop-opacity="0"/></linearGradient><linearGradient id="e" x1="93.016" x2="50.202" y1="22.476" y2="25.526" gradientUnits="userSpaceOnUse"><stop stop-color="#E6F85E"/><stop offset=".817" stop-color="#E6F85E" stop-opacity=".188"/><stop offset="1" stop-color="#E6F85E" stop-opacity="0"/></linearGradient><linearGradient id="f" x1="47.598" x2="11.984" y1="26.16" y2="28.267" gradientUnits="userSpaceOnUse"><stop stop-color="#E6F85E"/><stop offset="1" stop-color="#E6F85E" stop-opacity="0"/></linearGradient><clipPath id="a"><path fill="#fff" d="M0 0h50v42H0z"/></clipPath><pattern id="c" width="41.277" height="44.324" patternContentUnits="objectBoundingBox"><use xlink:href="#f" transform="scale(.0403 .04329)"/></pattern></defs></svg>