<svg xmlns="http://www.w3.org/2000/svg" xmlns:xlink="http://www.w3.org/1999/xlink" fill="none" viewBox="0 0 165 42"><defs><path id="a" fill="#E6F85E" d="M5.665 30.45l-3.543 9.18c-.57 1.478.952 2.889 2.35 2.181l9.931-5.007-8.738-6.356z"/></defs><path fill="#E6F85E" d="M76.984 32.448c-1.579 0-2.997-.341-4.256-1.024-1.237-.704-2.23-1.717-2.976-3.04-.725-1.344-1.088-2.987-1.088-4.928v-5.312c0-2.901.81-5.12 2.432-6.656 1.621-1.557 3.797-2.336 6.528-2.336 2.73 0 4.832.736 6.304 2.208 1.472 1.45 2.208 3.413 2.208 5.888v.128H82.36v-.256c0-.853-.17-1.621-.512-2.304-.341-.683-.864-1.216-1.568-1.6-.704-.405-1.59-.608-2.656-.608-1.579 0-2.827.49-3.744 1.472-.896.96-1.344 2.293-1.344 4v5.44c0 1.685.448 3.03 1.344 4.032.917 1.003 2.187 1.504 3.808 1.504s2.805-.437 3.552-1.312c.747-.875 1.12-1.995 1.12-3.36V24h-5.664v-3.264h9.44V32h-3.52v-2.208h-.544c-.17.384-.437.79-.8 1.216-.363.405-.885.747-1.568 1.024-.661.277-1.568.416-2.72.416zm20.74 0c-1.578 0-2.976-.33-4.192-.992a7.373 7.373 0 01-2.816-2.848c-.661-1.237-.992-2.677-.992-4.32v-.384c0-1.664.33-3.104.992-4.32a6.938 6.938 0 012.784-2.816c1.195-.683 2.57-1.024 4.128-1.024 1.536 0 2.88.341 4.032 1.024 1.152.661 2.048 1.6 2.688 2.816.64 1.216.96 2.635.96 4.256v1.312H93.436c.043 1.237.48 2.23 1.312 2.976.832.747 1.856 1.12 3.072 1.12 1.195 0 2.08-.256 2.656-.768a5.536 5.536 0 001.312-1.792l3.04 1.568c-.298.576-.736 1.195-1.312 1.856-.554.64-1.301 1.195-2.24 1.664-.938.448-2.122.672-3.552.672zm-4.256-10.08h8.096c-.085-1.045-.49-1.877-1.216-2.496-.704-.619-1.621-.928-2.752-.928-1.173 0-2.112.31-2.816.928-.704.619-1.141 1.45-1.312 2.496zM109.086 32V16.192h3.616V18.4h.544c.277-.597.779-1.163 1.504-1.696.725-.533 1.824-.8 3.296-.8 1.216 0 2.293.277 3.232.832a5.662 5.662 0 012.176 2.304c.533.981.8 2.144.8 3.488V32h-3.68v-9.184c0-1.28-.32-2.23-.96-2.848-.619-.64-1.504-.96-2.656-.96-1.301 0-2.325.437-3.072 1.312-.747.853-1.12 2.08-1.12 3.68v8h-3.68z"/><path fill="#fff" d="M127.078 32l6.144-22.4h6.688l6.144 22.4h-3.968l-1.344-5.12h-8.352L131.046 32h-3.968zm6.208-8.64h6.56L136.838 12h-.544l-3.008 11.36zm15.61 8.64V9.6h3.872V32h-3.872zm10.681.448c-.811 0-1.494-.267-2.048-.8-.534-.533-.8-1.216-.8-2.048 0-.81.266-1.483.8-2.016.554-.533 1.237-.8 2.048-.8.81 0 1.482.267 2.016.8.533.533.8 1.216.8 2.048 0 .832-.267 1.515-.8 2.048-.534.512-1.206.768-2.016.768z"/><g clip-path="url(#a)"><path fill="#E6F85E" d="M19.9 4.996h10.48c.41 0 .814.019 1.217.052a2.475 2.475 0 002.37-1.238c.897-1.585-.128-3.582-1.923-3.736A19.142 19.142 0 0030.38 0H19.973C9.1 0-.077 9.02 0 20.04a19.986 19.986 0 005.748 13.931c3.55 3.6 8.455 5.826 13.876 5.826h10.755c.56 0 1.115-.026 1.664-.07 1.795-.155 2.82-2.156 1.922-3.736a2.472 2.472 0 00-2.369-1.239c-.403.034-.806.052-1.217.052H19.624c-8.226 0-14.894-6.883-14.694-15.265.193-8.14 6.947-14.543 14.97-14.543z"/><use xlink:href="#a"/><path fill="url(#c)" fill-opacity=".2" d="M5.665 30.45l-3.543 9.18c-.57 1.478.952 2.889 2.35 2.181l9.931-5.007-8.738-6.356z"/><use xlink:href="#a"/><rect width="35.971" height="4.79" x="11.99" y="9.211" fill="url(#d)" rx="2.395"/><rect width="42.875" height="4.79" x="50.142" y="22.476" fill="url(#e)" rx="2.395" transform="rotate(180 50.142 22.476)"/><rect width="35.608" height="4.79" x="11.99" y="26.16" fill="url(#f)" rx="2.395"/></g><defs><linearGradient id="d" x1="47.962" x2="11.987" y1="9.211" y2="11.361" gradientUnits="userSpaceOnUse"><stop stop-color="#E6F85E"/><stop offset="1" stop-color="#E6F85E" stop-opacity="0"/></linearGradient><linearGradient id="e" x1="93.016" x2="50.202" y1="22.476" y2="25.526" gradientUnits="userSpaceOnUse"><stop stop-color="#E6F85E"/><stop offset=".817" stop-color="#E6F85E" stop-opacity=".188"/><stop offset="1" stop-color="#E6F85E" stop-opacity="0"/></linearGradient><linearGradient id="f" x1="47.598" x2="11.984" y1="26.16" y2="28.267" gradientUnits="userSpaceOnUse"><stop stop-color="#E6F85E"/><stop offset="1" stop-color="#E6F85E" stop-opacity="0"/></linearGradient><clipPath id="a"><path fill="#fff" d="M0 0h50v42H0z"/></clipPath><pattern id="c" width="41.277" height="44.324" patternContentUnits="objectBoundingBox"><use xlink:href="#f" transform="scale(.0403 .04329)"/></pattern></defs></svg>