<svg version="1.1" id="Layer_1" xmlns="http://www.w3.org/2000/svg" xmlns:xlink="http://www.w3.org/1999/xlink" x="0px" y="0px"
	 width="100%" viewBox="0 0 540 708" enable-background="new 0 0 540 708" xml:space="preserve">
<path fill="#FFFFFF" opacity="1.000000" stroke="none" 
	d="
M541.000000,463.000000 
	C541.000000,544.965332 541.000000,626.930725 541.000000,708.947998 
	C361.110687,708.947998 181.221390,708.947998 1.000000,708.947998 
	C1.000000,627.312195 1.000000,545.623962 1.468645,463.471436 
	C16.208796,463.007507 30.480423,463.044434 44.751774,462.997925 
	C59.511021,462.949860 74.270004,462.820770 89.492798,462.784241 
	C103.303719,462.774170 116.650948,462.707001 130.385559,462.736176 
	C131.834244,462.795166 132.895569,462.757812 134.220123,462.795685 
	C134.562347,462.566528 134.641312,462.262177 134.791367,461.524658 
	C135.196716,458.877563 135.461624,456.650421 135.878952,454.452271 
	C136.918518,448.976654 138.027466,443.514221 139.456223,437.857849 
	C142.147049,427.447601 144.490204,417.226013 146.910553,406.599396 
	C149.004578,397.157471 151.021423,388.120514 153.386566,378.878845 
	C155.767776,369.450562 157.800674,360.227051 159.915497,350.614685 
	C162.577011,340.152283 165.156586,330.078735 167.836060,319.588684 
	C168.142883,317.734924 168.288559,316.285767 168.566681,314.862457 
	C170.376434,305.601379 172.214951,296.345886 174.411240,286.850800 
	C174.490845,276.771851 174.462616,266.912933 173.791473,257.097992 
	C173.512573,253.019211 171.861328,249.034256 170.909988,244.565231 
	C170.636734,240.879547 170.723206,237.514908 169.865509,234.411179 
	C165.394150,218.230621 160.682678,202.116394 156.024902,185.586548 
	C149.155716,164.343216 140.804886,144.144241 129.987106,124.629135 
	C119.445381,104.943153 107.592407,86.646935 90.580521,72.186615 
	C90.371292,73.122681 90.567101,73.815933 90.834908,74.480148 
	C97.959557,92.150261 101.758896,110.604813 102.887375,129.530884 
	C103.540031,140.476761 103.226128,151.500015 102.920906,162.476578 
	C102.702515,170.330566 101.776474,178.164902 100.974701,186.379608 
	C100.545624,187.167282 100.156769,187.561401 100.092659,188.002686 
	C98.712357,197.504669 97.415115,207.018890 96.003136,216.516068 
	C94.788055,224.688904 93.450119,232.843460 91.984818,241.366760 
	C89.530975,252.307266 87.256371,262.886597 84.987389,273.467102 
	C82.951088,282.962616 80.920975,292.459412 78.548904,302.159882 
	C71.861977,329.579498 65.514290,356.794891 59.097458,384.419556 
	C55.356815,400.369049 51.700649,415.912933 48.003365,431.447052 
	C47.038692,435.500061 47.178181,441.171448 44.579178,443.113708 
	C41.756702,445.222992 36.318718,443.687134 32.045422,444.036713 
	C26.551088,444.486176 20.921520,444.618073 15.638200,445.993256 
	C8.028934,447.973846 3.938340,454.091034 1.000000,461.000000 
	C1.000000,307.790283 1.000000,154.580551 1.000000,1.000000 
	C27.686953,1.000000 54.375622,1.000000 81.639618,1.322463 
	C83.151398,2.591009 84.071960,3.553446 85.026733,4.480670 
	C95.452118,14.605211 106.938370,23.859743 116.086723,35.029404 
	C133.727707,56.568111 147.226349,80.812958 158.762512,106.209579 
	C172.279800,135.967606 183.437210,166.580414 192.303635,197.960953 
	C201.504196,230.524063 209.858459,263.336761 218.018509,296.180542 
	C226.495239,330.298859 234.289764,364.586609 242.395309,398.797241 
	C247.439590,420.087372 252.507401,441.371887 257.645599,462.999695 
	C265.451782,462.999695 273.259674,462.868347 281.059357,463.064941 
	C284.134094,463.142426 285.394012,462.059845 286.054657,459.086639 
	C289.637634,442.961975 293.358429,426.867279 297.128387,410.784912 
	C304.816559,377.987946 312.534149,345.197815 320.301025,312.419403 
	C326.484253,286.324280 332.732452,260.244476 339.005402,234.170761 
	C341.587616,223.437775 344.310364,212.738617 347.030823,202.314056 
	C347.381348,203.074112 347.670227,203.544189 347.976074,204.437317 
	C349.449341,211.203629 350.905670,217.546890 352.335754,224.338898 
	C354.952698,235.528625 357.595825,246.269592 360.157288,257.408997 
	C361.095459,262.051880 362.116638,266.296051 363.134949,270.540894 
	C367.484039,288.670197 371.832275,306.799652 376.286987,325.284973 
	C376.894989,325.421631 377.784210,325.274445 377.840332,324.972412 
	C378.617920,320.788239 379.342957,316.591888 379.962341,312.381104 
	C383.955536,285.233154 393.202332,259.723511 404.598877,234.969208 
	C416.105408,209.975906 430.050476,186.301559 447.696350,165.177185 
	C457.265198,153.722061 468.586273,143.711563 479.332245,133.270996 
	C482.367706,130.321808 486.162933,128.154587 489.609711,125.628738 
	C467.685364,128.805527 447.261780,135.788055 427.797241,147.236908 
	C425.755707,138.664276 423.859802,130.767868 421.995728,122.863960 
	C414.678802,91.839149 407.319366,60.824215 400.092651,29.778387 
	C397.870087,20.230217 396.020416,10.595232 394.000000,1.000000 
	C442.964691,1.000000 491.929352,1.000000 541.000000,1.000000 
	C541.000000,153.354752 541.000000,305.709534 540.678833,458.380859 
	C540.035889,457.774750 539.839478,456.782776 539.373169,455.940125 
	C534.266418,446.711609 525.491333,444.490234 515.976013,444.053040 
	C509.856964,443.771912 503.714478,444.000305 497.492004,444.000305 
	C496.716827,440.658539 495.992279,437.668671 495.331573,434.664825 
	C491.541443,417.433167 487.602051,400.232147 484.033203,382.954651 
	C480.562775,366.153809 476.979736,349.350128 474.368317,332.405609 
	C471.945526,316.684753 470.307465,300.807800 469.150513,284.939270 
	C468.363098,274.139099 468.696869,263.223511 469.110077,252.381668 
	C469.371338,245.526505 470.263214,238.621185 471.656738,231.901047 
	C473.671906,222.182907 476.397644,212.612137 478.983002,202.665131 
	C479.958618,200.401932 480.771484,198.452118 481.584351,196.502289 
	C481.021515,196.126617 480.458679,195.750931 479.895844,195.375244 
	C473.244568,203.576263 466.593323,211.777267 459.640076,220.131561 
	C453.645538,229.528046 447.953003,238.771286 442.074585,248.325470 
	C437.254578,258.422821 432.620453,268.209229 427.688232,278.193542 
	C423.344971,289.266174 419.299835,300.140869 415.060181,311.344299 
	C412.006531,321.454102 409.147339,331.235168 406.176361,341.399963 
	C405.531952,343.628967 404.861816,345.447083 404.490845,347.324341 
	C402.998596,354.875519 401.598877,362.445007 399.975769,370.371216 
	C398.912964,380.491943 398.039337,390.249207 397.098816,400.469177 
	C396.134277,422.121826 404.188873,441.668945 408.197083,462.211060 
	C408.459656,462.554382 408.755127,462.639252 409.513428,462.772064 
	C418.979614,462.748871 427.982941,462.677734 437.444672,462.704590 
	C443.225891,462.776093 448.548676,462.749664 454.337128,462.831055 
	C483.535187,462.959259 512.267578,462.979614 541.000000,463.000000 
M448.296753,634.000000 
	C450.326660,634.000000 452.356567,634.000000 453.554047,634.000000 
	C451.466461,631.869446 447.728424,629.864563 447.264252,627.273254 
	C445.025513,614.775635 443.696869,602.116150 441.988800,589.521790 
	C440.884277,581.377258 439.682373,573.245911 438.524109,565.108643 
	C438.188812,564.981323 437.853516,564.854004 437.518250,564.726685 
	C428.095154,580.882141 418.672089,597.037598 409.080963,613.481201 
	C398.913666,596.859375 389.078522,580.780640 379.243378,564.701843 
	C377.049866,574.638916 376.004456,584.041016 374.799988,593.422607 
	C373.617462,602.633240 371.969421,611.794739 371.108337,621.032104 
	C370.547607,627.047363 369.566589,632.191223 362.632568,633.753540 
	C369.206024,633.753540 375.779480,633.753540 382.877319,633.753540 
	C379.583771,632.181213 376.027893,631.534607 377.495941,626.947144 
	C377.983795,625.422791 377.817932,623.695679 378.005341,622.067566 
	C378.951660,613.845886 379.915894,605.626282 380.986847,596.436035 
	C389.651520,610.274780 396.740173,623.949097 404.968018,635.731018 
	C412.563141,622.187073 419.829895,609.228699 427.631042,595.317444 
	C428.562866,605.548706 429.001404,614.547058 430.348541,623.407288 
	C431.031738,627.900940 432.070496,631.737244 425.725830,634.000000 
	C433.683563,634.000000 440.515533,634.000000 448.296753,634.000000 
M53.999928,597.504700 
	C52.659786,600.610962 51.693604,603.953064 49.910507,606.779907 
	C44.198074,615.836243 44.773449,628.927307 31.615589,633.853516 
	C39.210659,633.853516 45.781189,633.853516 54.108238,633.853516 
	C47.352890,631.583862 47.550274,628.240784 49.931541,624.164917 
	C50.893448,622.518433 51.082840,620.392761 52.144165,618.841125 
	C52.984650,617.612366 54.587475,616.182983 55.906891,616.126343 
	C62.376724,615.848633 68.864983,616.000305 75.943413,616.000305 
	C75.269669,622.015747 85.765564,627.667603 75.612297,633.704712 
	C85.564087,633.704712 95.477455,633.704712 105.902374,633.704712 
	C98.736023,629.611328 97.513718,628.270569 95.211693,622.577637 
	C94.064476,619.740540 92.833092,616.936340 91.589417,614.139587 
	C87.330757,604.562805 83.120499,594.963501 78.753616,585.436096 
	C75.604790,578.566223 72.236115,571.796997 68.689529,564.407959 
	C63.583359,575.678955 58.816311,586.201416 53.999928,597.504700 
M482.572083,630.000061 
	C481.134125,629.922302 479.696198,629.844604 478.300720,629.769165 
	C478.300720,622.359985 478.300720,615.296021 478.300720,608.261902 
	C492.372528,607.268799 492.435822,607.296570 496.492432,617.101257 
	C496.492432,608.960388 496.492432,602.045410 496.492432,593.984192 
	C492.387299,603.636292 490.013062,604.611511 478.308838,602.422302 
	C478.308838,595.347900 478.308838,588.285339 478.308838,580.734070 
	C486.709686,582.579651 498.410187,575.686951 500.736023,590.804626 
	C500.736023,585.581299 500.736023,580.357971 500.736023,576.112793 
	C486.049011,576.112793 471.553925,576.112793 457.058868,576.112793 
	C456.895996,576.591064 456.733154,577.069336 456.570312,577.547607 
	C462.614716,578.031677 463.239258,581.606018 463.107117,586.453369 
	C462.780548,598.432312 462.879669,610.427856 463.058655,622.413086 
	C463.131317,627.277649 463.371979,631.907776 457.658264,634.000000 
	C465.148499,634.000000 472.638733,634.000000 480.128967,634.000000 
	C487.600739,634.000000 495.072479,634.000000 502.609406,634.000000 
	C503.320038,630.746155 504.050873,627.786743 504.595612,624.793518 
	C505.114044,621.944763 505.438110,619.060608 505.847626,616.191956 
	C500.795288,626.345337 495.502289,630.945984 482.572083,630.000061 
M240.974548,615.604431 
	C239.991653,617.789246 238.629181,619.886536 238.101089,622.176208 
	C236.808640,627.780212 238.684097,632.257141 243.128036,633.544556 
	C250.967117,635.815491 258.876404,636.887085 266.977661,634.110107 
	C273.525879,631.865479 278.105621,627.888794 278.889832,620.962952 
	C279.725220,613.585266 279.148773,606.679993 270.794403,602.826660 
	C265.119598,600.209229 259.869171,596.533325 254.786789,592.838501 
	C252.765488,591.369080 250.156540,588.180542 250.586472,586.471985 
	C251.197754,584.042664 254.011505,581.399658 256.511810,580.366028 
	C262.595459,577.851318 268.941711,581.053040 271.629181,587.111572 
	C271.949646,587.833984 272.610199,588.405579 273.622925,589.697388 
	C274.010101,584.647644 274.326782,580.517456 274.638245,576.455261 
	C270.101746,575.971375 265.559479,575.353638 260.996307,575.035583 
	C255.903107,574.680664 250.984375,575.054993 246.356308,577.865601 
	C241.378357,580.888733 239.205627,585.167297 238.991959,590.762634 
	C238.763000,596.758057 240.740143,601.670593 245.930862,604.977966 
	C251.787201,608.709412 257.587524,612.546570 263.607849,615.996338 
	C267.507080,618.230591 268.878571,621.414734 267.745270,625.380188 
	C266.558350,629.533142 262.845490,630.754272 258.944397,630.971863 
	C248.837753,631.535339 243.465347,626.376709 240.974548,615.604431 
M166.498611,628.073181 
	C163.837479,624.048401 161.176361,620.023621 158.165970,615.470581 
	C157.481415,618.740601 156.678818,622.267273 156.015930,625.820068 
	C155.221024,630.080505 157.910690,632.620056 161.274277,633.588196 
	C169.270401,635.889587 177.454727,637.053589 185.616272,633.990906 
	C191.806732,631.667908 196.204971,627.584595 196.922638,620.802124 
	C197.692139,613.529968 197.007309,606.816650 189.112625,602.904907 
	C183.352631,600.050842 177.997513,596.351440 172.574631,592.854126 
	C168.140167,589.994263 167.347275,586.870300 169.988922,583.268921 
	C172.812027,579.420166 177.083405,579.705017 181.065048,580.093201 
	C184.477554,580.425842 187.751404,581.571167 189.025513,585.466736 
	C189.449738,586.763733 190.224762,587.946045 190.839417,589.180786 
	C191.114975,589.026550 191.390533,588.872314 191.666092,588.718140 
	C192.013336,584.670959 192.360565,580.623779 192.732224,576.291870 
	C189.337296,576.069336 185.712524,576.131042 182.199051,575.535828 
	C175.901291,574.468994 169.906265,574.542969 164.219742,577.937744 
	C159.250122,580.904602 157.142746,585.327148 156.992569,590.929688 
	C156.832230,596.911499 158.831482,601.734070 164.080826,605.025391 
	C170.244797,608.890259 176.371155,612.817749 182.447311,616.819031 
	C187.681168,620.265686 187.403458,626.873047 181.878342,629.586304 
	C176.822754,632.069031 171.823044,631.724792 166.498611,628.073181 
M109.281227,598.785828 
	C111.557808,601.052795 113.567787,603.703308 116.165100,605.508972 
	C122.006409,609.570007 128.207596,613.109131 134.130341,617.058533 
	C138.515533,619.982849 138.256622,627.100098 133.368835,628.943726 
	C129.828735,630.278931 125.517242,630.649719 121.753319,630.087585 
	C113.735817,628.890198 112.190628,621.874146 109.849045,615.250610 
	C108.457878,618.778076 107.660706,622.313354 107.018158,625.876526 
	C106.298744,629.865784 108.595825,632.229370 111.937668,633.379944 
	C120.438278,636.306946 129.170395,636.955811 137.646820,633.635803 
	C143.332138,631.408997 147.430603,627.163269 147.951950,620.662781 
	C148.536957,613.368652 147.971924,606.696167 139.944794,602.860596 
	C134.141083,600.087341 128.723297,596.396851 123.464310,592.650818 
	C121.534966,591.276550 119.110809,588.234680 119.497925,586.546387 
	C120.025803,584.244080 122.684242,581.779968 125.035522,580.672791 
	C131.144409,577.796265 137.882401,580.859436 140.593460,587.056580 
	C140.916016,587.793945 141.558807,588.391113 142.575104,589.752319 
	C143.000290,584.668274 143.345657,580.538635 143.695526,576.415649 
	C139.955109,576.015930 136.198303,575.730347 132.477081,575.196655 
	C116.757500,572.942322 104.127808,581.210754 109.281227,598.785828 
M325.396362,581.000000 
	C333.041840,579.876099 337.224823,583.358337 338.716064,590.800781 
	C338.716064,585.598755 338.716064,580.396729 338.716064,575.505371 
	C320.107391,575.505371 301.710022,575.505371 283.255371,575.505371 
	C283.255371,580.426514 283.255371,585.389832 283.255371,591.091064 
	C287.173492,579.662354 288.333679,580.299072 303.000000,581.658875 
	C303.000000,594.934448 303.011414,608.231201 302.993958,621.527954 
	C302.987579,626.380371 304.361023,631.844604 297.763031,633.770508 
	C306.296753,633.770508 314.830444,633.770508 323.364166,633.770508 
	C317.921783,632.164062 317.735535,628.094543 317.945312,623.540771 
	C318.182465,618.392273 318.000000,613.224426 318.000000,608.065002 
	C318.000000,599.138184 318.000000,590.211365 318.000000,581.000000 
	C320.518494,581.000000 322.487366,581.000000 325.396362,581.000000 
M229.711838,632.949097 
	C225.957718,631.553467 224.784027,628.997498 224.890762,624.915771 
	C225.199539,613.107666 225.120163,601.284485 224.947861,589.470825 
	C224.865250,583.807007 224.213470,578.142822 231.807877,576.605835 
	C222.573685,576.605835 213.339493,576.605835 204.105301,576.605835 
	C210.554001,578.257874 211.159943,582.763489 211.063873,588.153076 
	C210.856308,599.799133 210.940384,611.451843 211.028000,623.101013 
	C211.065475,628.086426 210.472641,632.511047 204.253189,633.728760 
	C209.728409,634.000000 214.872910,634.006226 220.017380,633.997864 
	C223.677963,633.991943 227.338531,633.966309 230.999100,633.949402 
	C230.997681,633.658936 231.019928,633.364502 230.972641,633.081726 
	C230.964294,633.031799 230.665390,633.030457 229.711838,632.949097 
z"/>
<path fill="#F96384" opacity="1.000000" stroke="none" 
	d="
M393.531342,1.000000 
	C396.020416,10.595232 397.870087,20.230217 400.092651,29.778387 
	C407.319366,60.824215 414.678802,91.839149 421.995728,122.863960 
	C423.859802,130.767868 425.755707,138.664276 427.797241,147.236908 
	C447.261780,135.788055 467.685364,128.805527 489.609711,125.628738 
	C486.162933,128.154587 482.367706,130.321808 479.332245,133.270996 
	C468.586273,143.711563 457.265198,153.722061 447.696350,165.177185 
	C430.050476,186.301559 416.105408,209.975906 404.598877,234.969208 
	C393.202332,259.723511 383.955536,285.233154 379.962341,312.381104 
	C379.342957,316.591888 378.617920,320.788239 377.840332,324.972412 
	C377.784210,325.274445 376.894989,325.421631 376.561493,324.979248 
	C377.477661,309.546631 378.225464,294.775574 379.137573,279.632599 
	C379.859161,273.841217 380.416412,268.421753 381.024231,262.616882 
	C381.707825,259.154694 382.340881,256.077942 383.136475,252.633255 
	C383.547058,249.526886 383.795135,246.788467 384.319519,243.772568 
	C385.399719,236.331039 386.203644,229.166992 387.299835,221.705154 
	C387.716034,211.275421 387.840027,201.143448 387.975708,190.574585 
	C385.653595,177.426758 383.319763,164.715851 380.945648,151.610703 
	C377.232849,135.914810 373.560333,120.613144 369.887817,105.311485 
	C369.345062,105.379532 368.802307,105.447578 368.259552,105.515625 
	C366.503265,113.675049 364.746948,121.834473 362.708862,130.252136 
	C360.959229,137.010269 359.491394,143.510162 357.971863,150.396210 
	C356.275940,158.186432 354.631683,165.590500 352.833557,173.338867 
	C351.138214,179.792328 349.596802,185.901489 347.988037,192.414307 
	C347.603485,195.886673 347.286346,198.955368 346.969177,202.024078 
	C344.310364,212.738617 341.587616,223.437775 339.005402,234.170761 
	C332.732452,260.244476 326.484253,286.324280 320.301025,312.419403 
	C312.534149,345.197815 304.816559,377.987946 297.128387,410.784912 
	C293.358429,426.867279 289.637634,442.961975 286.054657,459.086639 
	C285.394012,462.059845 284.134094,463.142426 281.059357,463.064941 
	C273.259674,462.868347 265.451782,462.999695 257.645599,462.999695 
	C252.507401,441.371887 247.439590,420.087372 242.395309,398.797241 
	C234.289764,364.586609 226.495239,330.298859 218.018509,296.180542 
	C209.858459,263.336761 201.504196,230.524063 192.303635,197.960953 
	C183.437210,166.580414 172.279800,135.967606 158.762512,106.209579 
	C147.226349,80.812958 133.727707,56.568111 116.086723,35.029404 
	C106.938370,23.859743 95.452118,14.605211 85.026733,4.480670 
	C84.071960,3.553446 83.151398,2.591009 82.107468,1.322463 
	C113.354225,1.000000 144.708450,1.000000 176.533905,1.405174 
	C178.006607,5.938244 179.030350,10.060890 180.006134,14.194855 
	C188.647141,50.802872 197.322983,87.402748 205.898422,124.026123 
	C211.045120,146.006348 215.957581,168.041397 221.106339,190.021133 
	C229.126389,224.258179 237.249207,258.471191 245.345016,292.690460 
	C250.880005,316.085693 256.451660,339.472260 261.990387,362.866608 
	C265.037109,375.735352 268.049622,388.612152 271.077515,401.485321 
	C276.553772,380.643311 281.238403,359.814148 286.104187,339.027435 
	C292.814026,310.363037 299.670044,281.732910 306.445740,253.083893 
	C311.979034,229.687836 317.511169,206.291458 322.999298,182.884766 
	C330.466675,151.036469 337.890259,119.177887 345.335510,87.324387 
	C349.243988,70.602379 353.103394,53.868629 357.089050,37.165020 
	C359.970551,25.088820 363.023499,13.053532 366.000000,1.000000 
	C375.020905,1.000000 384.041779,1.000000 393.531342,1.000000 
z"/>
<path fill="#FFFFFF" opacity="1.000000" stroke="none" 
	d="
M365.531342,1.000000 
	C363.023499,13.053532 359.970551,25.088820 357.089050,37.165020 
	C353.103394,53.868629 349.243988,70.602379 345.335510,87.324387 
	C337.890259,119.177887 330.466675,151.036469 322.999298,182.884766 
	C317.511169,206.291458 311.979034,229.687836 306.445740,253.083893 
	C299.670044,281.732910 292.814026,310.363037 286.104187,339.027435 
	C281.238403,359.814148 276.553772,380.643311 271.077515,401.485321 
	C268.049622,388.612152 265.037109,375.735352 261.990387,362.866608 
	C256.451660,339.472260 250.880005,316.085693 245.345016,292.690460 
	C237.249207,258.471191 229.126389,224.258179 221.106339,190.021133 
	C215.957581,168.041397 211.045120,146.006348 205.898422,124.026123 
	C197.322983,87.402748 188.647141,50.802872 180.006134,14.194855 
	C179.030350,10.060890 178.006607,5.938244 177.002563,1.405174 
	C239.687561,1.000000 302.375122,1.000000 365.531342,1.000000 
z"/>
<path fill="#F96384" opacity="1.000000" stroke="none" 
	d="
M478.820251,202.978485 
	C476.397644,212.612137 473.671906,222.182907 471.656738,231.901047 
	C470.263214,238.621185 469.371338,245.526505 469.110077,252.381668 
	C468.696869,263.223511 468.363098,274.139099 469.150513,284.939270 
	C470.307465,300.807800 471.945526,316.684753 474.368317,332.405609 
	C476.979736,349.350128 480.562775,366.153809 484.033203,382.954651 
	C487.602051,400.232147 491.541443,417.433167 495.331573,434.664825 
	C495.992279,437.668671 496.716827,440.658539 497.492004,444.000305 
	C503.714478,444.000305 509.856964,443.771912 515.976013,444.053040 
	C525.491333,444.490234 534.266418,446.711609 539.373169,455.940125 
	C539.839478,456.782776 540.035889,457.774750 540.678833,458.848694 
	C541.000000,460.066681 541.000000,461.133331 541.000000,462.600006 
	C512.267578,462.979614 483.535187,462.959259 454.343628,462.452026 
	C451.971527,454.620270 450.058563,447.275360 448.117065,439.515503 
	C447.858459,437.633026 447.663391,436.158997 447.392883,434.699005 
	C444.261566,417.799377 441.118835,400.901825 437.993744,383.543091 
	C437.685394,368.389221 437.362457,353.695984 437.319153,338.704102 
	C439.399994,324.270142 441.201233,310.134827 443.157471,295.650757 
	C445.193390,288.000946 447.140167,280.715912 448.931793,273.392914 
	C450.095825,268.635101 451.033691,263.821960 452.422424,258.960266 
	C457.183075,247.924683 461.594238,236.962418 466.285919,225.791901 
	C469.633514,219.223358 472.638794,212.831909 475.817169,206.527695 
	C476.495636,205.182007 477.802734,204.153259 478.820251,202.978485 
z"/>
<path fill="#3C4145" opacity="1.000000" stroke="none" 
	d="
M89.029099,462.727112 
	C74.270004,462.820770 59.511021,462.949860 44.751774,462.997925 
	C30.480423,463.044434 16.208796,463.007507 1.468645,463.003601 
	C1.000000,462.555542 1.000000,462.111115 1.000000,461.333313 
	C3.938340,454.091034 8.028934,447.973846 15.638200,445.993256 
	C20.921520,444.618073 26.551088,444.486176 32.045422,444.036713 
	C36.318718,443.687134 41.756702,445.222992 44.579178,443.113708 
	C47.178181,441.171448 47.038692,435.500061 48.003365,431.447052 
	C51.700649,415.912933 55.356815,400.369049 59.520737,384.416534 
	C75.677155,383.670715 91.341156,383.337189 107.005066,383.419495 
	C106.873878,384.802704 106.810417,385.784973 106.601067,386.735138 
	C104.745163,395.158295 102.863411,403.575806 100.708221,412.253357 
	C98.620590,420.675171 96.814026,428.838562 94.956398,437.381470 
	C92.946587,446.083038 90.987839,454.405060 89.029099,462.727112 
z"/>
<path fill="#454A4E" opacity="1.000000" stroke="none" 
	d="
M107.005157,383.003662 
	C91.341156,383.337189 75.677155,383.670715 59.589874,384.007263 
	C65.514290,356.794891 71.861977,329.579498 78.971321,302.220398 
	C95.599930,303.955627 111.346802,303.107178 126.953156,300.383850 
	C124.612045,310.182953 122.311790,319.593903 120.000687,329.404907 
	C117.996582,338.204529 116.003326,346.604095 113.961845,355.392426 
	C111.930473,364.847015 109.947327,373.912842 107.724358,382.982422 
	C107.484535,382.986206 107.005157,383.003662 107.005157,383.003662 
z"/>
<path fill="#4C5155" opacity="1.000000" stroke="none" 
	d="
M126.994026,299.995697 
	C111.346802,303.107178 95.599930,303.955627 79.310547,302.016174 
	C80.920975,292.459412 82.951088,282.962616 84.987389,273.467102 
	C87.256371,262.886597 89.530975,252.307266 92.442535,241.364807 
	C96.242798,241.001465 99.421883,241.220474 102.561218,240.960144 
	C113.380417,240.062958 124.185730,238.998383 134.998322,238.458435 
	C134.335358,248.280762 133.670425,257.642212 132.953583,267.410522 
	C132.601517,269.414703 132.303131,271.012360 132.000931,272.609253 
	C130.335999,281.407074 128.670135,290.204742 127.001701,299.250763 
	C126.998810,299.499084 126.994026,299.995697 126.994026,299.995697 
z"/>
<path fill="#313A3D" opacity="1.000000" stroke="none" 
	d="
M447.822144,634.000000 
	C440.515533,634.000000 433.683563,634.000000 425.725830,634.000000 
	C432.070496,631.737244 431.031738,627.900940 430.348541,623.407288 
	C429.001404,614.547058 428.562866,605.548706 427.631042,595.317444 
	C419.829895,609.228699 412.563141,622.187073 404.968018,635.731018 
	C396.740173,623.949097 389.651520,610.274780 380.986847,596.436035 
	C379.915894,605.626282 378.951660,613.845886 378.005341,622.067566 
	C377.817932,623.695679 377.983795,625.422791 377.495941,626.947144 
	C376.027893,631.534607 379.583771,632.181213 382.877319,633.753540 
	C375.779480,633.753540 369.206024,633.753540 362.632568,633.753540 
	C369.566589,632.191223 370.547607,627.047363 371.108337,621.032104 
	C371.969421,611.794739 373.617462,602.633240 374.799988,593.422607 
	C376.004456,584.041016 377.049866,574.638916 379.243378,564.701843 
	C389.078522,580.780640 398.913666,596.859375 409.080963,613.481201 
	C418.672089,597.037598 428.095154,580.882141 437.518250,564.726685 
	C437.853516,564.854004 438.188812,564.981323 438.524109,565.108643 
	C439.682373,573.245911 440.884277,581.377258 441.988800,589.521790 
	C443.696869,602.116150 445.025513,614.775635 447.264252,627.273254 
	C447.728424,629.864563 451.466461,631.869446 453.554047,634.000000 
	C452.356567,634.000000 450.326660,634.000000 447.822144,634.000000 
z"/>
<path fill="#575B61" opacity="1.000000" stroke="none" 
	d="
M101.166176,186.007996 
	C101.776474,178.164902 102.702515,170.330566 102.920906,162.476578 
	C103.226128,151.500015 103.540031,140.476761 102.887375,129.530884 
	C101.758896,110.604813 97.959557,92.150261 90.834908,74.480148 
	C90.567101,73.815933 90.371292,73.122681 90.580521,72.186615 
	C107.592407,86.646935 119.445381,104.943153 129.580002,124.633453 
	C124.925209,123.128853 120.632477,121.259354 115.576996,119.057678 
	C116.589699,124.350365 117.581390,129.973862 118.771133,135.555115 
	C119.320908,138.134171 120.323097,140.613174 121.007149,143.167816 
	C124.025391,154.439774 127.002495,165.722778 129.995819,177.418320 
	C129.998932,179.223419 130.000732,180.611984 129.715271,182.211548 
	C128.020737,185.344452 125.670227,186.140488 122.518082,186.058716 
	C115.405128,185.874191 108.283989,186.005295 101.166176,186.007996 
z"/>
<path fill="#51555B" opacity="1.000000" stroke="none" 
	d="
M100.974701,186.379608 
	C108.283989,186.005295 115.405128,185.874191 122.518082,186.058716 
	C125.670227,186.140488 128.020737,185.344452 130.002472,182.481003 
	C132.052124,196.693558 133.527283,210.847702 135.002014,225.464890 
	C134.999847,229.951157 134.998093,233.974350 134.996338,237.997559 
	C124.185730,238.998383 113.380417,240.062958 102.561218,240.960144 
	C99.421883,241.220474 96.242798,241.001465 92.624222,241.004150 
	C93.450119,232.843460 94.788055,224.688904 96.003136,216.516068 
	C97.415115,207.018890 98.712357,197.504669 100.092659,188.002686 
	C100.156769,187.561401 100.545624,187.167282 100.974701,186.379608 
z"/>
<path fill="#AE4364" opacity="1.000000" stroke="none" 
	d="
M448.145599,439.930450 
	C450.058563,447.275360 451.971527,454.620270 453.877991,462.344177 
	C448.548676,462.749664 443.225891,462.776093 437.436951,462.357239 
	C436.401062,460.549927 436.007904,459.077393 435.235046,457.842529 
	C424.055389,439.979675 412.858063,422.127563 401.552277,404.344543 
	C400.476715,402.652740 398.645905,401.441040 397.165710,400.006470 
	C398.039337,390.249207 398.912964,380.491943 400.312775,370.411987 
	C402.172241,371.289795 403.864410,372.264191 404.784454,373.724945 
	C416.719299,392.674072 428.475616,411.735931 440.461304,430.652527 
	C442.593231,434.017303 445.562805,436.851349 448.145599,439.930450 
z"/>
<path fill="#444750" opacity="1.000000" stroke="none" 
	d="
M134.998322,238.458435 
	C134.998093,233.974350 134.999847,229.951157 135.379913,225.469482 
	C143.597107,228.948349 151.548981,232.680328 159.229279,236.905914 
	C163.339127,239.167084 166.981049,242.278778 170.834137,245.006638 
	C171.861328,249.034256 173.512573,253.019211 173.791473,257.097992 
	C174.462616,266.912933 174.490845,276.771851 174.223022,286.568573 
	C169.452240,282.693207 164.945007,279.693604 158.915115,279.291199 
	C157.071411,279.168182 155.191452,277.387054 153.602341,276.041443 
	C147.614807,270.971344 141.578568,266.134430 133.005493,267.003662 
	C133.670425,257.642212 134.335358,248.280762 134.998322,238.458435 
z"/>
<path fill="#4A4D56" opacity="1.000000" stroke="none" 
	d="
M170.909988,244.565231 
	C166.981049,242.278778 163.339127,239.167084 159.229279,236.905914 
	C151.548981,232.680328 143.597107,228.948349 135.380325,225.006409 
	C133.527283,210.847702 132.052124,196.693558 130.289749,182.269989 
	C130.000732,180.611984 129.998932,179.223419 130.146301,177.114059 
	C131.635406,175.820587 133.304398,174.427124 134.260956,174.810623 
	C139.793045,177.028580 146.033859,177.865982 150.033035,183.282700 
	C151.170654,184.823547 154.000793,185.114807 156.054779,185.979095 
	C160.682678,202.116394 165.394150,218.230621 169.865509,234.411179 
	C170.723206,237.514908 170.636734,240.879547 170.909988,244.565231 
z"/>
<path fill="#B74769" opacity="1.000000" stroke="none" 
	d="
M448.117065,439.515503 
	C445.562805,436.851349 442.593231,434.017303 440.461304,430.652527 
	C428.475616,411.735931 416.719299,392.674072 404.784454,373.724945 
	C403.864410,372.264191 402.172241,371.289795 400.501953,370.048523 
	C401.598877,362.445007 402.998596,354.875519 404.490845,347.324341 
	C404.861816,345.447083 405.531952,343.628967 406.527710,341.404297 
	C408.282257,341.928894 410.013458,342.552856 410.795502,343.781158 
	C417.008545,353.539398 422.896149,363.506836 429.200867,373.203796 
	C431.715454,377.071320 435.029175,380.419281 437.979126,384.003754 
	C441.118835,400.901825 444.261566,417.799377 447.392883,434.699005 
	C447.663391,436.158997 447.858459,437.633026 448.117065,439.515503 
z"/>
<path fill="#313A3D" opacity="1.000000" stroke="none" 
	d="
M54.024593,597.114258 
	C58.816311,586.201416 63.583359,575.678955 68.689529,564.407959 
	C72.236115,571.796997 75.604790,578.566223 78.753616,585.436096 
	C83.120499,594.963501 87.330757,604.562805 91.589417,614.139587 
	C92.833092,616.936340 94.064476,619.740540 95.211693,622.577637 
	C97.513718,628.270569 98.736023,629.611328 105.902374,633.704712 
	C95.477455,633.704712 85.564087,633.704712 75.612297,633.704712 
	C85.765564,627.667603 75.269669,622.015747 75.943413,616.000305 
	C68.864983,616.000305 62.376724,615.848633 55.906891,616.126343 
	C54.587475,616.182983 52.984650,617.612366 52.144165,618.841125 
	C51.082840,620.392761 50.893448,622.518433 49.931541,624.164917 
	C47.550274,628.240784 47.352890,631.583862 54.108238,633.853516 
	C45.781189,633.853516 39.210659,633.853516 31.615589,633.853516 
	C44.773449,628.927307 44.198074,615.836243 49.910507,606.779907 
	C51.693604,603.953064 52.659786,600.610962 54.024593,597.114258 
M64.503845,611.000000 
	C67.260170,611.000000 70.016487,611.000000 73.357109,611.000000 
	C70.312050,603.362183 67.519409,596.357544 64.599693,589.034180 
	C61.544086,596.499390 58.699070,603.450134 55.608803,611.000000 
	C58.681408,611.000000 61.118851,611.000000 64.503845,611.000000 
z"/>
<path fill="#3F424B" opacity="1.000000" stroke="none" 
	d="
M132.953583,267.410522 
	C141.578568,266.134430 147.614807,270.971344 153.602341,276.041443 
	C155.191452,277.387054 157.071411,279.168182 158.915115,279.291199 
	C164.945007,279.693604 169.452240,282.693207 173.855835,286.806366 
	C172.214951,296.345886 170.376434,305.601379 168.566681,314.862457 
	C168.288559,316.285767 168.142883,317.734924 167.464508,319.588745 
	C164.693954,318.868652 162.312515,317.870056 160.116287,316.560791 
	C157.295761,314.879425 154.682739,312.851440 151.872498,311.150970 
	C148.732269,309.250763 144.765594,308.194794 142.416122,305.622711 
	C138.103394,300.901306 132.982376,299.243286 127.004593,299.002441 
	C128.670135,290.204742 130.335999,281.407074 132.000931,272.609253 
	C132.303131,271.012360 132.601517,269.414703 132.953583,267.410522 
z"/>
<path fill="#3A3D46" opacity="1.000000" stroke="none" 
	d="
M127.001701,299.250763 
	C132.982376,299.243286 138.103394,300.901306 142.416122,305.622711 
	C144.765594,308.194794 148.732269,309.250763 151.872498,311.150970 
	C154.682739,312.851440 157.295761,314.879425 160.116287,316.560791 
	C162.312515,317.870056 164.693954,318.868652 167.364624,320.005249 
	C165.156586,330.078735 162.577011,340.152283 159.573914,350.571594 
	C154.872421,348.167419 150.568390,345.456970 146.324768,342.654999 
	C142.928345,340.412445 139.806549,337.657623 136.202042,335.849457 
	C130.975800,333.227844 125.424301,331.254639 120.011543,329.004883 
	C122.311790,319.593903 124.612045,310.182953 126.953156,300.383850 
	C126.994026,299.995697 126.998810,299.499084 127.001701,299.250763 
z"/>
<path fill="#313A3D" opacity="1.000000" stroke="none" 
	d="
M483.049530,630.000000 
	C495.502289,630.945984 500.795288,626.345337 505.847626,616.191956 
	C505.438110,619.060608 505.114044,621.944763 504.595612,624.793518 
	C504.050873,627.786743 503.320038,630.746155 502.609406,634.000000 
	C495.072479,634.000000 487.600739,634.000000 480.128967,634.000000 
	C472.638733,634.000000 465.148499,634.000000 457.658264,634.000000 
	C463.371979,631.907776 463.131317,627.277649 463.058655,622.413086 
	C462.879669,610.427856 462.780548,598.432312 463.107117,586.453369 
	C463.239258,581.606018 462.614716,578.031677 456.570312,577.547607 
	C456.733154,577.069336 456.895996,576.591064 457.058868,576.112793 
	C471.553925,576.112793 486.049011,576.112793 500.736023,576.112793 
	C500.736023,580.357971 500.736023,585.581299 500.736023,590.804626 
	C498.410187,575.686951 486.709686,582.579651 478.308838,580.734070 
	C478.308838,588.285339 478.308838,595.347900 478.308838,602.422302 
	C490.013062,604.611511 492.387299,603.636292 496.492432,593.984192 
	C496.492432,602.045410 496.492432,608.960388 496.492432,617.101257 
	C492.435822,607.296570 492.372528,607.268799 478.300720,608.261902 
	C478.300720,615.296021 478.300720,622.359985 478.300720,629.769165 
	C479.696198,629.844604 481.134125,629.922302 483.049530,630.000000 
z"/>
<path fill="#2E3038" opacity="1.000000" stroke="none" 
	d="
M107.005066,383.419495 
	C107.005157,383.003662 107.484535,382.986206 108.116753,382.990540 
	C110.457420,383.503906 112.772125,383.478271 113.772072,384.612152 
	C118.791580,390.303925 125.082886,394.059662 131.704590,397.430786 
	C132.275253,397.721344 132.831223,398.199005 133.186996,398.728790 
	C136.462524,403.606049 141.666092,405.268890 146.833374,407.004395 
	C144.490204,417.226013 142.147049,427.447601 139.132812,437.719971 
	C135.453476,435.763977 131.829773,434.288116 129.553757,431.649689 
	C123.028847,424.085907 114.345787,419.387085 106.625305,413.432800 
	C105.215523,412.345551 102.891357,412.443909 100.989296,411.994965 
	C102.863411,403.575806 104.745163,395.158295 106.601067,386.735138 
	C106.810417,385.784973 106.873878,384.802704 107.005066,383.419495 
z"/>
<path fill="#32343D" opacity="1.000000" stroke="none" 
	d="
M146.910553,406.599396 
	C141.666092,405.268890 136.462524,403.606049 133.186996,398.728790 
	C132.831223,398.199005 132.275253,397.721344 131.704590,397.430786 
	C125.082886,394.059662 118.791580,390.303925 113.772072,384.612152 
	C112.772125,383.478271 110.457420,383.503906 108.356575,382.986755 
	C109.947327,373.912842 111.930473,364.847015 114.366531,355.391144 
	C116.867332,355.495117 119.150253,355.576843 120.908340,356.579193 
	C123.587677,358.106689 125.833702,360.372192 128.387115,362.146759 
	C136.573669,367.836273 144.816895,373.444214 153.038269,379.083588 
	C151.021423,388.120514 149.004578,397.157471 146.910553,406.599396 
z"/>
<path fill="#313A3D" opacity="1.000000" stroke="none" 
	d="
M241.334991,615.458740 
	C243.465347,626.376709 248.837753,631.535339 258.944397,630.971863 
	C262.845490,630.754272 266.558350,629.533142 267.745270,625.380188 
	C268.878571,621.414734 267.507080,618.230591 263.607849,615.996338 
	C257.587524,612.546570 251.787201,608.709412 245.930862,604.977966 
	C240.740143,601.670593 238.763000,596.758057 238.991959,590.762634 
	C239.205627,585.167297 241.378357,580.888733 246.356308,577.865601 
	C250.984375,575.054993 255.903107,574.680664 260.996307,575.035583 
	C265.559479,575.353638 270.101746,575.971375 274.638245,576.455261 
	C274.326782,580.517456 274.010101,584.647644 273.622925,589.697388 
	C272.610199,588.405579 271.949646,587.833984 271.629181,587.111572 
	C268.941711,581.053040 262.595459,577.851318 256.511810,580.366028 
	C254.011505,581.399658 251.197754,584.042664 250.586472,586.471985 
	C250.156540,588.180542 252.765488,591.369080 254.786789,592.838501 
	C259.869171,596.533325 265.119598,600.209229 270.794403,602.826660 
	C279.148773,606.679993 279.725220,613.585266 278.889832,620.962952 
	C278.105621,627.888794 273.525879,631.865479 266.977661,634.110107 
	C258.876404,636.887085 250.967117,635.815491 243.128036,633.544556 
	C238.684097,632.257141 236.808640,627.780212 238.101089,622.176208 
	C238.629181,619.886536 239.991653,617.789246 241.334991,615.458740 
z"/>
<path fill="#313A3D" opacity="1.000000" stroke="none" 
	d="
M166.785019,628.341125 
	C171.823044,631.724792 176.822754,632.069031 181.878342,629.586304 
	C187.403458,626.873047 187.681168,620.265686 182.447311,616.819031 
	C176.371155,612.817749 170.244797,608.890259 164.080826,605.025391 
	C158.831482,601.734070 156.832230,596.911499 156.992569,590.929688 
	C157.142746,585.327148 159.250122,580.904602 164.219742,577.937744 
	C169.906265,574.542969 175.901291,574.468994 182.199051,575.535828 
	C185.712524,576.131042 189.337296,576.069336 192.732224,576.291870 
	C192.360565,580.623779 192.013336,584.670959 191.666092,588.718140 
	C191.390533,588.872314 191.114975,589.026550 190.839417,589.180786 
	C190.224762,587.946045 189.449738,586.763733 189.025513,585.466736 
	C187.751404,581.571167 184.477554,580.425842 181.065048,580.093201 
	C177.083405,579.705017 172.812027,579.420166 169.988922,583.268921 
	C167.347275,586.870300 168.140167,589.994263 172.574631,592.854126 
	C177.997513,596.351440 183.352631,600.050842 189.112625,602.904907 
	C197.007309,606.816650 197.692139,613.529968 196.922638,620.802124 
	C196.204971,627.584595 191.806732,631.667908 185.616272,633.990906 
	C177.454727,637.053589 169.270401,635.889587 161.274277,633.588196 
	C157.910690,632.620056 155.221024,630.080505 156.015930,625.820068 
	C156.678818,622.267273 157.481415,618.740601 158.165970,615.470581 
	C161.176361,620.023621 163.837479,624.048401 166.785019,628.341125 
z"/>
<path fill="#313A3D" opacity="1.000000" stroke="none" 
	d="
M109.153328,598.399170 
	C104.127808,581.210754 116.757500,572.942322 132.477081,575.196655 
	C136.198303,575.730347 139.955109,576.015930 143.693268,576.412354 
	C143.345657,580.538635 143.000290,584.668274 142.575104,589.752319 
	C141.558807,588.391113 140.916016,587.793945 140.593460,587.056580 
	C137.882401,580.859436 131.144409,577.796265 125.035522,580.672791 
	C122.684242,581.779968 120.025803,584.244080 119.497925,586.546387 
	C119.110809,588.234680 121.534966,591.276550 123.464310,592.650818 
	C128.723297,596.396851 134.141083,600.087341 139.944794,602.860596 
	C147.971924,606.696167 148.536957,613.368652 147.951950,620.662781 
	C147.430603,627.163269 143.332138,631.408997 137.646820,633.635803 
	C129.170395,636.955811 120.438278,636.306946 111.937668,633.379944 
	C108.595825,632.229370 106.298744,629.865784 107.018158,625.876526 
	C107.660706,622.313354 108.457878,618.778076 109.849045,615.250610 
	C112.190628,621.874146 113.735817,628.890198 121.753319,630.087585 
	C125.517242,630.649719 129.828735,630.278931 133.368835,628.943726 
	C138.256622,627.100098 138.515533,619.982849 134.130341,617.058533 
	C128.207596,613.109131 122.006409,609.570007 116.165100,605.508972 
	C113.567787,603.703308 111.557808,601.052795 109.153328,598.399170 
z"/>
<path fill="#363841" opacity="1.000000" stroke="none" 
	d="
M153.386566,378.878845 
	C144.816895,373.444214 136.573669,367.836273 128.387115,362.146759 
	C125.833702,360.372192 123.587677,358.106689 120.908340,356.579193 
	C119.150253,355.576843 116.867332,355.495117 114.414764,355.002380 
	C116.003326,346.604095 117.996582,338.204529 120.000687,329.404907 
	C125.424301,331.254639 130.975800,333.227844 136.202042,335.849457 
	C139.806549,337.657623 142.928345,340.412445 146.324768,342.654999 
	C150.568390,345.456970 154.872421,348.167419 159.491974,350.960449 
	C157.800674,360.227051 155.767776,369.450562 153.386566,378.878845 
z"/>
<path fill="#313A3D" opacity="1.000000" stroke="none" 
	d="
M324.926300,581.000000 
	C322.487366,581.000000 320.518494,581.000000 318.000000,581.000000 
	C318.000000,590.211365 318.000000,599.138184 318.000000,608.065002 
	C318.000000,613.224426 318.182465,618.392273 317.945312,623.540771 
	C317.735535,628.094543 317.921783,632.164062 323.364166,633.770508 
	C314.830444,633.770508 306.296753,633.770508 297.763031,633.770508 
	C304.361023,631.844604 302.987579,626.380371 302.993958,621.527954 
	C303.011414,608.231201 303.000000,594.934448 303.000000,581.658875 
	C288.333679,580.299072 287.173492,579.662354 283.255371,591.091064 
	C283.255371,585.389832 283.255371,580.426514 283.255371,575.505371 
	C301.710022,575.505371 320.107391,575.505371 338.716064,575.505371 
	C338.716064,580.396729 338.716064,585.598755 338.716064,590.800781 
	C337.224823,583.358337 333.041840,579.876099 324.926300,581.000000 
z"/>
<path fill="#C04B6D" opacity="1.000000" stroke="none" 
	d="
M437.993744,383.543091 
	C435.029175,380.419281 431.715454,377.071320 429.200867,373.203796 
	C422.896149,363.506836 417.008545,353.539398 410.795502,343.781158 
	C410.013458,342.552856 408.282257,341.928894 406.639465,341.020569 
	C409.147339,331.235168 412.006531,321.454102 415.413147,311.348450 
	C417.152618,311.988068 418.675720,312.733337 419.481934,313.952667 
	C424.089142,320.920563 428.464417,328.041718 433.067993,335.012085 
	C434.081757,336.547089 435.699768,337.683014 437.039520,339.002747 
	C437.362457,353.695984 437.685394,368.389221 437.993744,383.543091 
z"/>
<path fill="#292B34" opacity="1.000000" stroke="none" 
	d="
M100.708221,412.253357 
	C102.891357,412.443909 105.215523,412.345551 106.625305,413.432800 
	C114.345787,419.387085 123.028847,424.085907 129.553757,431.649689 
	C131.829773,434.288116 135.453476,435.763977 138.785126,437.908630 
	C138.027466,443.514221 136.918518,448.976654 135.878952,454.452271 
	C135.461624,456.650421 135.196716,458.877563 134.608231,461.585968 
	C134.123215,462.232697 133.990845,462.446045 133.956879,462.720459 
	C132.895569,462.757812 131.834244,462.795166 130.382568,462.372955 
	C128.752197,460.157898 127.810020,458.041962 126.211182,456.720612 
	C122.699562,453.818420 118.994514,451.092926 115.116653,448.703979 
	C108.515724,444.637543 101.720833,440.885925 95.007462,437.001984 
	C96.814026,428.838562 98.620590,420.675171 100.708221,412.253357 
z"/>
<path fill="#51555B" opacity="1.000000" stroke="none" 
	d="
M156.024902,185.586548 
	C154.000793,185.114807 151.170654,184.823547 150.033035,183.282700 
	C146.033859,177.865982 139.793045,177.028580 134.260956,174.810623 
	C133.304398,174.427124 131.635406,175.820587 130.144989,176.697510 
	C127.002495,165.722778 124.025391,154.439774 121.007149,143.167816 
	C120.323097,140.613174 119.320908,138.134171 118.771133,135.555115 
	C117.581390,129.973862 116.589699,124.350365 115.576996,119.057678 
	C120.632477,121.259354 124.925209,123.128853 129.625046,124.994034 
	C140.804886,144.144241 149.155716,164.343216 156.024902,185.586548 
z"/>
<path fill="#A53F60" opacity="1.000000" stroke="none" 
	d="
M397.098846,400.469177 
	C398.645905,401.441040 400.476715,402.652740 401.552277,404.344543 
	C412.858063,422.127563 424.055389,439.979675 435.235046,457.842529 
	C436.007904,459.077393 436.401062,460.549927 436.978516,462.259277 
	C427.982941,462.677734 418.979614,462.748871 409.425232,462.598145 
	C408.704224,462.166962 408.489502,462.025726 408.229980,461.952576 
	C404.188873,441.668945 396.134277,422.121826 397.098846,400.469177 
z"/>
<path fill="#CA4F72" opacity="1.000000" stroke="none" 
	d="
M437.319153,338.704102 
	C435.699768,337.683014 434.081757,336.547089 433.067993,335.012085 
	C428.464417,328.041718 424.089142,320.920563 419.481934,313.952667 
	C418.675720,312.733337 417.152618,311.988068 415.607635,311.019714 
	C419.299835,300.140869 423.344971,289.266174 428.039459,278.231079 
	C432.216187,282.904022 435.687592,287.779999 439.307281,292.543243 
	C440.313171,293.866913 441.758636,294.856567 443.002441,295.999481 
	C441.201233,310.134827 439.399994,324.270142 437.319153,338.704102 
z"/>
<path fill="#313A3D" opacity="1.000000" stroke="none" 
	d="
M230.106262,632.977905 
	C230.665390,633.030457 230.964294,633.031799 230.972641,633.081726 
	C231.019928,633.364502 230.997681,633.658936 230.999100,633.949402 
	C227.338531,633.966309 223.677963,633.991943 220.017380,633.997864 
	C214.872910,634.006226 209.728409,634.000000 204.253189,633.728760 
	C210.472641,632.511047 211.065475,628.086426 211.028000,623.101013 
	C210.940384,611.451843 210.856308,599.799133 211.063873,588.153076 
	C211.159943,582.763489 210.554001,578.257874 204.105301,576.605835 
	C213.339493,576.605835 222.573685,576.605835 231.807877,576.605835 
	C224.213470,578.142822 224.865250,583.807007 224.947861,589.470825 
	C225.120163,601.284485 225.199539,613.107666 224.890762,624.915771 
	C224.784027,628.997498 225.957718,631.553467 230.106262,632.977905 
z"/>
<path fill="#D45477" opacity="1.000000" stroke="none" 
	d="
M443.157440,295.650757 
	C441.758636,294.856567 440.313171,293.866913 439.307281,292.543243 
	C435.687592,287.779999 432.216187,282.904022 428.337524,278.033142 
	C432.620453,268.209229 437.254578,258.422821 442.427063,248.329178 
	C444.404694,249.213150 446.098206,250.204865 447.225281,251.641098 
	C449.037872,253.950867 450.476349,256.554260 452.072906,259.033600 
	C451.033691,263.821960 450.095825,268.635101 448.931793,273.392914 
	C447.140167,280.715912 445.193390,288.000946 443.157440,295.650757 
z"/>
<path fill="#262830" opacity="1.000000" stroke="none" 
	d="
M94.956398,437.381470 
	C101.720833,440.885925 108.515724,444.637543 115.116653,448.703979 
	C118.994514,451.092926 122.699562,453.818420 126.211182,456.720612 
	C127.810020,458.041962 128.752197,460.157898 129.995209,462.276611 
	C116.650948,462.707001 103.303719,462.774170 89.492783,462.784241 
	C90.987839,454.405060 92.946587,446.083038 94.956398,437.381470 
z"/>
<path fill="#B8486A" opacity="1.000000" stroke="none" 
	d="
M380.973663,263.002319 
	C380.416412,268.421753 379.859161,273.841217 378.791748,279.592590 
	C377.382507,279.040314 376.297699,278.279358 375.615326,277.251312 
	C371.896698,271.648865 368.380432,265.909088 364.552979,260.383942 
	C363.560303,258.950958 361.700470,258.118744 360.238953,257.010559 
	C357.595825,246.269592 354.952698,235.528625 352.740234,224.390762 
	C354.163971,224.763718 355.446350,225.341949 356.103638,226.334229 
	C360.671143,233.229630 365.004181,240.281448 369.621643,247.142303 
	C373.250153,252.533646 377.178497,257.723145 380.973663,263.002319 
z"/>
<path fill="#AD4465" opacity="1.000000" stroke="none" 
	d="
M360.157288,257.408997 
	C361.700470,258.118744 363.560303,258.950958 364.552979,260.383942 
	C368.380432,265.909088 371.896698,271.648865 375.615326,277.251312 
	C376.297699,278.279358 377.382507,279.040314 378.627441,279.964539 
	C378.225464,294.775574 377.477661,309.546631 376.455353,324.623352 
	C371.832275,306.799652 367.484039,288.670197 363.134949,270.540894 
	C362.116638,266.296051 361.095459,262.051880 360.157288,257.408997 
z"/>
<path fill="#C24B6E" opacity="1.000000" stroke="none" 
	d="
M347.030823,202.314056 
	C347.286346,198.955368 347.603485,195.886673 348.352386,192.415802 
	C350.411011,193.476181 352.452148,194.670456 353.599976,196.443192 
	C363.837372,212.254089 373.917084,228.167099 384.043243,244.050034 
	C383.795135,246.788467 383.547058,249.526886 382.790405,252.594376 
	C381.376068,252.029404 380.264618,251.266861 379.596252,250.221100 
	C372.466522,239.066193 365.618988,227.723618 358.225555,216.748108 
	C355.203156,212.261368 354.121124,206.020599 347.959106,204.014282 
	C347.670227,203.544189 347.381348,203.074112 347.030823,202.314056 
z"/>
<path fill="#BE4B6D" opacity="1.000000" stroke="none" 
	d="
M347.976074,204.437317 
	C354.121124,206.020599 355.203156,212.261368 358.225555,216.748108 
	C365.618988,227.723618 372.466522,239.066193 379.596252,250.221100 
	C380.264618,251.266861 381.376068,252.029404 382.627869,252.962311 
	C382.340881,256.077942 381.707825,259.154694 381.024231,262.616882 
	C377.178497,257.723145 373.250153,252.533646 369.621643,247.142303 
	C365.004181,240.281448 360.671143,233.229630 356.103638,226.334229 
	C355.446350,225.341949 354.163971,224.763718 352.766418,223.942017 
	C350.905670,217.546890 349.449341,211.203629 347.976074,204.437317 
z"/>
<path fill="#DD587B" opacity="1.000000" stroke="none" 
	d="
M452.422424,258.960266 
	C450.476349,256.554260 449.037872,253.950867 447.225281,251.641098 
	C446.098206,250.204865 444.404694,249.213150 442.612946,248.018219 
	C447.953003,238.771286 453.645538,229.528046 459.990417,220.172379 
	C462.430298,222.040009 464.217834,224.020081 466.005432,226.000153 
	C461.594238,236.962418 457.183075,247.924683 452.422424,258.960266 
z"/>
<path fill="#E55D80" opacity="1.000000" stroke="none" 
	d="
M466.285889,225.791901 
	C464.217834,224.020081 462.430298,222.040009 460.292389,220.019104 
	C466.593323,211.777267 473.244568,203.576263 479.895844,195.375244 
	C480.458679,195.750931 481.021515,196.126617 481.584351,196.502289 
	C480.771484,198.452118 479.958618,200.401932 478.982971,202.665131 
	C477.802734,204.153259 476.495636,205.182007 475.817169,206.527695 
	C472.638794,212.831909 469.633514,219.223358 466.285889,225.791901 
z"/>
<path fill="#C66B8B" opacity="1.000000" stroke="none" 
	d="
M408.197083,462.211060 
	C408.489502,462.025726 408.704224,462.166962 408.962341,462.550232 
	C408.755127,462.639252 408.459656,462.554382 408.197083,462.211060 
z"/>
<path fill="#575664" opacity="1.000000" stroke="none" 
	d="
M134.220123,462.795685 
	C133.990845,462.446045 134.123215,462.232697 134.537155,462.019104 
	C134.641312,462.262177 134.562347,462.566528 134.220123,462.795685 
z"/>
<path fill="#D45376" opacity="1.000000" stroke="none" 
	d="
M387.964020,191.011490 
	C387.840027,201.143448 387.716034,211.275421 386.995361,221.557800 
	C385.278198,220.500732 383.940857,219.431122 383.071808,218.063858 
	C376.420105,207.598984 369.986267,196.993530 363.213837,186.608429 
	C360.120392,181.864822 356.415192,177.520157 352.987457,172.994553 
	C354.631683,165.590500 356.275940,158.186432 358.318420,150.429398 
	C359.876465,151.179535 361.314178,152.104828 362.152008,153.413986 
	C368.746277,163.717819 375.131744,174.156342 381.808563,184.405487 
	C383.426971,186.889832 385.889587,188.824219 387.964020,191.011490 
z"/>
<path fill="#C94E71" opacity="1.000000" stroke="none" 
	d="
M352.833557,173.338867 
	C356.415192,177.520157 360.120392,181.864822 363.213837,186.608429 
	C369.986267,196.993530 376.420105,207.598984 383.071808,218.063858 
	C383.940857,219.431122 385.278198,220.500732 386.703125,221.855576 
	C386.203644,229.166992 385.399719,236.331039 384.319519,243.772568 
	C373.917084,228.167099 363.837372,212.254089 353.599976,196.443192 
	C352.452148,194.670456 350.411011,193.476181 348.419739,192.012146 
	C349.596802,185.901489 351.138214,179.792328 352.833557,173.338867 
z"/>
<path fill="#DD577A" opacity="1.000000" stroke="none" 
	d="
M387.975708,190.574585 
	C385.889587,188.824219 383.426971,186.889832 381.808563,184.405487 
	C375.131744,174.156342 368.746277,163.717819 362.152008,153.413986 
	C361.314178,152.104828 359.876465,151.179535 358.370117,150.043243 
	C359.491394,143.510162 360.959229,137.010269 363.057465,130.288773 
	C367.645264,135.415436 371.539581,140.812149 375.591064,146.088150 
	C377.210846,148.197479 379.177277,150.040634 380.985962,152.004944 
	C383.319763,164.715851 385.653595,177.426758 387.975708,190.574585 
z"/>
<path fill="#E45A7D" opacity="1.000000" stroke="none" 
	d="
M380.945618,151.610718 
	C379.177277,150.040634 377.210846,148.197479 375.591064,146.088150 
	C371.539581,140.812149 367.645264,135.415436 363.339264,130.030533 
	C364.746948,121.834473 366.503265,113.675049 368.259552,105.515625 
	C368.802307,105.447578 369.345062,105.379532 369.887817,105.311485 
	C373.560333,120.613144 377.232849,135.914810 380.945618,151.610718 
z"/>
<path fill="#FFFFFF" opacity="1.000000" stroke="none" 
	d="
M64.030067,611.000000 
	C61.118851,611.000000 58.681408,611.000000 55.608803,611.000000 
	C58.699070,603.450134 61.544086,596.499390 64.599693,589.034180 
	C67.519409,596.357544 70.312050,603.362183 73.357109,611.000000 
	C70.016487,611.000000 67.260170,611.000000 64.030067,611.000000 
z"/>
</svg>