<svg xmlns="http://www.w3.org/2000/svg" fill="none" viewBox="0 0 1600 290" preserveAspectRatio="none"><g opacity=".16"><path fill="url(#a)" d="M0 210.66h1600v16.415H0z"/><path fill="url(#b)" d="M0 239.387h1600v17.783H0z"/><path fill="url(#c)" d="M0 270.849h1600V290H0z"/><path fill="url(#d)" d="M0 184.67h1600v15.047H0z"/><path fill="url(#e)" d="M0 160.047h1600v13.679H0z"/><path fill="url(#f)" d="M0 136.792h1600v12.311H0z"/><path fill="url(#g)" d="M0 114.905h1600v10.943H0z"/><path fill="url(#h)" d="M0 94.387h1600v9.575H0z"/><path fill="url(#i)" d="M0 75.236h1600v8.208H0z"/><path fill="url(#j)" d="M0 57.453h1600v6.84H0z"/><path fill="url(#k)" d="M0 41.038h1600v5.472H0z"/><path fill="url(#l)" d="M0 25.99h1600v4.104H0z"/><path fill="url(#m)" d="M0 12.312h1600v2.736H0z"/><path fill="url(#n)" d="M0 0h1600v1.368H0z"/></g><defs><linearGradient id="a" x1="10.441" x2="18.536" y1="213.099" y2="316.169" gradientUnits="userSpaceOnUse"><stop stop-color="#00E3F2"/><stop offset=".336" stop-color="#FF9B00"/><stop offset=".64" stop-color="#FF2828"/><stop offset="1" stop-color="#C000FF"/></linearGradient><linearGradient id="b" x1="10.441" x2="19.932" y1="242.029" y2="353.57" gradientUnits="userSpaceOnUse"><stop stop-color="#00E3F2"/><stop offset=".336" stop-color="#FF9B00"/><stop offset=".64" stop-color="#FF2828"/><stop offset="1" stop-color="#C000FF"/></linearGradient><linearGradient id="c" x1="10.441" x2="21.435" y1="273.694" y2="393.677" gradientUnits="userSpaceOnUse"><stop stop-color="#00E3F2"/><stop offset=".336" stop-color="#FF9B00"/><stop offset=".64" stop-color="#FF2828"/><stop offset="1" stop-color="#C000FF"/></linearGradient><linearGradient id="d" x1="10.441" x2="17.25" y1="186.906" y2="281.479" gradientUnits="userSpaceOnUse"><stop stop-color="#00E3F2"/><stop offset=".336" stop-color="#FF9B00"/><stop offset=".64" stop-color="#FF2828"/><stop offset="1" stop-color="#C000FF"/></linearGradient><linearGradient id="e" x1="10.441" x2="16.073" y1="162.079" y2="248.132" gradientUnits="userSpaceOnUse"><stop stop-color="#00E3F2"/><stop offset=".336" stop-color="#FF9B00"/><stop offset=".64" stop-color="#FF2828"/><stop offset="1" stop-color="#C000FF"/></linearGradient><linearGradient id="f" x1="10.441" x2="15.007" y1="138.621" y2="216.132" gradientUnits="userSpaceOnUse"><stop stop-color="#00E3F2"/><stop offset=".336" stop-color="#FF9B00"/><stop offset=".64" stop-color="#FF2828"/><stop offset="1" stop-color="#C000FF"/></linearGradient><linearGradient id="g" x1="10.441" x2="14.051" y1="116.531" y2="185.48" gradientUnits="userSpaceOnUse"><stop stop-color="#00E3F2"/><stop offset=".336" stop-color="#FF9B00"/><stop offset=".64" stop-color="#FF2828"/><stop offset="1" stop-color="#C000FF"/></linearGradient><linearGradient id="h" x1="10.441" x2="13.207" y1="95.809" y2="156.178" gradientUnits="userSpaceOnUse"><stop stop-color="#00E3F2"/><stop offset=".336" stop-color="#FF9B00"/><stop offset=".64" stop-color="#FF2828"/><stop offset="1" stop-color="#C000FF"/></linearGradient><linearGradient id="i" x1="10.441" x2="12.474" y1="76.456" y2="128.229" gradientUnits="userSpaceOnUse"><stop stop-color="#00E3F2"/><stop offset=".336" stop-color="#FF9B00"/><stop offset=".64" stop-color="#FF2828"/><stop offset="1" stop-color="#C000FF"/></linearGradient><linearGradient id="j" x1="10.441" x2="11.854" y1="58.469" y2="101.634" gradientUnits="userSpaceOnUse"><stop stop-color="#00E3F2"/><stop offset=".336" stop-color="#FF9B00"/><stop offset=".64" stop-color="#FF2828"/><stop offset="1" stop-color="#C000FF"/></linearGradient><linearGradient id="k" x1="10.441" x2="11.345" y1="41.851" y2="76.396" gradientUnits="userSpaceOnUse"><stop stop-color="#00E3F2"/><stop offset=".336" stop-color="#FF9B00"/><stop offset=".64" stop-color="#FF2828"/><stop offset="1" stop-color="#C000FF"/></linearGradient><linearGradient id="l" x1="10.441" x2="10.95" y1="26.6" y2="52.517" gradientUnits="userSpaceOnUse"><stop stop-color="#00E3F2"/><stop offset=".336" stop-color="#FF9B00"/><stop offset=".64" stop-color="#FF2828"/><stop offset="1" stop-color="#C000FF"/></linearGradient><linearGradient id="m" x1="10.441" x2="10.667" y1="12.718" y2="29.999" gradientUnits="userSpaceOnUse"><stop stop-color="#00E3F2"/><stop offset=".336" stop-color="#FF9B00"/><stop offset=".64" stop-color="#FF2828"/><stop offset="1" stop-color="#C000FF"/></linearGradient><linearGradient id="n" x1="10.441" x2="10.498" y1=".203" y2="8.845" gradientUnits="userSpaceOnUse"><stop stop-color="#00E3F2"/><stop offset=".336" stop-color="#FF9B00"/><stop offset=".64" stop-color="#FF2828"/><stop offset="1" stop-color="#C000FF"/></linearGradient></defs></svg>