<svg xmlns="http://www.w3.org/2000/svg" fill="none" viewBox="0 0 568 612"><g filter="url(#a)" opacity=".35"><path fill="url(#b)" d="M259.233 152.325c15.003-83.002 114.393-42.86 133.836-35.19 1.688 1.701 31.555.563 67.525 119.528 35.97 118.965-75.427 146.81-121.817 134.132-46.39-12.677-38.15 41-82.392 117.251s-125.481-48.264-134.094-113.66c-8.613-65.396 91.743-35.118 116.219-40.914 24.476-5.795 5.72-98.146 20.723-181.147z"/></g><path fill="url(#c)" fill-opacity=".05" d="M235.314 500.327C105.354 500.327 0 397.946 0 271.652 0 145.358 105.354 42.976 235.314 42.976c129.961 0 235.315 102.382 235.315 228.676 0 126.294-105.354 228.675-235.315 228.675z"/><path fill="url(#d)" d="M368.589 98.158H61.245a8 8 0 00-8 8v363.493a8 8 0 008 8H368.59a8 8 0 008-8V106.158a8 8 0 00-8-8z"/><rect width="87.873" height="6.352" x="78.654" y="167.455" fill="#3442F4" rx="3.176"/><rect width="229.739" height="6.352" x="78.654" y="205.568" fill="#D7E4F9" rx="3.176"/><rect width="177.862" height="6.352" x="78.654" y="221.449" fill="#D7E4F9" rx="3.176"/><rect width="206.447" height="8.47" x="78.654" y="187.571" fill="#D7E4F9" rx="4.235"/><rect width="97.401" height="6.352" x="78.654" y="253.21" fill="#3442F4" rx="3.176"/><rect width="283.733" height="7.411" x="78.654" y="291.323" fill="#D7E4F9" rx="3.705"/><rect width="253.03" height="6.352" x="78.654" y="309.322" fill="#D7E4F9" rx="3.176"/><rect width="236.091" height="8.47" x="78.654" y="273.326" fill="#D7E4F9" rx="4.235"/><rect width="97.401" height="6.352" x="78.654" y="341.083" fill="#3442F4" rx="3.176"/><rect width="255.148" height="7.411" x="78.654" y="379.196" fill="#D7E4F9" rx="3.705"/><rect width="255.148" height="7.411" x="78.654" y="418.368" fill="#D7E4F9" rx="3.705"/><rect width="220.21" height="8.47" x="78.654" y="361.198" fill="#D7E4F9" rx="4.235"/><rect width="220.21" height="8.47" x="78.654" y="400.37" fill="#D7E4F9" rx="4.235"/><path fill="#003889" d="M403.94 155.994l1.084-25.678a5.926 5.926 0 00-5.671-6.171L80.538 110.693a5.928 5.928 0 00-6.17 5.671l-1.083 25.678a5.927 5.927 0 005.672 6.171l318.814 13.452a5.928 5.928 0 006.171-5.671h-.002z" opacity=".18" style="mix-blend-mode:multiply"/><path fill="url(#e)" d="M390.564 147.874l-319.1-.005a5.924 5.924 0 01-5.925-5.925l.001-25.702a5.925 5.925 0 015.925-5.926l319.1.005a5.925 5.925 0 015.926 5.925l-.001 25.702a5.926 5.926 0 01-5.926 5.926z"/><rect width="9.44" height="9.44" x="87.558" y="121.951" fill="#F16C7A" rx="4.72" transform="rotate(.615 87.558 121.951)"/><rect width="9.44" height="9.44" x="102.981" y="122.031" fill="#49C3E8" rx="4.72" transform="rotate(.615 102.981 122.031)"/><rect width="9.44" height="9.44" x="118.397" y="122.203" fill="#FFD160" rx="4.72" transform="rotate(.615 118.397 122.203)"/><g filter="url(#f)"><rect width="335.609" height="196.919" x="178.449" y="196.04" fill="#fff" rx="12"/><rect width="334.609" height="195.919" x="178.949" y="196.54" stroke="#3442F4" rx="11.5"/></g><path fill="#9CAACF" d="M200.124 236.51v-5.952h-3.456v-3.456h3.456v-3.584h-3.456v-3.456h3.456v-5.952h3.648v5.952h3.584v-5.952h3.648v5.952h3.456v3.456h-3.456v3.584h3.456v3.456h-3.456v5.952h-3.648v-5.952h-3.584v5.952h-3.648zm3.648-9.408h3.584v-3.584h-3.584v3.584zm22.328 9.856c-2.645 0-4.768-.725-6.368-2.176-1.6-1.472-2.4-3.69-2.4-6.656v-5.632c0-2.88.8-5.066 2.4-6.56 1.6-1.514 3.723-2.272 6.368-2.272 2.667 0 4.789.758 6.368 2.272 1.6 1.494 2.4 3.68 2.4 6.56v5.632c0 2.966-.8 5.184-2.4 6.656-1.579 1.451-3.701 2.176-6.368 2.176zm0-3.648c1.6 0 2.773-.437 3.52-1.312.768-.874 1.152-2.122 1.152-3.744v-5.952c0-1.642-.427-2.88-1.28-3.712-.832-.853-1.963-1.28-3.392-1.28-1.472 0-2.624.438-3.456 1.312-.811.875-1.216 2.102-1.216 3.68v5.952c0 1.686.384 2.955 1.152 3.808.789.832 1.963 1.248 3.52 1.248zm18.638 3.2v-19.392h-.576l-3.008 7.104h-4.288l4.576-10.112h7.392v22.4h-4.096z"/><path fill="#3442F4" d="M227.973 313.013h-25.174v56.655h25.174v-56.655z"/><path fill="#D3DFFF" d="M279.897 279.311h-25.173v90.357h25.173v-90.357z"/><path fill="#3442F4" d="M331.818 259.468h-25.174v110.2h25.174v-110.2z"/><path fill="#D3DFFF" d="M383.742 307.42h-25.173v62.248h25.173V307.42z"/><path fill="#3442F4" d="M435.666 271.46h-25.173v98.208h25.173V271.46z"/><path fill="#D3DFFF" d="M487.591 234.154h-25.174v135.514h25.174V234.154z"/><g filter="url(#g)"><rect width="77.448" height="77.448" x="396.919" y="153.339" fill="url(#h)" rx="38.724"/><rect width="76.448" height="76.448" x="397.419" y="153.839" stroke="#11121C" rx="38.224"/></g><path stroke="#11121C" stroke-linecap="round" stroke-linejoin="round" stroke-width="3" d="M434.836 206.584h-8.874a3.227 3.227 0 01-3.227-3.227v-22.589a3.227 3.227 0 013.227-3.226h19.361a3.223 3.223 0 013.227 3.226v9.681m-17.748 11.295h3.227"/><path stroke="#11121C" stroke-linecap="round" stroke-linejoin="round" stroke-width="3" d="M440.483 201.744a4.84 4.84 0 109.68 0 4.84 4.84 0 00-9.68 0z"/><path fill="#fff" d="M364.383 484.029c10.775 2.199 23.098-1.419 32.092-7.408 8.613-5.737 17.881-16.304 14.862-27.547-1.099-4.096-4.625-7.503-8.995-5.507-4.059 1.852-5.235 6.588-3.243 10.432 5.379 10.383 20.86 5.462 28.221.383a36.21 36.21 0 0011.246-12.514c2.503-4.623 4.621-10.544 3.845-15.866-.113-.766-1.391-.748-1.521 0-.682 3.997-1.018 7.845-2.562 11.648-1.601 3.948-4.006 7.576-6.939 10.644-5.823 6.093-15.396 11.356-24.072 9.513-4.598-.978-10.299-6.777-5.939-11.351 1.767-1.852 4.603-2.343 6.478-.37 1.709 1.803 2.22 4.682 2.243 7.071.094 9.729-7.954 18.011-15.589 22.887a46.45 46.45 0 01-14.063 5.98c-5.325 1.289-10.515 1.266-15.939 1.064-.529-.023-.659.833-.125.941z"/><path fill="#fff" d="M361.418 483.543c11.067 5.191 24.21 2.893 33.895-4.232 4.661-3.429 8.577-7.777 11.753-12.613 3.239-4.934 6.509-10.896 6.864-16.916.251-4.2-1.934-11.005-7.357-10.095-4.773.798-8.999 6.467-8.963 11.194.041 5.291 4.917 8.896 9.748 9.545 5.769.775 11.87-1.641 16.8-4.466 10.793-6.187 18.67-17.273 20.702-29.607.193-1.176-1.588-1.69-1.799-.495-1.556 8.936-6.056 17.088-12.713 23.216-3.391 3.123-7.339 5.683-11.6 7.436-4.881 2.005-11.058 3.596-15.804.432-5.24-3.492-3.997-9.855.287-13.564 2.499-2.163 5.603-2.974 7.68.248 1.687 2.614 1.539 6.106.839 9.017-2.248 9.324-8.923 18.602-16.351 24.487-9.313 7.377-22.268 10.356-33.362 5.354-.713-.329-1.337.721-.619 1.059z"/><path fill="#fff" d="M434.874 434.136c1.934-1.559 3.656-3.425 5.442-5.151.843-.816 1.691-1.631 2.534-2.451.39-.379 2.203-2.596 2.732-2.47.274.063.825 2.992.929 3.371.309 1.122.619 2.244.928 3.371.606 2.19.911 4.979 2.23 6.854.471.671 1.471.423 1.525-.415.103-1.555-.511-3.015-.933-4.502-.476-1.68-.956-3.361-1.431-5.042-.444-1.555-.722-5.381-2.678-5.917-1.866-.514-3.795 2.663-4.89 3.772-2.458 2.487-5.154 4.876-7.375 7.575a.705.705 0 00.987 1.005z"/><path fill="#fff" d="M435.462 434.46c1.718-2.046 2.916-4.605 4.387-6.84 1.709-2.591 3.508-5.151 5.572-7.472l-1.781-.473a90.969 90.969 0 012.108 8.44c.547 2.767.471 5.922 1.427 8.558.278.766 1.619.991 1.781 0 .43-2.641-.386-5.746-.88-8.346a76.721 76.721 0 00-2.382-9.22c-.296-.914-1.422-1.009-1.946-.257-1.746 2.51-3.558 4.957-5.191 7.549-1.467 2.329-3.238 4.866-4.01 7.525-.139.505.556.964.915.536z"/><path fill="#fff" d="M435.171 436.749c3.683-5.844 7.334-11.712 11.08-17.516l-1.947-.256c1.216 3.014 2.404 6.033 3.4 9.129.915 2.853 1.355 6.066 2.678 8.747.418.847 1.727.415 1.723-.469-.009-3.095-1.373-6.381-2.346-9.283-1.018-3.037-2.162-6.038-3.504-8.945-.345-.748-1.467-.649-1.839 0-3.45 5.985-6.993 11.911-10.51 17.854-.489.816.762 1.542 1.265.739z"/><defs><linearGradient id="b" x1="397.43" x2="129.898" y1="140.477" y2="390.299" gradientUnits="userSpaceOnUse"><stop stop-color="#00E3F2"/><stop offset=".287" stop-color="#0000F2"/><stop offset=".641" stop-color="#F87D7D"/><stop offset="1" stop-color="#FF2828"/></linearGradient><linearGradient id="c" x1="235.314" x2="235.314" y1="-148.848" y2="500.327" gradientUnits="userSpaceOnUse"><stop stop-color="#ECF3FE" stop-opacity="0"/><stop offset=".339" stop-color="#ECF3FE" stop-opacity=".708"/><stop offset="1" stop-color="#ECF3FE" stop-opacity="0"/></linearGradient><linearGradient id="d" x1="461.354" x2="165.179" y1="-111.92" y2="498.419" gradientUnits="userSpaceOnUse"><stop stop-color="#fff"/><stop offset="1" stop-color="#fff"/></linearGradient><linearGradient id="e" x1="579.738" x2="-10.967" y1="43.747" y2="123.741" gradientUnits="userSpaceOnUse"><stop stop-color="#4B4D5E"/><stop offset="1" stop-color="#11121C"/></linearGradient><linearGradient id="h" x1="435.642" x2="435.642" y1="153.339" y2="230.787" gradientUnits="userSpaceOnUse"><stop stop-color="#F4FFA2"/><stop offset="1" stop-color="#B9D100"/></linearGradient><filter id="a" width="545.858" height="611.286" x="21.768" y=".703" color-interpolation-filters="sRGB" filterUnits="userSpaceOnUse"><feFlood flood-opacity="0" result="BackgroundImageFix"/><feBlend in="SourceGraphic" in2="BackgroundImageFix" result="shape"/><feGaussianBlur result="effect1_foregroundBlur_138_6177" stdDeviation="50"/></filter><filter id="f" width="347.609" height="208.919" x="166.449" y="196.04" color-interpolation-filters="sRGB" filterUnits="userSpaceOnUse"><feFlood flood-opacity="0" result="BackgroundImageFix"/><feColorMatrix in="SourceAlpha" result="hardAlpha" values="0 0 0 0 0 0 0 0 0 0 0 0 0 0 0 0 0 0 127 0"/><feOffset dx="-12" dy="12"/><feComposite in2="hardAlpha" operator="out"/><feColorMatrix values="0 0 0 0 0.227451 0 0 0 0 0.494118 0 0 0 0 0.756863 0 0 0 0.16 0"/><feBlend in2="BackgroundImageFix" result="effect1_dropShadow_138_6177"/><feBlend in="SourceGraphic" in2="effect1_dropShadow_138_6177" result="shape"/></filter><filter id="g" width="177.448" height="177.448" x="346.919" y="121.339" color-interpolation-filters="sRGB" filterUnits="userSpaceOnUse"><feFlood flood-opacity="0" result="BackgroundImageFix"/><feColorMatrix in="SourceAlpha" result="hardAlpha" values="0 0 0 0 0 0 0 0 0 0 0 0 0 0 0 0 0 0 127 0"/><feOffset dy="18"/><feGaussianBlur stdDeviation="25"/><feComposite in2="hardAlpha" operator="out"/><feColorMatrix values="0 0 0 0 0.0666667 0 0 0 0 0.0705882 0 0 0 0 0.109804 0 0 0 0.3 0"/><feBlend in2="BackgroundImageFix" result="effect1_dropShadow_138_6177"/><feBlend in="SourceGraphic" in2="effect1_dropShadow_138_6177" result="shape"/></filter></defs></svg>