<svg xmlns="http://www.w3.org/2000/svg" fill="none" viewBox="0 0 20 24"><g clip-path="url(#a)"><path fill="#fff" d="M18.914 8.182c-.139.108-2.596 1.492-2.596 4.572 0 3.561 3.127 4.821 3.22 4.852-.014.077-.496 1.726-1.648 3.406-1.028 1.478-2.1 2.954-3.732 2.954-1.632 0-2.052-.948-3.936-.948-1.836 0-2.49.98-3.982.98-1.493 0-2.534-1.368-3.732-3.048C1.121 18.977 0 15.912 0 13.003c0-4.665 3.034-7.14 6.02-7.14 1.586 0 2.908 1.042 3.904 1.042.948 0 2.426-1.104 4.231-1.104.684 0 3.142.062 4.76 2.38zm-5.616-4.356c.747-.886 1.275-2.115 1.275-3.344 0-.17-.015-.343-.046-.482-1.214.046-2.659.809-3.53 1.82-.684.777-1.323 2.006-1.323 3.251 0 .187.032.375.046.435.077.014.202.03.326.03 1.09 0 2.46-.729 3.252-1.71z"/></g><defs><clipPath id="a"><path fill="#fff" d="M0 0h19.536v24H0z"/></clipPath></defs></svg>