<svg xmlns="http://www.w3.org/2000/svg" fill="none" viewBox="0 0 97 95"><path fill="currentColor" d="M38.724 3.302c8.095 4.54 13.968 13.648 16.408 22.435 2.336 8.414 2.426 20.276-5.705 25.79-2.961 2.01-7.092 2.24-8.781-1.445-1.571-3.422.29-7.095 3.683-8.451 9.163-3.663 16.334 8.019 18.234 15.323a30.564 30.564 0 01.279 14.196c-.952 4.333-2.866 9.283-6.298 12.253-.494.428-1.3-.289-.971-.839 1.77-2.928 3.678-5.572 4.79-8.852 1.155-3.404 1.62-7.047 1.44-10.625-.358-7.103-3.568-15.745-10.125-19.354-3.476-1.912-10.316-1.354-10.055 3.973.107 2.157 1.647 4.035 3.933 3.809 2.086-.208 4.001-1.765 5.333-3.278 5.427-6.161 4.857-15.89 2.67-23.216a39.207 39.207 0 00-5.682-11.577c-2.69-3.76-6.017-6.609-9.592-9.471-.35-.278.039-.896.44-.67z"/><path fill="currentColor" d="M36.562 1.977c9.931 2.79 17.058 11.508 19.313 21.4 1.084 4.762 1.186 9.7.547 14.54-.653 4.937-1.854 10.548-4.948 14.589-2.157 2.82-7.306 5.96-10.267 2.388-2.608-3.143-2.18-9.094.45-12.093 2.945-3.356 8.048-2.969 11.491-.718 4.112 2.687 6.676 7.595 8.265 12.12 3.48 9.904 2.395 21.33-3.11 30.327-.526.858-1.947.203-1.423-.676 3.935-6.565 5.559-14.253 4.688-21.84-.443-3.864-1.552-7.677-3.306-11.147-2.011-3.973-5.078-8.397-9.854-8.994-5.273-.66-7.99 4.089-7.3 8.82.403 2.76 1.938 4.99 5.042 4.078 2.519-.738 4.35-3.05 5.51-5.295 3.708-7.194 4.563-16.802 3.066-24.659C52.848 14.97 46.218 5.92 36.374 2.995c-.638-.183-.457-1.198.188-1.018z"/><path fill="currentColor" d="M56.218 74.051c.375 2.063.446 4.204.634 6.291.089.987.18 1.975.266 2.964.04.457-.025 2.873.383 3.084.21.11 2.177-1.455 2.452-1.64l2.453-1.64c1.594-1.065 3.328-2.678 5.204-3.148.671-.169 1.174.541.746 1.106-.792 1.05-1.99 1.644-3.08 2.36-1.23.812-2.464 1.62-3.695 2.431-1.141.748-3.43 3.038-4.974 2.302-1.475-.702-.955-3.795-1.042-5.106-.198-2.945-.602-5.958-.531-8.906a.595.595 0 011.184-.098z"/><path fill="currentColor" d="M56.773 74.169c-.032 2.254-.679 4.55-.972 6.788-.338 2.598-.601 5.225-.564 7.845l-1.398-.68a76.745 76.745 0 006.002-4.227c1.876-1.465 3.568-3.522 5.632-4.678.6-.336 1.581.26 1.137.982-1.181 1.924-3.415 3.457-5.165 4.845a64.802 64.802 0 01-6.607 4.574c-.694.42-1.465-.14-1.385-.91.27-2.566.462-5.128.849-7.683.348-2.297.616-4.895 1.59-7.019.19-.399.887-.309.88.163z"/><path fill="currentColor" d="M57.85 72.546c-.873 5.764-1.778 11.525-2.587 17.298-.463-.304-.923-.605-1.385-.91 2.439-1.254 4.864-2.527 7.208-3.954 2.157-1.317 4.21-3.127 6.535-4.109.734-.31 1.332.688.841 1.25-1.713 1.972-4.396 3.317-6.619 4.634-2.326 1.378-4.712 2.663-7.172 3.78-.633.287-1.294-.395-1.174-1.015 1.098-5.725 2.104-11.464 3.137-17.2.137-.79 1.337-.563 1.215.226z"/></svg>