<svg xmlns="http://www.w3.org/2000/svg" fill="none" viewBox="0 0 569 626"><path fill="url(#a)" d="M244.07 506.424C109.826 506.424 1 400.668 1 270.212S109.826 34 244.07 34s243.07 105.756 243.07 236.212-108.826 236.212-243.07 236.212z"/><g filter="url(#b)" opacity=".35"><path fill="url(#c)" d="M252.777 153.952c15.497-85.737 118.163-44.272 138.246-36.349 1.743 1.757 32.595.581 69.75 123.466 37.156 122.886-77.913 151.649-125.831 138.554-47.919-13.096-39.407 42.351-85.107 121.115-45.701 78.764-129.617-49.855-138.514-117.406-8.897-67.551 94.766-36.276 120.049-42.262 25.283-5.987 5.909-101.381 21.407-187.118z"/></g><path fill="url(#d)" stroke="#6A4DFF" d="M34.842 127.168l309.32-73.79a7.5 7.5 0 019.036 5.554l87.25 365.737a7.5 7.5 0 01-5.555 9.036l-309.321 73.791a7.5 7.5 0 01-9.035-5.555l-87.25-365.737a7.5 7.5 0 015.555-9.036z"/><rect width="90.752" height="6.562" x="68.845" y="192.133" fill="#D7E4F9" rx="3.281" transform="rotate(-13.418 68.845 192.133)"/><rect width="144" height="7" x="77.992" y="230.476" fill="#D7E4F9" rx="3.5" transform="rotate(-13.418 77.992 230.476)"/><rect width="110.71" height="6.562" x="81.787" y="246.384" fill="#D7E4F9" rx="3.281" transform="rotate(-13.418 81.787 246.384)"/><rect width="129" height="9" x="73.583" y="211.994" fill="#D7E4F9" rx="4.5" transform="rotate(-13.418 73.583 211.994)"/><rect width="100.611" height="6.562" x="89.64" y="278.238" fill="#D7E4F9" rx="3.281" transform="rotate(-13.418 89.64 278.238)"/><rect width="293.084" height="7.655" x="98.775" y="316.533" fill="#D7E4F9" rx="3.828" transform="rotate(-13.418 98.775 316.533)"/><rect width="293" height="7" x="102.821" y="334.555" fill="#D7E4F9" rx="3.5" transform="rotate(-13.418 102.821 334.555)"/><rect width="293" height="9" x="94.235" y="298.564" fill="#D7E4F9" rx="4.5" transform="rotate(-13.418 94.235 298.564)"/><rect width="100.611" height="6.562" x="110.702" y="366.529" fill="#D7E4F9" rx="3.281" transform="rotate(-13.418 110.702 366.529)"/><rect width="263.557" height="7.655" x="119.838" y="404.824" fill="#D7E4F9" rx="3.828" transform="rotate(-13.418 119.838 404.824)"/><rect width="263.557" height="7.655" x="129.227" y="444.183" fill="#D7E4F9" rx="3.828" transform="rotate(-13.418 129.227 444.183)"/><rect width="227.468" height="8.749" x="115.524" y="386.74" fill="#D7E4F9" rx="4.374" transform="rotate(-13.418 115.524 386.74)"/><rect width="227.468" height="8.749" x="124.913" y="426.099" fill="#D7E4F9" rx="4.374" transform="rotate(-13.418 124.913 426.099)"/><g filter="url(#e)"><rect width="80" height="80" x="411" y="139" fill="url(#f)" rx="40"/><rect width="79" height="79" x="411.5" y="139.5" stroke="#fff" rx="39.5"/></g><g stroke="#fff" stroke-linecap="round" stroke-linejoin="round" stroke-width="2.5" clip-path="url(#g)"><path d="M447 179h10m-5-5v10m0-20c12 0 15 3 15 15s-3 15-15 15-15-3-15-15 3-15 15-15z"/></g><path fill="#6A4DFF" d="M70.149 453.135c-9.908-5.557-17.097-16.706-20.084-27.461-2.86-10.3-2.969-24.818 6.983-31.568 3.625-2.46 8.682-2.743 10.75 1.768 1.922 4.189-.357 8.685-4.51 10.345-11.215 4.484-19.993-9.816-22.319-18.756a37.41 37.41 0 01-.34-17.376c1.165-5.305 3.508-11.363 7.708-14.999.605-.523 1.592.354 1.189 1.027-2.166 3.585-4.502 6.82-5.864 10.835-1.413 4.167-1.983 8.626-1.762 13.006.438 8.695 4.367 19.273 12.393 23.69 4.255 2.341 12.628 1.657 12.308-4.863-.131-2.641-2.016-4.939-4.814-4.662-2.553.255-4.898 2.16-6.528 4.012-6.643 7.542-5.945 19.45-3.269 28.417a47.996 47.996 0 006.956 14.171c3.292 4.603 7.364 8.09 11.74 11.593.43.34-.047 1.097-.537.821z"/><path fill="#6A4DFF" d="M72.795 454.757c-12.156-3.414-20.879-14.086-23.639-26.195-1.327-5.828-1.452-11.871-.67-17.796.8-6.044 2.27-12.912 6.057-17.858 2.64-3.453 8.942-7.297 12.567-2.923 3.193 3.847 2.668 11.131-.552 14.802-3.604 4.109-9.85 3.634-14.065.879-5.032-3.289-8.17-9.297-10.116-14.835-4.26-12.124-2.932-26.109 3.808-37.122.643-1.05 2.382-.249 1.74.827-4.816 8.037-6.804 17.447-5.738 26.733.542 4.731 1.9 9.397 4.047 13.645 2.462 4.863 6.216 10.278 12.062 11.01 6.454.808 9.78-5.005 8.935-10.797-.493-3.378-2.372-6.108-6.171-4.992-3.083.904-5.326 3.734-6.745 6.482-4.538 8.806-5.586 20.566-3.752 30.183 2.298 12.054 10.414 23.131 22.463 26.711.78.225.559 1.467-.23 1.246z"/><path fill="#6A4DFF" d="M48.736 366.535c-.459-2.524-.546-5.146-.776-7.7-.108-1.207-.22-2.417-.326-3.628-.05-.559.031-3.516-.468-3.775-.256-.136-2.666 1.782-3.002 2.008-1 .668-2 1.336-3.002 2.008-1.952 1.303-4.074 3.277-6.37 3.852-.822.207-1.437-.662-.913-1.354.97-1.285 2.435-2.011 3.77-2.889 1.506-.993 3.016-1.983 4.523-2.975 1.397-.916 4.197-3.719 6.088-2.817 1.806.858 1.169 4.644 1.276 6.25.242 3.604.736 7.292.65 10.901a.728.728 0 01-1.45.119z"/><path fill="#6A4DFF" d="M48.057 366.392c.039-2.76.83-5.569 1.19-8.31.413-3.18.736-6.395.69-9.603l1.711.833a94.122 94.122 0 00-7.347 5.174c-2.296 1.794-4.367 4.311-6.894 5.726-.734.411-1.935-.318-1.392-1.202 1.447-2.355 4.181-4.231 6.323-5.93a79.325 79.325 0 018.087-5.599c.85-.515 1.794.171 1.696 1.114-.331 3.14-.567 6.277-1.04 9.405-.426 2.811-.754 5.991-1.946 8.59-.232.489-1.086.379-1.078-.198z"/><path fill="#6A4DFF" d="M46.74 368.378c1.067-7.055 2.174-14.107 3.166-21.174l1.695 1.114c-2.986 1.536-5.954 3.093-8.823 4.841-2.641 1.612-5.155 3.826-8 5.029-.898.38-1.63-.842-1.03-1.53 2.098-2.414 5.382-4.061 8.103-5.672 2.846-1.687 5.767-3.26 8.778-4.627.775-.351 1.585.484 1.438 1.242-1.344 7.007-2.575 14.033-3.84 21.054-.168.967-1.636.689-1.487-.277z"/><g filter="url(#h)"><rect width="138.398" height="92.79" x="206.024" y="152.7" fill="#fff" rx="12" transform="rotate(-13.245 206.024 152.7)"/><rect width="137.398" height="91.79" x="206.625" y="153.072" stroke="#3442F4" rx="11.5" transform="rotate(-13.245 206.625 153.072)"/></g><path fill="url(#i)" d="M250.764 219.223l14.952-52.696 28.2 24.795 9.157-18.853 26.839 28.125-79.148 18.629z"/><path fill="#6A4DFF" d="M293.225 156.348a6.231 6.231 0 01-4.636 7.491 6.23 6.23 0 01-7.491-4.637 6.224 6.224 0 014.636-7.491c3.351-.8 6.702 1.284 7.491 4.637z"/><path fill="#003889" d="M393.761 103.312l-5.065-26.06a6.123 6.123 0 00-7.178-4.84l-323.557 62.9a6.124 6.124 0 00-4.841 7.177l5.067 26.06a6.123 6.123 0 007.178 4.841l323.557-62.902a6.123 6.123 0 004.841-7.177h-.002z" opacity=".18" style="mix-blend-mode:multiply"/><path fill="url(#j)" d="M378.375 98.36l-320.62 76.482a6.12 6.12 0 01-7.374-4.534l-6.16-25.824a6.12 6.12 0 014.533-7.374l320.62-76.482a6.12 6.12 0 017.374 4.533l6.16 25.825a6.12 6.12 0 01-4.533 7.374z"/><rect width="9.751" height="9.751" x="67.712" y="144.942" fill="#F16C7A" rx="4.875" transform="rotate(-12.802 67.712 144.942)"/><rect width="9.751" height="9.751" x="83.228" y="141.326" fill="#49C3E8" rx="4.875" transform="rotate(-12.802 83.228 141.326)"/><rect width="9.751" height="9.751" x="98.759" y="137.803" fill="#FFD160" rx="4.875" transform="rotate(-12.802 98.759 137.803)"/><path fill="#156A97" d="M445.355 505.999H274.652c-3.743 0-6.873-2.685-6.991-5.997l-8.039-224.239c-.119-3.312 2.819-5.997 6.562-5.997h170.704c3.743 0 6.874 2.685 6.992 5.997l8.039 224.239c.118 3.312-2.821 5.997-6.564 5.997z" opacity=".2"/><path fill="url(#k)" d="M296.736 262.709h-16.781c-3.742 0-6.778 2.766-6.778 6.177v230.938c0 3.411 3.036 6.176 6.778 6.176h16.781V262.709z"/><path fill="#fff" stroke="#6A4DFF" d="M465.5 268.883v230.94c0 .383-.041.757-.12 1.114-.569 2.571-3.083 4.561-6.156 4.561H288.52c-3.514 0-6.28-2.583-6.28-5.675v-230.94c0-3.092 2.765-5.678 6.28-5.678h170.702c3.512.002 6.278 2.588 6.278 5.678z"/><path fill="url(#l)" d="M334.725 307.418l-15.161-13.505-15.163 13.505v-44.71h30.324v44.71z"/><path fill="#BDD1F2" d="M437.709 299.109h-82.698a4 4 0 00-4 4v.31a4 4 0 004 4h82.698a4 4 0 004-4v-.31a4 4 0 00-4-4zm.156 30.885H308.02a4 4 0 00-4 4v.31a4 4 0 004 4h129.845a4 4 0 004-4v-.31a4 4 0 00-4-4zM388.498 361h-80.861a4 4 0 000 8h80.861a4 4 0 000-8zm49.367 0h-32.591a4 4 0 000 8h32.591a4 4 0 000-8zm-82.279 31h-47.949a4 4 0 000 8h47.949a4 4 0 000-8zm82.279 0h-60.017a4 4 0 000 8h60.017a4 4 0 000-8zm-.156 30.647H308.02a4 4 0 00-4 4v.31a4 4 0 004 4h129.689a4 4 0 004-4v-.31a4 4 0 00-4-4zm-84.824 30.884H308.02a4 4 0 00-4 4v.31a4 4 0 004 4h44.865a4 4 0 004-4v-.31a4 4 0 00-4-4z"/><defs><linearGradient id="a" x1="244.07" x2="244.07" y1="-164.146" y2="506.424" gradientUnits="userSpaceOnUse"><stop stop-color="#ECF3FE"/><stop offset=".339" stop-color="#ECF3FE" stop-opacity=".708"/><stop offset="1" stop-color="#ECF3FE" stop-opacity=".31"/></linearGradient><linearGradient id="c" x1="395.528" x2="119.179" y1="141.714" y2="399.769" gradientUnits="userSpaceOnUse"><stop stop-color="#00E3F2"/><stop offset=".287" stop-color="#0000F2"/><stop offset=".641" stop-color="#F87D7D"/><stop offset="1" stop-color="#FF2828"/></linearGradient><linearGradient id="d" x1="386.643" x2="235.351" y1="-180.362" y2="503.875" gradientUnits="userSpaceOnUse"><stop stop-color="#fff"/><stop offset="1" stop-color="#fff"/></linearGradient><linearGradient id="f" x1="451" x2="451" y1="139" y2="219" gradientUnits="userSpaceOnUse"><stop stop-color="#A18EFF"/><stop offset="1" stop-color="#6A4DFF"/></linearGradient><linearGradient id="i" x1="279.371" x2="290.338" y1="163.313" y2="209.909" gradientUnits="userSpaceOnUse"><stop stop-color="#A18EFF"/><stop offset="1" stop-color="#6A4DFF"/></linearGradient><linearGradient id="j" x1="543.491" x2="-30.853" y1="-51.607" y2="170.357" gradientUnits="userSpaceOnUse"><stop stop-color="#4B4D5E"/><stop offset="1" stop-color="#11121C"/></linearGradient><linearGradient id="k" x1="284.957" x2="284.957" y1="262.709" y2="506" gradientUnits="userSpaceOnUse"><stop stop-color="#6A4DFF"/><stop offset="1" stop-color="#917BFF"/></linearGradient><linearGradient id="l" x1="319.563" x2="319.563" y1="262.708" y2="307.418" gradientUnits="userSpaceOnUse"><stop stop-color="#6A4DFF"/><stop offset="1" stop-color="#917BFF"/></linearGradient><filter id="b" width="557.257" height="624.841" x="10.781" y=".629" color-interpolation-filters="sRGB" filterUnits="userSpaceOnUse"><feFlood flood-opacity="0" result="BackgroundImageFix"/><feBlend in="SourceGraphic" in2="BackgroundImageFix" result="shape"/><feGaussianBlur result="effect1_foregroundBlur_179_406" stdDeviation="50"/></filter><filter id="e" width="180" height="180" x="361" y="107" color-interpolation-filters="sRGB" filterUnits="userSpaceOnUse"><feFlood flood-opacity="0" result="BackgroundImageFix"/><feColorMatrix in="SourceAlpha" result="hardAlpha" values="0 0 0 0 0 0 0 0 0 0 0 0 0 0 0 0 0 0 127 0"/><feOffset dy="18"/><feGaussianBlur stdDeviation="25"/><feComposite in2="hardAlpha" operator="out"/><feColorMatrix values="0 0 0 0 0.0666667 0 0 0 0 0.0705882 0 0 0 0 0.109804 0 0 0 0.3 0"/><feBlend in2="BackgroundImageFix" result="effect1_dropShadow_179_406"/><feBlend in="SourceGraphic" in2="effect1_dropShadow_179_406" result="shape"/></filter><filter id="h" width="163.121" height="129.176" x="196.451" y="123.419" color-interpolation-filters="sRGB" filterUnits="userSpaceOnUse"><feFlood flood-opacity="0" result="BackgroundImageFix"/><feColorMatrix in="SourceAlpha" result="hardAlpha" values="0 0 0 0 0 0 0 0 0 0 0 0 0 0 0 0 0 0 127 0"/><feOffset dx="-12" dy="12"/><feComposite in2="hardAlpha" operator="out"/><feColorMatrix values="0 0 0 0 0.227451 0 0 0 0 0.494118 0 0 0 0 0.756863 0 0 0 0.16 0"/><feBlend in2="BackgroundImageFix" result="effect1_dropShadow_179_406"/><feBlend in="SourceGraphic" in2="effect1_dropShadow_179_406" result="shape"/></filter><clipPath id="g"><path fill="#fff" d="M432 159h40v40h-40z"/></clipPath></defs></svg>