<svg xmlns="http://www.w3.org/2000/svg" fill="none" viewBox="0 0 584 626"><g filter="url(#a)" opacity=".35"><path fill="url(#b)" d="M267.777 153.952c15.497-85.737 118.163-44.272 138.246-36.349 1.744 1.757 32.595.581 69.751 123.466 37.155 122.886-77.913 151.649-125.832 138.554-47.919-13.096-39.407 42.351-85.107 121.115s-129.617-49.855-138.514-117.406c-8.896-67.551 94.767-36.276 120.049-42.262 25.283-5.987 5.909-101.381 21.407-187.118z"/></g><path fill="url(#c)" fill-opacity=".05" d="M243.069 506.424c-134.244 0-243.07-105.756-243.07-236.212S108.825 34 243.07 34s243.07 105.756 243.07 236.212-108.826 236.212-243.07 236.212z"/><rect width="79" height="79" x="410.5" y="139.5" fill="url(#d)" stroke="#11121C" rx="39.5"/><g stroke="#11121C" stroke-linecap="round" stroke-linejoin="round" stroke-width="2.5" clip-path="url(#e)"><path d="M446 179h10m-5-5v10m0-20c12 0 15 3 15 15s-3 15-15 15-15-3-15-15 3-15 15-15z"/></g><path fill="#E6F85E" d="M52.468 435.82c-6.704-3.76-11.568-11.304-13.589-18.581-1.935-6.969-2.009-16.793 4.725-21.36 2.453-1.665 5.874-1.855 7.273 1.197 1.301 2.834-.241 5.876-3.05 6.999-7.589 3.034-13.529-6.641-15.102-12.691a25.314 25.314 0 01-.231-11.757c.788-3.589 2.374-7.688 5.216-10.148.41-.354 1.077.239.804.695-1.465 2.425-3.046 4.614-3.967 7.331-.957 2.82-1.342 5.837-1.193 8.8.297 5.883 2.955 13.041 8.386 16.029 2.879 1.584 8.544 1.121 8.328-3.29-.09-1.787-1.364-3.342-3.258-3.155-1.727.173-3.313 1.462-4.416 2.715-4.495 5.103-4.023 13.16-2.212 19.228a32.482 32.482 0 004.706 9.588c2.227 3.114 4.983 5.473 7.944 7.844.29.23-.032.742-.364.556z"/><path fill="#E6F85E" d="M54.262 436.917c-8.226-2.31-14.127-9.531-15.995-17.724-.898-3.943-.983-8.033-.454-12.041.542-4.09 1.536-8.737 4.099-12.083 1.786-2.337 6.05-4.937 8.503-1.978 2.16 2.602 1.805 7.531-.374 10.015-2.438 2.78-6.664 2.459-9.516.595-3.405-2.226-5.529-6.291-6.845-10.038-2.882-8.203-1.984-17.665 2.576-25.117.436-.711 1.612-.169 1.178.559-3.259 5.438-4.604 11.805-3.883 18.088.367 3.201 1.286 6.359 2.739 9.233 1.665 3.29 4.206 6.954 8.161 7.449 4.367.547 6.617-3.386 6.045-7.305-.333-2.286-1.604-4.133-4.175-3.378-2.086.612-3.603 2.527-4.563 4.386-3.071 5.958-3.78 13.915-2.54 20.422 1.556 8.157 7.047 15.651 15.2 18.074.528.152.378.992-.156.843z"/><path fill="#E6F85E" d="M37.977 377.224c-.31-1.708-.369-3.482-.524-5.21-.074-.817-.15-1.636-.221-2.455-.034-.378.02-2.379-.317-2.554-.173-.092-1.803 1.205-2.03 1.359l-2.032 1.358c-1.321.882-2.757 2.218-4.31 2.607-.557.14-.973-.448-.618-.916.656-.87 1.648-1.361 2.55-1.955l3.06-2.013c.946-.62 2.841-2.516 4.12-1.906 1.222.581.791 3.142.864 4.229.163 2.438.498 4.933.44 7.376a.492.492 0 01-.982.08z"/><path fill="#E6F85E" d="M37.521 377.127c.026-1.867.562-3.768.805-5.622.28-2.152.498-4.327.467-6.498l1.158.564a63.497 63.497 0 00-4.971 3.501c-1.554 1.213-2.955 2.916-4.664 3.874-.498.278-1.31-.215-.942-.813.978-1.594 2.829-2.863 4.278-4.013a53.761 53.761 0 015.472-3.788c.574-.349 1.213.116 1.147.754-.224 2.124-.383 4.247-.703 6.363-.289 1.903-.511 4.054-1.318 5.813-.157.33-.734.256-.729-.135z"/><path fill="#E6F85E" d="M36.628 378.471c.722-4.774 1.471-9.545 2.142-14.327l1.147.754c-2.02 1.039-4.029 2.093-5.97 3.275-1.787 1.091-3.488 2.589-5.413 3.403-.607.258-1.102-.57-.697-1.035 1.42-1.633 3.642-2.748 5.483-3.838 1.926-1.141 3.902-2.206 5.94-3.13.524-.238 1.072.327.972.84-.91 4.741-1.742 9.495-2.598 14.245-.114.655-1.107.467-1.006-.187z"/><path fill="url(#f)" stroke="#000" d="M33.843 127.168l309.32-73.791a7.5 7.5 0 019.036 5.555l87.249 365.737a7.5 7.5 0 01-5.555 9.035l-309.32 73.791a7.5 7.5 0 01-9.035-5.555l-87.25-365.737a7.5 7.5 0 015.555-9.035z"/><rect width="90.752" height="6.562" x="67.846" y="192.132" fill="#121526" fill-opacity=".8" rx="3.281" transform="rotate(-13.418 67.846 192.132)"/><rect width="144" height="7" x="76.992" y="230.475" fill="#121526" fill-opacity=".8" rx="3.5" transform="rotate(-13.418 76.992 230.475)"/><rect width="110.71" height="6.562" x="80.787" y="246.383" fill="#121526" fill-opacity=".8" rx="3.281" transform="rotate(-13.418 80.787 246.383)"/><rect width="129" height="9" x="72.584" y="211.993" fill="#121526" fill-opacity=".8" rx="4.5" transform="rotate(-13.418 72.584 211.993)"/><rect width="100.611" height="6.562" x="88.641" y="278.238" fill="#121526" fill-opacity=".7" rx="3.281" transform="rotate(-13.418 88.64 278.238)"/><rect width="293.084" height="7.655" x="97.775" y="316.533" fill="#121526" fill-opacity=".7" rx="3.828" transform="rotate(-13.418 97.775 316.533)"/><rect width="293" height="7" x="101.822" y="334.554" fill="#121526" fill-opacity=".7" rx="3.5" transform="rotate(-13.418 101.822 334.554)"/><rect width="293" height="9" x="93.236" y="298.564" fill="#121526" fill-opacity=".7" rx="4.5" transform="rotate(-13.418 93.236 298.564)"/><rect width="100.611" height="6.562" x="109.703" y="366.529" fill="#121526" fill-opacity=".6" rx="3.281" transform="rotate(-13.418 109.703 366.529)"/><rect width="263.557" height="7.655" x="118.838" y="404.824" fill="#121526" fill-opacity=".6" rx="3.828" transform="rotate(-13.418 118.838 404.824)"/><rect width="263.557" height="7.655" x="128.229" y="444.182" fill="#121526" fill-opacity=".6" rx="3.828" transform="rotate(-13.418 128.229 444.182)"/><rect width="227.468" height="8.749" x="114.525" y="386.74" fill="#121526" fill-opacity=".6" rx="4.374" transform="rotate(-13.418 114.525 386.74)"/><rect width="227.468" height="8.749" x="123.914" y="426.099" fill="#121526" fill-opacity=".6" rx="4.374" transform="rotate(-13.418 123.914 426.099)"/><g filter="url(#g)" shape-rendering="crispEdges"><rect width="138.398" height="92.79" x="205.023" y="152.7" fill="url(#h)" rx="12" transform="rotate(-13.245 205.023 152.7)"/><rect width="137.398" height="91.79" x="205.625" y="153.072" stroke="#121526" rx="11.5" transform="rotate(-13.245 205.625 153.072)"/></g><path fill="#292A37" d="M249.764 219.223l14.952-52.696 28.2 24.795 9.157-18.853 26.839 28.125-79.148 18.629zm42.461-62.875a6.232 6.232 0 01-4.637 7.491 6.231 6.231 0 01-7.491-4.637 6.225 6.225 0 014.637-7.491c3.35-.8 6.701 1.284 7.491 4.637z"/><path fill="#000" d="M392.76 103.312l-5.064-26.06a6.123 6.123 0 00-7.178-4.84l-323.557 62.9a6.124 6.124 0 00-4.841 7.177l5.067 26.06a6.123 6.123 0 007.178 4.841l323.557-62.902a6.123 6.123 0 004.841-7.177h-.003z" opacity=".32" style="mix-blend-mode:multiply"/><path fill="url(#i)" d="M377.375 98.36l-320.62 76.48a6.12 6.12 0 01-7.374-4.533l-6.16-25.825a6.12 6.12 0 014.533-7.374l320.62-76.482a6.12 6.12 0 017.374 4.534l6.16 25.824a6.12 6.12 0 01-4.533 7.374z"/><rect width="9.751" height="9.751" x="66.713" y="144.942" fill="#F16C7A" rx="4.875" transform="rotate(-12.802 66.713 144.942)"/><rect width="9.751" height="9.751" x="82.228" y="141.326" fill="#49C3E8" rx="4.875" transform="rotate(-12.802 82.228 141.326)"/><rect width="9.751" height="9.751" x="97.76" y="137.803" fill="#FFD160" rx="4.875" transform="rotate(-12.802 97.76 137.803)"/><path fill="#000" d="M444.356 506H273.653c-3.743 0-6.873-2.685-6.992-5.998l-8.038-224.238c-.119-3.313 2.819-5.998 6.562-5.998h170.704c3.743 0 6.874 2.685 6.992 5.998l8.039 224.238c.118 3.313-2.821 5.998-6.564 5.998z" opacity=".2"/><path fill="url(#j)" d="M295.736 262.708h-16.78c-3.743 0-6.778 2.766-6.778 6.177v230.938c0 3.411 3.035 6.177 6.778 6.177h16.78V262.708z"/><path fill="url(#k)" stroke="#000" d="M464.5 268.883v230.94c0 .383-.041.757-.12 1.114-.568 2.571-3.082 4.561-6.156 4.561H287.52c-3.514 0-6.28-2.583-6.28-5.675v-230.94c0-3.092 2.765-5.678 6.28-5.678h170.702c3.512.002 6.278 2.588 6.278 5.678z"/><path fill="#0F111F" d="M333.725 307.418l-15.162-13.505-15.163 13.505v-44.71h30.325v44.71z"/><path fill="#121526" fill-opacity=".7" d="M436.709 299.11h-82.697a4 4 0 00-4 4v.31a4 4 0 004 4h82.697a4 4 0 004-4v-.31a4 4 0 00-4-4zm.155 30.884H307.02a4 4 0 00-4 4v.31a4 4 0 004 4h129.844a4 4 0 004-4v-.31a4 4 0 00-4-4zM387.497 361h-80.86a4 4 0 000 8h80.86a4 4 0 100-8zm49.367 0h-32.591a4 4 0 000 8h32.591a4 4 0 000-8zm-82.278 31h-47.949a4 4 0 100 8h47.949a4 4 0 000-8zm82.279 0h-60.017a4 4 0 100 8h60.017a4 4 0 000-8zm-.156 30.647H307.02a4 4 0 00-4 4v.31a4 4 0 004 4h129.689a4 4 0 004-4v-.31a4 4 0 00-4-4zm-84.824 30.884H307.02a4 4 0 00-4 4v.31c0 2.21 1.79 4 4 4h44.865a4 4 0 004-4v-.31a4 4 0 00-4-4z"/><defs><linearGradient id="b" x1="410.528" x2="134.18" y1="141.714" y2="399.769" gradientUnits="userSpaceOnUse"><stop stop-color="#00E3F2"/><stop offset=".287" stop-color="#0000F2"/><stop offset=".641" stop-color="#F87D7D"/><stop offset="1" stop-color="#FF2828"/></linearGradient><linearGradient id="c" x1="243.069" x2="243.069" y1="-164.146" y2="506.424" gradientUnits="userSpaceOnUse"><stop stop-color="#ECF3FE" stop-opacity="0"/><stop offset=".339" stop-color="#ECF3FE" stop-opacity=".708"/><stop offset="1" stop-color="#ECF3FE" stop-opacity="0"/></linearGradient><linearGradient id="d" x1="450" x2="450" y1="139" y2="219" gradientUnits="userSpaceOnUse"><stop stop-color="#F4FFA2"/><stop offset="1" stop-color="#B9D100"/></linearGradient><linearGradient id="f" x1="567.762" x2="371.183" y1="344.247" y2="148.794" gradientUnits="userSpaceOnUse"><stop stop-color="#383947"/><stop offset="1" stop-color="#222535"/></linearGradient><linearGradient id="h" x1="272.556" x2="275.154" y1="149.384" y2="249.646" gradientUnits="userSpaceOnUse"><stop stop-color="#171825"/><stop offset="1" stop-color="#171825" stop-opacity="0"/></linearGradient><linearGradient id="i" x1="542.491" x2="-31.853" y1="-51.607" y2="170.356" gradientUnits="userSpaceOnUse"><stop stop-color="#4B4D5E"/><stop offset="1" stop-color="#11121C"/></linearGradient><linearGradient id="j" x1="283.957" x2="283.957" y1="262.708" y2="506" gradientUnits="userSpaceOnUse"><stop stop-color="#0D0F1A"/><stop offset="1" stop-color="#1A1C2F"/></linearGradient><linearGradient id="k" x1="543.875" x2="449.008" y1="470.962" y2="334.678" gradientUnits="userSpaceOnUse"><stop stop-color="#383947"/><stop offset="1" stop-color="#222535"/></linearGradient><filter id="a" width="557.258" height="624.841" x="25.781" y=".629" color-interpolation-filters="sRGB" filterUnits="userSpaceOnUse"><feFlood flood-opacity="0" result="BackgroundImageFix"/><feBlend in="SourceGraphic" in2="BackgroundImageFix" result="shape"/><feGaussianBlur result="effect1_foregroundBlur_317_327" stdDeviation="50"/></filter><filter id="g" width="163.121" height="129.175" x="195.451" y="123.419" color-interpolation-filters="sRGB" filterUnits="userSpaceOnUse"><feFlood flood-opacity="0" result="BackgroundImageFix"/><feColorMatrix in="SourceAlpha" result="hardAlpha" values="0 0 0 0 0 0 0 0 0 0 0 0 0 0 0 0 0 0 127 0"/><feOffset dx="-12" dy="12"/><feComposite in2="hardAlpha" operator="out"/><feColorMatrix values="0 0 0 0 0 0 0 0 0 0 0 0 0 0 0 0 0 0 0.17 0"/><feBlend in2="BackgroundImageFix" result="effect1_dropShadow_317_327"/><feBlend in="SourceGraphic" in2="effect1_dropShadow_317_327" result="shape"/></filter><clipPath id="e"><path fill="#fff" d="M431 159h40v40h-40z"/></clipPath></defs></svg>