<svg xmlns="http://www.w3.org/2000/svg" fill="none" viewBox="0 0 571 626"><path fill="url(#a)" d="M320.882 538.424c134.243 0 243.069-105.756 243.069-236.212S455.125 66 320.882 66c-134.244 0-243.07 105.756-243.07 236.212s108.826 236.212 243.07 236.212z"/><g filter="url(#b)" opacity=".35"><path fill="url(#c)" d="M315.302 153.952c-15.498-85.737-118.163-44.272-138.247-36.349-1.743 1.757-32.594.581-69.75 123.466-37.155 122.886 77.913 151.649 125.832 138.554 47.918-13.096 39.407 42.351 85.107 121.115s129.617-49.855 138.513-117.406c8.897-67.551-94.766-36.276-120.049-42.262-25.283-5.987-5.909-101.381-21.406-187.118z"/></g><path fill="#fff" d="M500.331 182.192a8.72 8.72 0 100-17.44 8.72 8.72 0 000 17.44z" opacity=".1"/><path fill="#fff" d="M137.706 184.946a8.72 8.72 0 100-17.44 8.72 8.72 0 100 17.44z" opacity=".5"/><path fill="#fff" d="M160.172 511.882c-4.872 0-9.324-3.29-10.584-8.22L77.374 220.876c-1.49-5.835 2.045-11.794 7.879-13.285l218.454-55.784c5.835-1.489 11.794 2.044 13.285 7.881l72.212 282.785a10.838 10.838 0 01-1.189 8.274 10.841 10.841 0 01-6.691 5.01l-218.453 55.786c-.903.231-1.809.34-2.701.34l.002-.001zm146.236-358.336c-.722 0-1.456.088-2.187.275L85.769 209.607c-4.724 1.206-7.586 6.031-6.38 10.755l72.213 282.786c1.019 3.992 4.625 6.654 8.568 6.654a8.81 8.81 0 002.187-.275l218.453-55.785a8.789 8.789 0 005.416-4.056 8.792 8.792 0 00.963-6.699l-72.213-282.785c-1.019-3.992-4.625-6.654-8.568-6.654v-.002z" opacity=".12"/><path fill="#6A4DFF" d="M413.467 412.661L266.566 160.466c-2.747-4.716-8.797-6.312-13.512-3.565L58.231 270.383c-4.717 2.747-6.312 8.798-3.565 13.513L201.568 536.09c2.747 4.717 8.798 6.312 13.513 3.565l194.821-113.482c4.717-2.747 6.312-8.797 3.565-13.512z" opacity=".15" style="mix-blend-mode:multiply"/><path fill="url(#d)" stroke="#6A4DFF" d="M413.194 417.822L218.373 531.304a9.382 9.382 0 01-12.829-3.385L58.64 275.725a9.382 9.382 0 013.385-12.829l194.822-113.482a9.382 9.382 0 0112.829 3.385l146.903 252.194c2.608 4.478 1.091 10.221-3.385 12.829z"/><path fill="#6A4DFF" d="M139.037 314.647l-9.934-17.101a4.531 4.531 0 00-6.188-1.639l-17.101 9.934a4.534 4.534 0 00-1.639 6.188l9.933 17.101a4.538 4.538 0 006.189 1.639l17.1-9.934a4.533 4.533 0 001.64-6.188zm-2.615 4.505l-17.099 9.937a2.585 2.585 0 01-3.531-.94l-9.932-17.097a2.586 2.586 0 01.935-3.535l17.097-9.932a2.59 2.59 0 013.533.935l9.933 17.1a2.588 2.588 0 01-.936 3.532z"/><path fill="#6A4DFF" d="M123.132 321.641a1.948 1.948 0 01-1.468.272l-6.566-1.398a1.95 1.95 0 01-1.502-2.314 1.953 1.953 0 012.314-1.502l4.659.991 2.966-13.934a1.952 1.952 0 013.816.812l-3.373 15.843a1.947 1.947 0 01-.846 1.23zm88.46-64.955l-58.448 34.045a3.908 3.908 0 11-3.935-6.755l58.447-34.046a3.91 3.91 0 015.346 1.41 3.91 3.91 0 01-1.41 5.346zm74.605-25.936l-125.433 73.064a3.91 3.91 0 11-3.936-6.755l125.433-73.064a3.908 3.908 0 013.936 6.755zM165.871 360.712l-9.933-17.1a4.53 4.53 0 00-6.188-1.639l-17.101 9.933a4.533 4.533 0 00-1.639 6.188l9.933 17.101a4.535 4.535 0 006.188 1.639l17.101-9.933a4.533 4.533 0 001.639-6.189zm-2.614 4.505l-17.099 9.937a2.585 2.585 0 01-3.531-.94l-9.932-17.097a2.585 2.585 0 01.934-3.534l17.097-9.932a2.59 2.59 0 013.534.934l9.933 17.101a2.587 2.587 0 01-.936 3.531z"/><path fill="#6A4DFF" d="M149.965 367.708a1.95 1.95 0 01-1.468.272l-6.566-1.397a1.95 1.95 0 11.812-3.816l4.659.991 2.966-13.935a1.952 1.952 0 013.816.813l-3.373 15.842c-.113.527-.427.96-.846 1.23zm88.459-64.955l-58.447 34.046a3.91 3.91 0 01-3.936-6.756l58.448-34.045a3.908 3.908 0 015.345 1.41 3.908 3.908 0 01-1.41 5.345zm74.605-25.937L187.596 349.88a3.909 3.909 0 01-3.936-6.756l125.433-73.064a3.91 3.91 0 013.936 6.756zM192.704 406.78l-9.934-17.101a4.531 4.531 0 00-6.188-1.639l-17.101 9.933a4.535 4.535 0 00-1.639 6.189l9.933 17.1a4.537 4.537 0 006.189 1.64l17.1-9.934a4.533 4.533 0 001.64-6.188zm-2.615 4.505l-17.099 9.937a2.586 2.586 0 01-3.531-.94l-9.932-17.097a2.586 2.586 0 01.935-3.535l17.097-9.932a2.59 2.59 0 013.533.935l9.933 17.1a2.588 2.588 0 01-.936 3.532zm75.17-62.465l-58.447 34.045a3.91 3.91 0 11-3.936-6.755l58.447-34.046a3.91 3.91 0 013.936 6.756zm74.605-25.937l-125.433 73.064a3.91 3.91 0 11-3.936-6.755l125.433-73.064a3.908 3.908 0 113.936 6.755zM219.538 452.847l-9.934-17.1a4.53 4.53 0 00-6.188-1.64l-17.1 9.934a4.533 4.533 0 00-1.64 6.188l9.934 17.101a4.535 4.535 0 006.188 1.639l17.101-9.933a4.535 4.535 0 001.639-6.189zm-2.615 4.505l-17.098 9.937a2.587 2.587 0 01-3.532-.94l-9.932-17.097a2.586 2.586 0 01.935-3.535l17.097-9.931a2.589 2.589 0 013.533.934l9.934 17.101a2.588 2.588 0 01-.937 3.531z"/><path fill="#6A4DFF" d="M203.632 459.843a1.95 1.95 0 01-1.468.272l-6.567-1.398a1.95 1.95 0 11.813-3.815l4.658.991 2.967-13.935a1.95 1.95 0 113.815.812l-3.372 15.843a1.948 1.948 0 01-.846 1.23zm88.46-64.957l-58.448 34.046a3.91 3.91 0 01-3.936-6.756l58.448-34.045a3.908 3.908 0 113.936 6.755zm74.606-25.936l-125.432 73.065a3.91 3.91 0 01-3.936-6.756l125.432-73.064a3.91 3.91 0 013.936 6.755zm1.168 50.638l-125.597 73.16a2.555 2.555 0 01-2.571-4.415l125.597-73.159a2.554 2.554 0 112.571 4.414z"/><path fill="#3A7EC1" d="M423.687 447.553l-10.722-258.019c-.201-4.825-4.782-8.641-10.232-8.525l-65.94 1.419-.552-13.264c-.077-1.887-1.871-3.379-4.002-3.332l-15.217.328a4.476 4.476 0 01-.831-.061c-1.455-.251-2.658-1.228-3.049-2.542-2.847-9.588-12.873-16.582-24.503-16.332s-21.056 7.664-23.1 17.357c-.334 1.575-1.844 2.728-3.659 2.767l-15.217.328c-2.131.045-3.796 1.61-3.719 3.498l.552 13.265-65.941 1.419c-5.45.118-9.706 4.124-9.505 8.948l10.722 258.02c.201 4.825 4.782 8.641 10.233 8.523l225.173-4.845c5.451-.118 9.707-4.124 9.506-8.949l.003-.003zM289.411 165.761c4.153-.09 7.645 2.819 7.796 6.495.153 3.676-3.091 6.73-7.243 6.818-4.153.09-7.645-2.819-7.798-6.495-.153-3.676 3.091-6.73 7.244-6.82l.001.002z" opacity=".2" style="mix-blend-mode:multiply"/><path fill="#fff" stroke="#6A4DFF" d="M177.677 154.124c-.16-5.179 3.908-9.507 9.089-9.668l225.355-6.969-.016-.5.016.5c5.178-.161 9.506 3.907 9.667 9.088l9.022 291.72.5-.015-.5.015c.161 5.179-3.908 9.507-9.088 9.668l-225.355 6.969.015.5-.015-.5c-5.179.161-9.507-3.907-9.668-9.088l-9.022-291.72z"/><path fill="#E4ECF9" d="M227.356 201.498l-.588-19.767a4.532 4.532 0 00-4.66-4.39l-19.766.589a4.533 4.533 0 00-4.39 4.659l.588 19.767a4.534 4.534 0 004.66 4.389l19.767-.588a4.532 4.532 0 004.389-4.659zm-4.445 2.716l-19.767.592a2.589 2.589 0 01-2.659-2.509l-.588-19.763a2.587 2.587 0 012.505-2.663l19.763-.588a2.592 2.592 0 012.663 2.505l.588 19.767a2.588 2.588 0 01-2.505 2.659z"/><path fill="#0056FF" d="M210.811 197.47a1.333 1.333 0 01-.972-.316l-3.495-2.982a1.336 1.336 0 011.733-2.032l2.48 2.115 6.327-7.419a1.336 1.336 0 012.032 1.734l-7.193 8.434a1.33 1.33 0 01-.91.464l-.002.002z"/><path fill="#D7E4F9" d="M318.759 185.099l-67.609 2.09a3.909 3.909 0 11-.242-7.814l67.609-2.09a3.91 3.91 0 11.242 7.814zm77.952 12.738l-145.091 4.488a3.91 3.91 0 01-.243-7.815l145.092-4.488a3.91 3.91 0 01.242 7.815z"/><path fill="#E4ECF9" d="M229.003 254.785l-.588-19.767a4.53 4.53 0 00-4.66-4.389l-19.767.588a4.533 4.533 0 00-4.389 4.659l.588 19.767a4.534 4.534 0 004.66 4.389l19.767-.588a4.532 4.532 0 004.389-4.659zm-4.445 2.716l-19.767.592a2.589 2.589 0 01-2.659-2.509l-.588-19.763a2.586 2.586 0 012.505-2.662l19.763-.589a2.592 2.592 0 012.663 2.505l.588 19.767a2.588 2.588 0 01-2.505 2.659z"/><path fill="#0056FF" d="M212.294 251.307a1.457 1.457 0 01-1.066-.346l-3.836-3.273a1.466 1.466 0 011.903-2.23l2.721 2.321 6.944-8.142a1.467 1.467 0 012.23 1.903l-7.894 9.256c-.263.308-.625.48-.999.51l-.003.001z"/><path fill="#E4ECF9" d="M320.408 238.386l-67.609 2.091a3.91 3.91 0 01-.242-7.815l67.609-2.09a3.908 3.908 0 014.028 3.786 3.908 3.908 0 01-3.786 4.028z"/><path fill="#D7E4F9" d="M398.358 251.124l-145.091 4.488a3.91 3.91 0 01-.243-7.815l145.092-4.488a3.909 3.909 0 11.242 7.815z"/><path fill="#E4ECF9" d="M230.651 308.072l-.588-19.767a4.53 4.53 0 00-4.659-4.389l-19.767.588a4.533 4.533 0 00-4.39 4.659l.589 19.767a4.535 4.535 0 004.659 4.39l19.767-.589a4.531 4.531 0 004.389-4.659zm-4.444 2.716l-19.767.592a2.588 2.588 0 01-2.659-2.509l-.589-19.763a2.587 2.587 0 012.506-2.662l19.763-.589a2.59 2.59 0 012.662 2.505l.589 19.767a2.588 2.588 0 01-2.505 2.659z"/><path fill="#D7E4F9" d="M322.055 291.674l-67.609 2.09a3.91 3.91 0 01-.242-7.815l67.609-2.09a3.909 3.909 0 11.242 7.815zm77.952 12.735l-145.091 4.488a3.91 3.91 0 01-.243-7.815l145.091-4.488a3.91 3.91 0 11.243 7.815z"/><path fill="#E4ECF9" d="M235.098 359.275l-.589-19.767a4.53 4.53 0 00-4.659-4.389l-19.767.588a4.533 4.533 0 00-4.389 4.66l.588 19.766a4.535 4.535 0 004.66 4.39l19.766-.589a4.533 4.533 0 004.39-4.659zm-4.445 2.716l-19.767.592a2.589 2.589 0 01-2.659-2.509l-.588-19.763a2.585 2.585 0 012.505-2.662l19.763-.589a2.592 2.592 0 012.663 2.506l.588 19.766a2.588 2.588 0 01-2.505 2.659z"/><path fill="#D7E4F9" d="M326.501 342.877l-67.609 2.09a3.909 3.909 0 11-.242-7.815l67.609-2.09a3.909 3.909 0 11.242 7.815zm77.952 12.735L259.361 360.1a3.909 3.909 0 11-.242-7.814l145.091-4.488a3.91 3.91 0 01.243 7.814zm.289 16.969l-144.209 4.771a3.909 3.909 0 11-.242-7.815l144.209-4.771a3.91 3.91 0 01.242 7.815zm1.352 15.416l-145.091 4.488a3.91 3.91 0 01-.243-7.815l145.092-4.488a3.91 3.91 0 01.242 7.815z"/><path fill="#C3D8F9" d="M381.028 436.124l-145.283 4.492a2.554 2.554 0 11-.158-5.106l145.282-4.492a2.554 2.554 0 11.159 5.106z"/><path fill="#6A4DFF" d="M310.93 525.143c9.802 4.116 22.169 3.049 31.827-.881 9.248-3.766 20.028-11.955 19.286-23.114-.27-4.066-2.971-7.943-7.49-6.893-4.199.973-6.206 5.209-5.043 9.206 3.143 10.797 18.749 9.104 26.687 5.72a34.86 34.86 0 0013.023-9.647c3.245-3.877 6.369-9.05 6.637-14.208.038-.743-1.177-.969-1.442-.289-1.4 3.634-2.445 7.193-4.625 10.481-2.263 3.413-5.227 6.371-8.587 8.704-6.67 4.63-16.739 7.768-24.618 4.385-4.176-1.794-8.488-8.337-3.491-11.815 2.025-1.408 4.805-1.333 6.211.882 1.281 2.022 1.223 4.83.794 7.083-1.745 9.178-10.938 15.448-19.097 18.589a45.099 45.099 0 01-14.462 2.959c-5.292.203-10.209-.804-15.313-2.025-.498-.122-.783.66-.297.863z"/><path fill="#6A4DFF" d="M308.21 524.122c9.515 6.989 22.411 7.321 32.938 2.452 5.066-2.343 9.599-5.694 13.522-9.643 4.002-4.031 8.227-9.023 9.698-14.624 1.03-3.907.241-10.728-5.073-10.901-4.676-.156-9.752 4.379-10.609 8.837-.959 4.989 2.985 9.309 7.443 10.837 5.324 1.825 11.564.71 16.772-1.014 11.4-3.776 20.96-12.717 25.212-23.944.405-1.071-1.187-1.893-1.612-.808-3.161 8.118-8.964 14.938-16.432 19.444-3.804 2.297-8.03 3.957-12.402 4.798-5.005.961-11.163 1.286-15.066-2.594-4.31-4.283-1.932-10.038 2.83-12.716 2.777-1.562 5.873-1.736 7.235 1.692 1.106 2.781.307 6.041-.905 8.649-3.889 8.351-11.968 15.82-20.121 19.95-10.221 5.177-23.067 5.521-32.643-1.295-.614-.445-1.404.425-.787.88z"/><path fill="#6A4DFF" d="M387.178 491.553c2.127-1.101 4.112-2.53 6.13-3.816.954-.608 1.911-1.215 2.866-1.827.441-.282 2.578-2.026 3.056-1.806.247.111.218 2.974.245 3.35l.245 3.35c.161 2.177-.076 4.861.821 6.876.32.722 1.315.678 1.525-.101.391-1.444.083-2.935-.036-4.415-.134-1.673-.272-3.347-.406-5.02-.128-1.548.329-5.203-1.424-6.079-1.673-.838-4.101 1.787-5.348 2.623-2.8 1.875-5.806 3.612-8.421 5.731-.695.558-.028 1.535.747 1.134z"/><path fill="#6A4DFF" d="M387.674 491.97c2.015-1.6 3.633-3.783 5.449-5.608 2.11-2.115 4.298-4.183 6.692-5.976l-1.599-.784c.262 2.775.413 5.559.407 8.347-.002 2.709-.669 5.664-.261 8.328.12.774 1.349 1.241 1.689.338.906-2.404.718-5.483.74-8.024a73.354 73.354 0 00-.52-9.133c-.108-.918-1.158-1.221-1.798-.612-2.128 2.032-4.307 3.992-6.344 6.121-1.83 1.915-3.989 3.967-5.222 6.324-.227.449.346 1.013.767.679z"/><path fill="#6A4DFF" d="M386.966 494.069c4.594-4.803 9.162-9.634 13.809-14.387l-1.798-.612c.584 3.07 1.142 6.138 1.503 9.242.329 2.859.14 5.968.89 8.744.236.876 1.559.718 1.721-.115.576-2.916-.098-6.268-.474-9.185-.393-3.053-.911-6.096-1.635-9.087-.187-.77-1.269-.89-1.744-.35-4.399 4.98-8.877 9.886-13.333 14.814-.617.676.433 1.596 1.061.936z"/><path fill="#003889" d="M561.676 305.931C549.99 296.007 527.38 286.9 527.38 286.9l-19.167-4.587s-.436-5.027-.633-8.826l-.078-1.535c1.89-1.829 3.508-4.299 4.636-7.182 1.31-.264 3.693-1.218 4.858-4.643 1.374-4.05-1.881-3.33-3.009-2.974 1.036-1.38 1.29-5.499 1.05-6.267-.262-.836 4.434-4.828 2.304-6.953-2.131-2.124-14.74-3.757-21.382.747-5.428 3.681-4.842 7.845-4.447 9.245a.41.41 0 00.253.271c-.084.243-.163.493-.239.746-.648-.42-4.072-2.42-4.122 2.133-.039 3.561 1.96 4.958 3.131 5.474.12 3.195.927 6.059 2.268 8.262l-2.207 4.863-2.355 4.719-.921-.089-30.156-4.64-31.999-22.811-.761.741-4.942-3.965s2.837-13.358-5.724-16.139c-8.562-2.781.636 10.511-1.399 10.732-2.036.222-2.558-4.32-5.23-2.437-2.325 1.638 8.594 14.247 11.47 17.493l-.937.915 29.461 27.451 21.95 10.732c1.283.627 2.031 1.953 1.922 3.402l-3.632 48.584c.431.136.955.287 1.554.445l-.116 2.234-3.246 62.31 15.196 34.162-2.512 25.38 1.587.163a323.523 323.523 0 01-1.434 5.691 4.218 4.218 0 00-1.794 2.822 70.188 70.188 0 01-1.005 5.324c-.89 3.821-1.299 14.251 8.141 13.96 9.438-.293 7.324-6.841 6.023-9.39-1.296-2.547 3.29-9.073.148-12.169l.03-5.195 1.514.156.409-1.766.604 1.327 2.247-1.415a204.922 204.922 0 002.308 5.302c-.755.348-1.304.557-1.454.571 0 0-1.324 1.337 2.118 4.223 3.443 2.887 1.474 10.281.397 13.162-1.076 2.881.421 7.64 7.845 3.572 6.424-3.52 7.368-24.587 7.506-30.193.021-.841-.568-1.528-1.402-1.652a21.906 21.906 0 00-3.471-.223c-1.94.022-2.62.794-3.217 2.159l-1.294-2.807.632-.397-6.765-19.899 20.088-87.214 1.545-6.697c.326-.202.611-.422.845-.663.026.012.049.025.075.039 2.245 1.011 6.494 1.263 8.285-.044 2.794-2.045 6.552-9.405 6.552-9.405l.1-.1 2.833-2.837c-1.594-1.353-4.503-3.731-6.003-4.957-.285.364-.554.716-.814 1.055-1.435 1.869-2.464 3.282-2.871 3.702-.776.796-5.195 2.086-7.507 3.346.646-13.095 5.141-34.288 5.141-34.288l17.931 5.922-12.835 19.48s7.665 6.249 8.059 6.7c.04.047 14.696-15.852 22.745-24.589 3.26-3.539 3.067-8.808-.376-11.731l-.009-.007zm-37.159 40.635c.877 1.559-1.385 2.081-3.481 3.43a35.48 35.48 0 01-.091-3.495c1.203-.252 2.792-1.319 3.574.065h-.002z" opacity=".18" style="mix-blend-mode:multiply"/><path fill="#362299" d="M492.811 471.634c.203.358 5.478 11.642 5.862 11.095.384-.547 7.783-7.686 7.783-7.686l-5.55-10.634-8.093 7.225h-.002zm-13.3 2.407c.049.351-1.444 8.137-1.444 8.137l11.872 1.225-.572-9.334-9.856-.028z"/><path fill="url(#e)" d="M503.589 468.002l-11.609 7.763-.691-1.336-.287 1.781-13.207-1.362.785-25.561-17.39-34.385-.973-62.748-.067-4.245 25.538 3.013 25.348.294-1.43 8.919-14.074 87.836 8.057 20.031z"/><path fill="#362299" d="M484.83 375.406l-4.115 39.897 2.552 7.054 1.563-46.951zm26.206-24.19l-1.43 8.919c-13.609 4.403-42.738-5.574-49.389-7.981l-.065-4.247 25.537 3.013 25.347.294v.002z"/><path fill="#6A4DFF" d="M494.612 280.911l19.343 4.605s23.065 9.154 35.341 19.138c3.614 2.941 4.161 8.247 1.163 11.812-7.405 8.806-20.887 24.824-20.929 24.777-.421-.454-8.454-6.742-8.454-6.742l11.432-19.624-18.205-5.95s-4.395 30.894-2.189 41.309c2.206 10.412-44.472 2.051-53.503-.779l.333-48.924a3.774 3.774 0 00-2.138-3.424l-22.522-10.791-31.103-27.621 6.979-7.394 33.312 22.948 30.258 4.65 20.884 2.01h-.002zm.747 199.34c.581-.055 7.058-3.093 8.185-6.198 1.127-3.107.972-4.963 3.968-5a21.744 21.744 0 013.461.223 1.755 1.755 0 011.505 1.662c.242 5.645.723 26.859-5.419 30.409-7.099 4.101-8.905-.69-8.031-3.592.874-2.902 2.334-10.348-1.279-13.252-3.614-2.905-2.388-4.252-2.388-4.252h-.002zm-18.609 3.335a3.915 3.915 0 012.613-3.383c2.671-.933 8.25-.953 10.43 1.062 3.364 3.11-.771 9.703.691 12.271 1.463 2.568 4.004 9.16-5.349 9.46-9.354.302-9.652-10.203-9.023-14.051.317-1.944.517-3.903.638-5.361v.002z"/><path fill="#FDC8AA" d="M410.246 252.665l-5.97-4.603s1.918-13.453-6.771-16.248c-8.688-2.794 1.342 10.584-.667 10.808-2.009.224-2.832-4.349-5.359-2.451-2.528 1.898 13.297 18.376 13.297 18.376l5.47-5.88v-.002zm118.125 87.614l-2.622 2.858-.093.101s-3.236 7.414-5.872 9.476c-1.691 1.317-5.924 1.067-8.223.05-1.287-.568-1.964-1.384-1.227-2.301.452-.569 1.004-1.022 1.567-1.406 1.991-1.363 4.206-1.887 3.23-3.459-.872-1.395-2.378-.315-3.557-.063-.521.112-.987.057-1.299-.451-.314-.502.256-1.059 1.23-1.621 2.209-1.27 6.515-2.574 7.233-3.376.377-.424 1.303-1.847 2.602-3.73.236-.342.479-.696.739-1.063 1.571 1.232 4.62 3.626 6.294 4.987l-.002-.002zm-33.759-59.368s-2.428 10.974-11.672 9.882c-9.243-1.093-8.293-11.804-8.293-11.804l2.022-4.754 2.625-6.897 13.728 1.416c-.007.067.15 1.44.366 3.27.452 3.827 1.224 8.887 1.224 8.887z"/><path fill="#EFA37D" d="M493.388 272.024c-2.476 2.964-9.068 9.142-16.719 2.211l2.625-6.897 13.728 1.416c-.007.066.15 1.439.366 3.27z"/><path fill="#FDC8AA" d="M498.323 258.431c-.944 9.157-6.767 16.061-13.006 15.418-6.239-.644-10.53-8.589-9.586-17.748.945-9.16 6.479-13.266 12.718-12.622 6.24.643 10.819 5.794 9.874 14.952z"/><path fill="#FDC8AA" d="M498.289 255.698s4.859-2.035 3.548 2.864c-1.312 4.898-5.413 4.783-5.413 4.783l1.865-7.649v.002z"/><path fill="#EFA37D" d="M498.729 258.033s1.011-1.01 1.596-.451c.585.559-.64 3.221-1.132 3.457-.491.237 1.154-2.495.567-2.747-.589-.254-1.031-.259-1.031-.259z"/><path fill="#FDC8AA" d="M476.303 253.43s-4.342-2.984-4.058 2.08c.284 5.065 4.323 5.787 4.323 5.787l-.264-7.869-.001.002z"/><path fill="#EFA37D" d="M475.396 255.626s-.784-1.195-1.471-.767c-.686.428-.031 3.283.402 3.615.433.333-.62-2.678.007-2.805.628-.128 1.062-.043 1.062-.043z"/><path fill="#1F3A6F" d="M476.743 252.584a.441.441 0 01-.63-.247c-.489-1.409-1.35-5.604 3.791-9.313 6.291-4.54 18.924-2.904 21.181-.767 2.258 2.138-2.133 6.16-1.818 7.003.315.843.32 5.698-.892 6.622 0 0-8.522-.308-11.917-3.751-2.877-2.923-8.178-.381-9.717.455l.002-.002z"/><path fill="#362299" d="M478.58 449.287l12.709 25.142-.287 1.781-12.735-16.676.313-10.247z"/><path fill="#EFA37D" d="M528.371 340.279l-2.622 2.859c-1.244-1.937-3.441-5.342-4.411-6.781.235-.342.479-.696.739-1.062 1.571 1.231 4.619 3.625 6.294 4.986v-.002z"/><path fill="#003889" d="M414.235 145.167l-.859-18.523a4.276 4.276 0 00-4.47-4.073l-229.987 10.682a4.278 4.278 0 00-4.073 4.47l.861 18.523a4.277 4.277 0 004.47 4.073l229.987-10.682a4.278 4.278 0 004.073-4.47h-.002z" opacity=".18" style="mix-blend-mode:multiply"/><path fill="url(#f)" d="M404.104 140.186l-229.333 20.365a4.275 4.275 0 01-4.637-3.881l-1.64-18.471a4.275 4.275 0 013.881-4.637l229.332-20.365a4.274 4.274 0 014.637 3.88l1.64 18.472a4.275 4.275 0 01-3.88 4.637z"/><rect width="6.811" height="6.811" x="184.683" y="140.896" fill="#F16C7A" rx="3.405" transform="rotate(-4.46 184.683 140.896)"/><rect width="6.811" height="6.811" x="195.772" y="139.97" fill="#49C3E8" rx="3.405" transform="rotate(-4.46 195.772 139.97)"/><rect width="6.811" height="6.811" x="206.863" y="139.108" fill="#FFD160" rx="3.405" transform="rotate(-4.46 206.863 139.108)"/><g filter="url(#g)"><rect width="80" height="80" x="76.999" y="169" fill="url(#h)" rx="40"/><rect width="79" height="79" x="77.499" y="169.5" stroke="#fff" rx="39.5"/></g><g clip-path="url(#i)"><path stroke="#fff" stroke-linecap="round" stroke-linejoin="round" stroke-width="3" d="M109.23 221.362a2.668 2.668 0 004.952.684l4.644-6.873 10.904 10.904a2.38 2.38 0 001.677.695 2.377 2.377 0 001.677-.695l2.326-2.326a2.383 2.383 0 00.695-1.677c0-.311-.061-.62-.18-.908a2.379 2.379 0 00-.515-.769l-10.904-10.904 6.918-4.645a2.664 2.664 0 00.695-4.156 2.67 2.67 0 00-1.382-.795l-30.182-8.675 8.675 30.14z"/></g><defs><linearGradient id="a" x1="320.882" x2="320.882" y1="-132.146" y2="538.424" gradientUnits="userSpaceOnUse"><stop stop-color="#ECF3FE"/><stop offset=".339" stop-color="#ECF3FE" stop-opacity=".708"/><stop offset="1" stop-color="#ECF3FE" stop-opacity=".31"/></linearGradient><linearGradient id="c" x1="172.55" x2="448.899" y1="141.714" y2="399.769" gradientUnits="userSpaceOnUse"><stop stop-color="#00E3F2"/><stop offset=".287" stop-color="#0000F2"/><stop offset=".641" stop-color="#F87D7D"/><stop offset="1" stop-color="#FF2828"/></linearGradient><linearGradient id="d" x1="513.121" x2="230.419" y1="-65.734" y2="575.518" gradientUnits="userSpaceOnUse"><stop stop-color="#fff"/><stop offset="1" stop-color="#fff"/></linearGradient><linearGradient id="e" x1="481" x2="475" y1="360.5" y2="474.559" gradientUnits="userSpaceOnUse"><stop stop-color="#5200FF"/><stop offset="1" stop-color="#E4DFFF"/></linearGradient><linearGradient id="f" x1="533.414" x2="113.988" y1="53.276" y2="148.471" gradientUnits="userSpaceOnUse"><stop stop-color="#4B4D5E"/><stop offset="1" stop-color="#11121C"/></linearGradient><linearGradient id="h" x1="116.999" x2="116.999" y1="169" y2="249" gradientUnits="userSpaceOnUse"><stop stop-color="#A18EFF"/><stop offset="1" stop-color="#6A4DFF"/></linearGradient><filter id="b" width="557.257" height="624.841" x=".04" y=".629" color-interpolation-filters="sRGB" filterUnits="userSpaceOnUse"><feFlood flood-opacity="0" result="BackgroundImageFix"/><feBlend in="SourceGraphic" in2="BackgroundImageFix" result="shape"/><feGaussianBlur result="effect1_foregroundBlur_165_1022" stdDeviation="50"/></filter><filter id="g" width="180" height="180" x="26.999" y="137" color-interpolation-filters="sRGB" filterUnits="userSpaceOnUse"><feFlood flood-opacity="0" result="BackgroundImageFix"/><feColorMatrix in="SourceAlpha" result="hardAlpha" values="0 0 0 0 0 0 0 0 0 0 0 0 0 0 0 0 0 0 127 0"/><feOffset dy="18"/><feGaussianBlur stdDeviation="25"/><feComposite in2="hardAlpha" operator="out"/><feColorMatrix values="0 0 0 0 0.0666667 0 0 0 0 0.0705882 0 0 0 0 0.109804 0 0 0 0.3 0"/><feBlend in2="BackgroundImageFix" result="effect1_dropShadow_165_1022"/><feBlend in="SourceGraphic" in2="effect1_dropShadow_165_1022" result="shape"/></filter><clipPath id="i"><path fill="#fff" d="M91.666 182.333h53.333v53.333H91.666z"/></clipPath></defs></svg>