<svg xmlns="http://www.w3.org/2000/svg" fill="none" viewBox="0 0 588 626"><g filter="url(#a)" opacity=".35"><path fill="url(#b)" d="M315.302 153.952c-15.498-85.737-118.163-44.272-138.247-36.349-1.743 1.757-32.594.581-69.75 123.467-37.155 122.885 77.913 151.648 125.832 138.553 47.918-13.096 39.407 42.351 85.107 121.115s129.617-49.855 138.513-117.406c8.897-67.551-94.766-36.275-120.049-42.262-25.283-5.986-5.909-101.381-21.406-187.118z"/></g><path fill="url(#c)" fill-opacity=".05" d="M337.882 525.424c134.244 0 243.07-105.756 243.07-236.212S472.126 53 337.882 53c-134.243 0-243.07 105.756-243.07 236.212s108.827 236.212 243.07 236.212z"/><path fill="#fff" d="M517.331 169.192a8.72 8.72 0 100-17.44 8.72 8.72 0 000 17.44z" opacity=".1"/><path fill="#fff" d="M154.707 171.946a8.72 8.72 0 100-17.44 8.72 8.72 0 100 17.44z" opacity=".5"/><path fill="#fff" d="M177.172 498.881c-4.872 0-9.324-3.289-10.583-8.22L94.374 207.875c-1.489-5.835 2.046-11.794 7.879-13.285l218.454-55.783c5.835-1.49 11.794 2.044 13.285 7.88l72.213 282.785a10.85 10.85 0 01-1.189 8.275 10.85 10.85 0 01-6.692 5.01l-218.452 55.785c-.903.231-1.809.341-2.701.341l.001-.002zm146.237-358.336c-.723 0-1.456.088-2.188.276l-218.452 55.785c-4.724 1.206-7.586 6.031-6.38 10.755l72.214 282.786c1.019 3.992 4.625 6.655 8.568 6.655.722 0 1.455-.089 2.187-.276l218.452-55.785a8.784 8.784 0 005.416-4.056 8.792 8.792 0 00.963-6.699l-72.213-282.784c-1.019-3.993-4.624-6.655-8.567-6.655v-.002z" opacity=".12"/><path fill="#3A7EC1" d="M430.467 399.661l-146.9-252.195c-2.747-4.716-8.798-6.312-13.513-3.565L75.232 257.383c-4.717 2.747-6.312 8.798-3.565 13.513L218.569 523.09c2.747 4.717 8.797 6.312 13.512 3.565l194.821-113.482c4.717-2.747 6.312-8.797 3.565-13.512z" opacity=".2" style="mix-blend-mode:multiply"/><path fill="url(#d)" d="M430.446 405.254L235.625 518.736c-4.716 2.747-10.765 1.15-13.512-3.565L75.209 262.976c-2.747-4.716-1.15-10.765 3.565-13.512l194.822-113.482c4.717-2.747 10.766-1.15 13.513 3.565l146.902 252.194c2.747 4.717 1.15 10.766-3.565 13.513z"/><path fill="#3442F4" d="M156.037 301.647l-9.933-17.101a4.532 4.532 0 00-6.189-1.639l-17.1 9.934a4.534 4.534 0 00-1.64 6.188l9.934 17.101a4.536 4.536 0 006.188 1.639l17.101-9.934a4.532 4.532 0 001.639-6.188zm-2.614 4.505l-17.099 9.937a2.587 2.587 0 01-3.532-.94l-9.931-17.097a2.586 2.586 0 01.934-3.535l17.097-9.932a2.59 2.59 0 013.533.935l9.934 17.1a2.588 2.588 0 01-.936 3.532z"/><path fill="#3442F4" d="M140.133 308.641a1.95 1.95 0 01-1.468.272l-6.567-1.397a1.95 1.95 0 11.813-3.816l4.658.991 2.966-13.935a1.95 1.95 0 113.816.813l-3.372 15.842c-.113.527-.428.96-.846 1.23zm88.459-64.956l-58.447 34.046a3.91 3.91 0 01-3.936-6.755l58.447-34.046a3.909 3.909 0 113.936 6.755zm74.605-25.935l-125.433 73.064a3.91 3.91 0 11-3.936-6.755l125.433-73.064a3.91 3.91 0 113.936 6.755zM182.872 347.713l-9.934-17.101a4.53 4.53 0 00-6.188-1.639l-17.101 9.933a4.535 4.535 0 00-1.639 6.189l9.934 17.1a4.535 4.535 0 006.188 1.639l17.101-9.933a4.534 4.534 0 001.639-6.188zm-2.615 4.504l-17.098 9.937a2.587 2.587 0 01-3.532-.939l-9.932-17.097a2.586 2.586 0 01.935-3.535l17.097-9.932a2.589 2.589 0 013.533.934l9.934 17.101a2.588 2.588 0 01-.937 3.531z"/><path fill="#3442F4" d="M166.965 354.708a1.943 1.943 0 01-1.468.272l-6.566-1.397a1.95 1.95 0 11.813-3.816l4.658.991 2.966-13.935a1.951 1.951 0 013.816.813l-3.372 15.843a1.943 1.943 0 01-.847 1.229z"/><path fill="#3A7EC1" d="M255.425 289.753l-58.448 34.045a3.908 3.908 0 11-3.935-6.755l58.447-34.046a3.91 3.91 0 013.936 6.756zm74.605-25.937L204.597 336.88a3.91 3.91 0 01-3.936-6.756l125.433-73.064a3.909 3.909 0 013.936 6.756z"/><path fill="#3442F4" d="M209.704 393.78l-9.933-17.101a4.53 4.53 0 00-6.189-1.639l-17.1 9.933a4.535 4.535 0 00-1.64 6.189l9.934 17.1a4.535 4.535 0 006.188 1.639l17.101-9.933a4.532 4.532 0 001.639-6.188zm-2.614 4.504l-17.099 9.937a2.587 2.587 0 01-3.532-.939l-9.931-17.097a2.586 2.586 0 01.934-3.535l17.097-9.932a2.589 2.589 0 013.533.934l9.934 17.101a2.587 2.587 0 01-.936 3.531z"/><path fill="#3A7EC1" d="M282.26 335.82l-58.448 34.045a3.908 3.908 0 11-3.936-6.755l58.448-34.046a3.909 3.909 0 013.936 6.756zm74.604-25.937l-125.433 73.064a3.909 3.909 0 01-3.936-6.756l125.433-73.064a3.91 3.91 0 013.936 6.756z"/><path fill="#3442F4" d="M236.538 439.847l-9.933-17.1a4.53 4.53 0 00-6.188-1.64l-17.101 9.934a4.533 4.533 0 00-1.639 6.188l9.933 17.101a4.535 4.535 0 006.188 1.639l17.101-9.934a4.532 4.532 0 001.639-6.188zm-2.614 4.505l-17.099 9.937a2.585 2.585 0 01-3.531-.94l-9.932-17.097a2.586 2.586 0 01.934-3.535l17.097-9.932a2.59 2.59 0 013.534.935l9.933 17.101a2.588 2.588 0 01-.936 3.531z"/><path fill="#3A7EC1" d="M220.632 446.843a1.948 1.948 0 01-1.468.272l-6.566-1.397a1.95 1.95 0 11.812-3.816l4.659.991 2.966-13.935a1.952 1.952 0 013.816.813l-3.373 15.842c-.113.527-.427.96-.846 1.23zm88.46-64.958l-58.447 34.046a3.91 3.91 0 01-3.936-6.755l58.447-34.046a3.91 3.91 0 013.936 6.755zm74.607-25.935l-125.433 73.064a3.91 3.91 0 01-3.936-6.755l125.433-73.064a3.909 3.909 0 113.936 6.755z"/><path fill="#3442F4" d="M384.866 406.588l-125.597 73.159a2.554 2.554 0 11-2.57-4.415l125.597-73.159a2.554 2.554 0 112.57 4.415z"/><path fill="#3A7EC1" d="M440.688 434.553l-10.722-258.019c-.201-4.825-4.782-8.641-10.233-8.525l-65.94 1.419-.551-13.264c-.078-1.887-1.871-3.379-4.002-3.332l-15.217.328a4.487 4.487 0 01-.832-.061c-1.455-.251-2.657-1.228-3.048-2.542-2.848-9.588-12.873-16.582-24.503-16.332s-21.056 7.664-23.1 17.357c-.335 1.575-1.845 2.728-3.659 2.767l-15.217.328c-2.131.045-3.797 1.61-3.719 3.498l.551 13.265-65.94 1.419c-5.45.118-9.706 4.124-9.505 8.948l10.722 258.02c.201 4.825 4.782 8.641 10.233 8.523l225.173-4.845c5.45-.118 9.706-4.124 9.505-8.949l.004-.003zM306.412 152.761c4.153-.09 7.645 2.819 7.796 6.495.153 3.676-3.091 6.73-7.244 6.818-4.153.09-7.644-2.819-7.797-6.495-.154-3.676 3.09-6.73 7.243-6.82l.002.002z" opacity=".2" style="mix-blend-mode:multiply"/><path fill="#fff" d="M438.738 435.463l-225.355 6.97c-5.455.169-10.014-4.116-10.183-9.573l-9.022-291.72c-.169-5.455 4.116-10.014 9.573-10.183l225.355-6.97c5.455-.169 10.013 4.116 10.183 9.573l9.021 291.72c.17 5.455-4.116 10.014-9.572 10.183z"/><path fill="#E4ECF9" d="M244.357 188.498l-.589-19.767a4.53 4.53 0 00-4.659-4.389l-19.767.588a4.533 4.533 0 00-4.389 4.66l.588 19.766a4.535 4.535 0 004.66 4.39l19.766-.589a4.532 4.532 0 004.39-4.659zm-4.445 2.716l-19.767.592a2.589 2.589 0 01-2.659-2.509l-.588-19.763a2.585 2.585 0 012.505-2.662l19.763-.589a2.592 2.592 0 012.663 2.506l.588 19.766a2.588 2.588 0 01-2.505 2.659z"/><path fill="#0056FF" d="M227.811 184.47a1.325 1.325 0 01-.971-.315l-3.496-2.982a1.336 1.336 0 011.734-2.032l2.48 2.115 6.327-7.419a1.336 1.336 0 012.032 1.734l-7.193 8.433c-.24.281-.57.438-.91.465l-.003.001z"/><path fill="#D7E4F9" d="M335.76 172.1l-67.609 2.09a3.91 3.91 0 01-.242-7.815l67.609-2.09a3.91 3.91 0 01.242 7.815zm77.952 12.736l-145.092 4.488a3.909 3.909 0 11-.242-7.814l145.091-4.488a3.91 3.91 0 01.243 7.814z"/><path fill="#E4ECF9" d="M246.004 241.785l-.589-19.767a4.53 4.53 0 00-4.659-4.389l-19.767.588a4.533 4.533 0 00-4.389 4.66l.588 19.766a4.535 4.535 0 004.66 4.39l19.766-.588a4.533 4.533 0 004.39-4.66zm-4.445 2.716l-19.767.592a2.588 2.588 0 01-2.659-2.508l-.588-19.764a2.585 2.585 0 012.505-2.662l19.763-.589a2.593 2.593 0 012.663 2.506l.588 19.766a2.588 2.588 0 01-2.505 2.659z"/><path fill="#0056FF" d="M229.295 238.308a1.458 1.458 0 01-1.066-.347l-3.836-3.273a1.465 1.465 0 111.902-2.23l2.722 2.321 6.944-8.142a1.467 1.467 0 012.23 1.903l-7.895 9.256c-.262.309-.625.48-.998.51l-.003.002z"/><path fill="#E4ECF9" d="M337.409 225.387l-67.609 2.09a3.91 3.91 0 01-.242-7.815l67.609-2.09a3.909 3.909 0 11.242 7.815z"/><path fill="#D7E4F9" d="M415.359 238.124l-145.091 4.488a3.91 3.91 0 11-.243-7.815l145.091-4.488a3.909 3.909 0 11.243 7.815z"/><path fill="#E4ECF9" d="M247.652 295.072l-.588-19.766a4.532 4.532 0 00-4.66-4.39l-19.766.589a4.533 4.533 0 00-4.39 4.659l.588 19.767a4.535 4.535 0 004.66 4.389l19.767-.588a4.532 4.532 0 004.389-4.66zm-4.445 2.717l-19.767.591a2.587 2.587 0 01-2.658-2.508l-.589-19.763a2.587 2.587 0 012.505-2.663l19.764-.588a2.59 2.59 0 012.662 2.505l.588 19.767a2.588 2.588 0 01-2.505 2.659z"/><path fill="#D7E4F9" d="M339.056 278.674l-67.609 2.09a3.91 3.91 0 01-.243-7.815l67.609-2.09a3.91 3.91 0 01.243 7.815zm77.952 12.735l-145.092 4.488a3.91 3.91 0 01-.242-7.815l145.091-4.488a3.91 3.91 0 01.243 7.815z"/><path fill="#E4ECF9" d="M252.098 346.276l-.588-19.767a4.531 4.531 0 00-4.659-4.39l-19.767.589a4.533 4.533 0 00-4.39 4.659l.589 19.767a4.534 4.534 0 004.659 4.389l19.767-.588a4.531 4.531 0 004.389-4.659zm-4.444 2.716l-19.767.592a2.588 2.588 0 01-2.659-2.509l-.589-19.763a2.588 2.588 0 012.506-2.663l19.763-.588a2.59 2.59 0 012.662 2.505l.589 19.767a2.588 2.588 0 01-2.505 2.659z"/><path fill="#D7E4F9" d="M343.502 329.877l-67.609 2.09a3.91 3.91 0 01-.243-7.815l67.609-2.09a3.91 3.91 0 11.243 7.815zm77.951 12.735L276.362 347.1a3.908 3.908 0 01-4.028-3.786 3.908 3.908 0 013.786-4.028l145.091-4.488a3.91 3.91 0 11.242 7.814zm.29 16.969l-144.209 4.771a3.908 3.908 0 01-4.028-3.786 3.908 3.908 0 013.786-4.028l144.209-4.772a3.91 3.91 0 01.242 7.815zm1.352 15.416l-145.092 4.488a3.909 3.909 0 11-.242-7.814l145.091-4.488a3.91 3.91 0 01.243 7.814z"/><path fill="#C3D8F9" d="M398.029 423.124l-145.283 4.492a2.554 2.554 0 11-.159-5.106l145.283-4.492a2.553 2.553 0 11.159 5.106z"/><path fill="#fff" d="M327.93 512.143c9.802 4.117 22.169 3.05 31.827-.881 9.248-3.765 20.028-11.955 19.286-23.114-.27-4.065-2.971-7.942-7.49-6.892-4.199.972-6.206 5.208-5.043 9.206 3.143 10.796 18.749 9.103 26.687 5.719a34.858 34.858 0 0013.023-9.646c3.245-3.878 6.369-9.051 6.637-14.209.038-.743-1.177-.969-1.442-.289-1.4 3.634-2.445 7.193-4.625 10.481-2.263 3.413-5.227 6.372-8.587 8.704-6.67 4.63-16.739 7.768-24.618 4.385-4.176-1.793-8.488-8.337-3.491-11.815 2.025-1.408 4.805-1.332 6.211.882 1.281 2.022 1.223 4.83.794 7.083-1.745 9.178-10.938 15.448-19.097 18.589a45.099 45.099 0 01-14.462 2.959c-5.292.203-10.209-.804-15.313-2.025-.498-.122-.783.66-.297.863z"/><path fill="#fff" d="M325.21 511.122c9.515 6.989 22.411 7.321 32.938 2.452 5.066-2.343 9.599-5.694 13.522-9.643 4.002-4.031 8.227-9.023 9.698-14.624 1.03-3.907.241-10.728-5.073-10.901-4.676-.156-9.752 4.379-10.609 8.837-.959 4.988 2.985 9.309 7.443 10.837 5.324 1.825 11.564.71 16.772-1.014 11.4-3.776 20.96-12.718 25.212-23.944.405-1.071-1.187-1.893-1.612-.808-3.161 8.117-8.964 14.938-16.432 19.444-3.804 2.296-8.03 3.957-12.402 4.798-5.005.961-11.163 1.286-15.066-2.594-4.31-4.283-1.932-10.038 2.83-12.716 2.777-1.562 5.873-1.736 7.235 1.692 1.106 2.781.307 6.041-.905 8.649-3.889 8.351-11.968 15.82-20.121 19.95-10.221 5.177-23.067 5.521-32.643-1.295-.614-.445-1.404.425-.787.88z"/><path fill="#fff" d="M404.178 478.553c2.127-1.101 4.112-2.53 6.13-3.816.954-.608 1.911-1.215 2.866-1.827.441-.282 2.578-2.026 3.056-1.806.247.111.218 2.974.245 3.35l.245 3.35c.161 2.177-.076 4.861.821 6.876.32.722 1.315.678 1.525-.101.391-1.444.083-2.935-.036-4.415-.134-1.673-.272-3.347-.406-5.02-.128-1.548.329-5.203-1.424-6.079-1.673-.838-4.101 1.787-5.348 2.623-2.8 1.875-5.806 3.612-8.421 5.731-.695.558-.028 1.535.747 1.134z"/><path fill="#fff" d="M404.674 478.97c2.015-1.6 3.633-3.782 5.449-5.607 2.11-2.116 4.298-4.184 6.692-5.977l-1.599-.784c.262 2.776.413 5.559.407 8.347-.002 2.709-.669 5.665-.261 8.328.12.774 1.349 1.241 1.689.338.906-2.404.718-5.482.74-8.024a73.365 73.365 0 00-.52-9.133c-.108-.918-1.158-1.221-1.798-.612-2.128 2.032-4.307 3.992-6.344 6.121-1.83 1.915-3.989 3.968-5.222 6.324-.227.449.346 1.014.767.679z"/><path fill="#fff" d="M403.966 481.07c4.594-4.804 9.162-9.634 13.809-14.388l-1.798-.611c.584 3.069 1.142 6.137 1.503 9.241.329 2.86.14 5.968.89 8.744.236.877 1.559.718 1.721-.114.576-2.917-.098-6.268-.474-9.186-.393-3.053-.911-6.096-1.635-9.087-.187-.77-1.269-.889-1.744-.349-4.399 4.979-8.877 9.886-13.333 14.814-.617.675.433 1.596 1.061.936z"/><path fill="#003889" d="M578.676 292.931c-11.686-9.923-34.296-19.03-34.296-19.03l-19.167-4.587s-.436-5.028-.633-8.826l-.078-1.536c1.89-1.829 3.508-4.299 4.636-7.181 1.31-.265 3.693-1.219 4.858-4.643 1.374-4.05-1.881-3.33-3.009-2.975 1.036-1.38 1.29-5.498 1.05-6.267-.262-.835 4.434-4.828 2.304-6.952-2.131-2.125-14.74-3.758-21.382.746-5.428 3.681-4.842 7.846-4.447 9.245a.41.41 0 00.253.271c-.084.243-.163.493-.239.746-.648-.419-4.072-2.419-4.122 2.133-.039 3.561 1.96 4.958 3.131 5.474.12 3.196.927 6.06 2.268 8.262l-2.207 4.863-2.355 4.719-.921-.088-30.156-4.64-31.999-22.812-.761.741-4.942-3.964s2.837-13.358-5.724-16.139c-8.562-2.782.636 10.51-1.399 10.732-2.036.221-2.558-4.321-5.23-2.438-2.325 1.638 8.594 14.248 11.47 17.494l-.937.914 29.461 27.451 21.95 10.733c1.283.626 2.031 1.952 1.922 3.401l-3.632 48.584c.431.136.955.287 1.554.445l-.116 2.235-3.246 62.31 15.196 34.161-2.512 25.38 1.587.164a321.293 321.293 0 01-1.434 5.69 4.218 4.218 0 00-1.794 2.823 70.172 70.172 0 01-1.005 5.323c-.89 3.821-1.299 14.251 8.141 13.96 9.438-.293 7.324-6.841 6.023-9.39-1.296-2.546 3.29-9.073.148-12.169l.03-5.195 1.514.157.409-1.767.604 1.328 2.247-1.415a203.387 203.387 0 002.308 5.301c-.755.349-1.304.557-1.454.571 0 0-1.324 1.337 2.118 4.224 3.443 2.886 1.474 10.28.397 13.161-1.076 2.881.421 7.641 7.845 3.572 6.424-3.52 7.368-24.587 7.506-30.193.021-.84-.568-1.528-1.402-1.652a22.027 22.027 0 00-3.471-.223c-1.94.022-2.62.794-3.217 2.159l-1.294-2.806.632-.398-6.765-19.899 20.088-87.214 1.545-6.697c.326-.202.611-.422.845-.663.026.012.049.026.075.04 2.245 1.011 6.494 1.262 8.285-.044 2.794-2.046 6.552-9.406 6.552-9.406l.1-.1 2.833-2.837c-1.594-1.352-4.503-3.73-6.003-4.956-.285.363-.554.715-.814 1.054-1.435 1.87-2.464 3.282-2.871 3.703-.776.796-5.195 2.085-7.507 3.345.646-13.094 5.141-34.287 5.141-34.287l17.931 5.922-12.835 19.479s7.665 6.249 8.059 6.701c.04.047 14.696-15.853 22.745-24.59 3.26-3.538 3.067-8.808-.376-11.731l-.009-.007zm-37.159 40.635c.877 1.56-1.385 2.081-3.481 3.431a35.51 35.51 0 01-.091-3.496c1.203-.251 2.792-1.318 3.574.065h-.002z" opacity=".18" style="mix-blend-mode:multiply"/><path fill="#fff" d="M509.811 458.634c.203.358 5.478 11.641 5.862 11.095.384-.547 7.783-7.686 7.783-7.686l-5.55-10.634-8.093 7.225h-.002zm-13.3 2.407c.049.351-1.444 8.137-1.444 8.137l11.872 1.225-.572-9.334-9.856-.028z"/><path fill="#0056FF" d="M520.589 455.001l-11.609 7.763-.691-1.336-.287 1.781-13.207-1.362.785-25.56-17.39-34.386-.973-62.747-.067-4.246 25.538 3.014 25.348.294-1.43 8.918-14.074 87.837 8.057 20.03z"/><path fill="#072542" d="M501.83 362.406l-4.115 39.897 2.552 7.053 1.563-46.95zm26.206-24.19l-1.43 8.918c-13.609 4.404-42.738-5.573-49.389-7.98l-.065-4.248 25.537 3.014 25.347.294v.002z"/><path fill="#E1FF00" d="M511.612 267.911l19.343 4.605s23.065 9.154 35.341 19.138c3.614 2.94 4.161 8.246 1.163 11.812-7.405 8.806-20.887 24.824-20.929 24.777-.421-.455-8.454-6.742-8.454-6.742l11.432-19.624-18.205-5.95s-4.395 30.894-2.189 41.308c2.206 10.413-44.472 2.051-53.503-.778l.333-48.924a3.774 3.774 0 00-2.138-3.424l-22.522-10.791-31.103-27.621 6.979-7.394 33.312 22.947 30.258 4.651 20.884 2.01h-.002zm.747 199.34c.581-.055 7.058-3.093 8.185-6.198 1.127-3.108.972-4.963 3.968-5a21.883 21.883 0 013.461.222 1.756 1.756 0 011.505 1.662c.242 5.646.723 26.86-5.419 30.409-7.099 4.102-8.905-.689-8.031-3.591.874-2.902 2.334-10.348-1.279-13.253-3.614-2.904-2.388-4.251-2.388-4.251h-.002zm-18.609 3.334a3.917 3.917 0 012.613-3.383c2.671-.933 8.25-.952 10.43 1.063 3.364 3.11-.771 9.703.691 12.271 1.463 2.568 4.004 9.16-5.349 9.46-9.354.302-9.652-10.203-9.023-14.052.317-1.944.517-3.902.638-5.361v.002z"/><path fill="#FDC8AA" d="M427.246 239.664l-5.97-4.602s1.918-13.453-6.771-16.248c-8.688-2.794 1.342 10.584-.667 10.808-2.009.224-2.832-4.349-5.359-2.451-2.528 1.898 13.297 18.376 13.297 18.376l5.47-5.88v-.003zm118.125 87.615l-2.622 2.858-.093.101s-3.236 7.413-5.872 9.475c-1.691 1.318-5.924 1.067-8.223.051-1.287-.569-1.964-1.384-1.227-2.301.452-.569 1.004-1.022 1.567-1.406 1.991-1.363 4.206-1.887 3.23-3.459-.872-1.395-2.378-.315-3.557-.064-.521.113-.987.058-1.299-.45-.314-.502.256-1.059 1.23-1.621 2.209-1.271 6.515-2.574 7.233-3.376.377-.424 1.303-1.847 2.602-3.73.236-.342.479-.696.739-1.063 1.571 1.232 4.62 3.626 6.294 4.987l-.002-.002zm-33.759-59.368s-2.428 10.974-11.672 9.882c-9.243-1.093-8.293-11.804-8.293-11.804l2.022-4.754 2.625-6.897 13.728 1.416c-.007.067.15 1.44.366 3.27.452 3.827 1.224 8.887 1.224 8.887z"/><path fill="#EFA37D" d="M510.388 259.024c-2.476 2.964-9.068 9.142-16.719 2.211l2.625-6.897 13.728 1.416c-.007.067.15 1.44.366 3.27z"/><path fill="#FDC8AA" d="M515.323 245.431c-.944 9.157-6.767 16.062-13.006 15.418-6.239-.643-10.53-8.589-9.586-17.748.945-9.16 6.479-13.266 12.718-12.622 6.24.643 10.819 5.795 9.874 14.952z"/><path fill="#FDC8AA" d="M515.289 242.698s4.859-2.035 3.548 2.864c-1.312 4.899-5.413 4.783-5.413 4.783l1.865-7.649v.002z"/><path fill="#EFA37D" d="M515.729 245.032s1.011-1.009 1.596-.45c.585.559-.64 3.22-1.132 3.457-.491.237 1.154-2.496.567-2.747-.589-.254-1.031-.26-1.031-.26z"/><path fill="#FDC8AA" d="M493.303 240.431s-4.342-2.984-4.058 2.079c.284 5.065 4.323 5.787 4.323 5.787l-.264-7.869-.001.003z"/><path fill="#EFA37D" d="M492.396 242.626s-.784-1.195-1.471-.767c-.686.428-.031 3.283.402 3.615.433.332-.62-2.679.007-2.805.628-.128 1.062-.043 1.062-.043z"/><path fill="#1F3A6F" d="M493.743 239.584a.441.441 0 01-.63-.247c-.489-1.409-1.35-5.605 3.791-9.313 6.291-4.54 18.924-2.905 21.181-.767 2.258 2.138-2.133 6.159-1.818 7.003.315.843.32 5.698-.892 6.622 0 0-8.522-.308-11.917-3.752-2.877-2.922-8.178-.38-9.717.456l.002-.002z"/><path fill="#072542" d="M495.58 436.286l12.709 25.142-.287 1.781-12.735-16.676.313-10.247z"/><path fill="#EFA37D" d="M545.371 327.279l-2.622 2.858c-1.244-1.936-3.441-5.341-4.411-6.78.235-.342.479-.697.739-1.063 1.571 1.231 4.619 3.626 6.294 4.987v-.002z"/><path fill="#003889" d="M431.236 132.167l-.86-18.523a4.277 4.277 0 00-4.47-4.073L195.92 120.253a4.277 4.277 0 00-4.073 4.47l.861 18.523a4.276 4.276 0 004.47 4.073l229.986-10.682a4.277 4.277 0 004.073-4.47h-.001z" opacity=".18" style="mix-blend-mode:multiply"/><path fill="url(#e)" d="M421.104 127.185l-229.332 20.366a4.275 4.275 0 01-4.637-3.881l-1.64-18.471a4.274 4.274 0 013.88-4.637l229.333-20.365a4.275 4.275 0 014.637 3.88l1.64 18.472a4.274 4.274 0 01-3.881 4.636z"/><rect width="6.811" height="6.811" x="201.683" y="127.896" fill="#F16C7A" rx="3.405" transform="rotate(-4.46 201.683 127.896)"/><rect width="6.811" height="6.811" x="212.773" y="126.97" fill="#49C3E8" rx="3.405" transform="rotate(-4.46 212.773 126.97)"/><rect width="6.811" height="6.811" x="223.863" y="126.108" fill="#FFD160" rx="3.405" transform="rotate(-4.46 223.863 126.108)"/><g filter="url(#f)"><rect width="80" height="80" x="94" y="156" fill="url(#g)" rx="40"/><rect width="79" height="79" x="94.5" y="156.5" stroke="#11121C" rx="39.5"/></g><g clip-path="url(#h)"><path stroke="#11121C" stroke-linecap="round" stroke-linejoin="round" stroke-width="3" d="M126.231 208.362a2.668 2.668 0 003.81 1.798 2.661 2.661 0 001.141-1.114l4.645-6.873 10.904 10.905a2.376 2.376 0 003.354 0l2.326-2.327a2.376 2.376 0 00.514-2.584 2.365 2.365 0 00-.514-.769l-10.904-10.905 6.918-4.644a2.667 2.667 0 00-.687-4.951l-30.182-8.676 8.675 30.14z"/></g><defs><linearGradient id="b" x1="172.55" x2="448.899" y1="141.714" y2="399.769" gradientUnits="userSpaceOnUse"><stop stop-color="#00E3F2"/><stop offset=".287" stop-color="#0000F2"/><stop offset=".641" stop-color="#F87D7D"/><stop offset="1" stop-color="#FF2828"/></linearGradient><linearGradient id="c" x1="337.882" x2="337.882" y1="-145.146" y2="525.424" gradientUnits="userSpaceOnUse"><stop stop-color="#ECF3FE" stop-opacity="0"/><stop offset=".339" stop-color="#ECF3FE" stop-opacity=".708"/><stop offset="1" stop-color="#ECF3FE" stop-opacity="0"/></linearGradient><linearGradient id="d" x1="530.122" x2="247.419" y1="-78.734" y2="562.518" gradientUnits="userSpaceOnUse"><stop stop-color="#fff"/><stop offset="1" stop-color="#fff"/></linearGradient><linearGradient id="e" x1="550.414" x2="130.988" y1="40.276" y2="135.471" gradientUnits="userSpaceOnUse"><stop stop-color="#4B4D5E"/><stop offset="1" stop-color="#11121C"/></linearGradient><linearGradient id="g" x1="134" x2="134" y1="156" y2="236" gradientUnits="userSpaceOnUse"><stop stop-color="#F4FFA2"/><stop offset="1" stop-color="#B9D100"/></linearGradient><filter id="a" width="557.257" height="624.841" x=".04" y=".63" color-interpolation-filters="sRGB" filterUnits="userSpaceOnUse"><feFlood flood-opacity="0" result="BackgroundImageFix"/><feBlend in="SourceGraphic" in2="BackgroundImageFix" result="shape"/><feGaussianBlur result="effect1_foregroundBlur_136_330" stdDeviation="50"/></filter><filter id="f" width="180" height="180" x="44" y="124" color-interpolation-filters="sRGB" filterUnits="userSpaceOnUse"><feFlood flood-opacity="0" result="BackgroundImageFix"/><feColorMatrix in="SourceAlpha" result="hardAlpha" values="0 0 0 0 0 0 0 0 0 0 0 0 0 0 0 0 0 0 127 0"/><feOffset dy="18"/><feGaussianBlur stdDeviation="25"/><feComposite in2="hardAlpha" operator="out"/><feColorMatrix values="0 0 0 0 0.0666667 0 0 0 0 0.0705882 0 0 0 0 0.109804 0 0 0 0.3 0"/><feBlend in2="BackgroundImageFix" result="effect1_dropShadow_136_330"/><feBlend in="SourceGraphic" in2="effect1_dropShadow_136_330" result="shape"/></filter><clipPath id="h"><path fill="#fff" d="M108.667 169.333H162v53.333h-53.333z"/></clipPath></defs></svg>