<svg xmlns="http://www.w3.org/2000/svg" fill="none" viewBox="0 0 584 626"><path fill="url(#a)" d="M243.07 513.424C108.826 513.424 0 407.668 0 277.212S108.826 41 243.07 41s243.07 105.756 243.07 236.212-108.826 236.212-243.07 236.212z"/><g filter="url(#b)" opacity=".35"><path fill="url(#c)" d="M267.777 153.952c15.497-85.737 118.163-44.272 138.246-36.349 1.743 1.757 32.595.581 69.75 123.466 37.156 122.886-77.913 151.649-125.831 138.554-47.919-13.096-39.407 42.351-85.107 121.115-45.701 78.764-129.617-49.855-138.514-117.406-8.897-67.551 94.766-36.276 120.049-42.262 25.283-5.987 5.909-101.381 21.407-187.118z"/></g><path fill="url(#d)" stroke="#6A4DFF" d="M63 98.5h318a7.5 7.5 0 017.5 7.5v376a7.5 7.5 0 01-7.5 7.5H63a7.5 7.5 0 01-7.5-7.5V106a7.5 7.5 0 017.5-7.5z"/><g filter="url(#e)"><rect width="90.769" height="6.562" x="81.246" y="169.581" fill="url(#f)" rx="3.281"/><rect width="89.769" height="5.562" x="81.746" y="170.081" stroke="#fff" rx="2.781"/></g><rect width="237.31" height="6.562" x="81.246" y="208.95" fill="#D7E4F9" rx="3.281"/><rect width="183.724" height="6.562" x="81.246" y="225.354" fill="#D7E4F9" rx="3.281"/><rect width="213.251" height="8.749" x="81.246" y="190.359" fill="#D7E4F9" rx="4.374"/><g filter="url(#g)"><rect width="100.611" height="6.562" x="81.246" y="258.162" fill="url(#h)" rx="3.281"/><rect width="99.611" height="5.562" x="81.746" y="258.662" stroke="#fff" rx="2.781"/></g><rect width="293.084" height="7.655" x="81.246" y="297.531" fill="#D7E4F9" rx="3.828"/><rect width="261.369" height="6.562" x="81.246" y="316.123" fill="#D7E4F9" rx="3.281"/><rect width="243.872" height="8.749" x="81.246" y="278.94" fill="#D7E4F9" rx="4.374"/><g filter="url(#i)"><rect width="100.611" height="6.562" x="81.246" y="348.932" fill="url(#j)" rx="3.281"/><rect width="99.611" height="5.562" x="81.746" y="349.432" stroke="#fff" rx="2.781"/></g><rect width="263.557" height="7.655" x="81.246" y="388.301" fill="#D7E4F9" rx="3.828"/><rect width="263.557" height="7.655" x="81.246" y="428.764" fill="#D7E4F9" rx="3.828"/><rect width="227.468" height="8.749" x="81.246" y="369.71" fill="#D7E4F9" rx="4.374"/><rect width="227.468" height="8.749" x="81.246" y="410.173" fill="#D7E4F9" rx="4.374"/><path fill="#003889" d="M417.252 157.742l1.121-26.524a6.122 6.122 0 00-5.858-6.374L83.193 110.948a6.125 6.125 0 00-6.375 5.858L75.7 143.33a6.123 6.123 0 005.859 6.375L410.88 163.6a6.123 6.123 0 006.375-5.858h-.003z" opacity=".18" style="mix-blend-mode:multiply"/><path fill="url(#k)" d="M403.436 149.354L73.82 149.35a6.12 6.12 0 01-6.121-6.121V116.68a6.12 6.12 0 016.122-6.121l329.616.005a6.12 6.12 0 016.121 6.12l-.001 26.55a6.12 6.12 0 01-6.121 6.12z"/><rect width="9.751" height="9.751" x="90.443" y="122.577" fill="#F16C7A" rx="4.875" transform="rotate(.615 90.443 122.577)"/><rect width="9.751" height="9.751" x="106.375" y="122.66" fill="#49C3E8" rx="4.875" transform="rotate(.615 106.375 122.66)"/><rect width="9.751" height="9.751" x="122.299" y="122.837" fill="#FFD160" rx="4.875" transform="rotate(.615 122.299 122.837)"/><g filter="url(#l)"><rect width="346.67" height="203.409" x="184.33" y="199.108" fill="#fff" rx="12"/><rect width="345.67" height="202.409" x="184.83" y="199.608" stroke="#3442F4" rx="11.5"/></g><path fill="#9CAACF" d="M206.564 239.857v-5.952h-3.456v-3.456h3.456v-3.584h-3.456v-3.456h3.456v-5.952h3.648v5.952h3.584v-5.952h3.648v5.952h3.456v3.456h-3.456v3.584h3.456v3.456h-3.456v5.952h-3.648v-5.952h-3.584v5.952h-3.648zm3.648-9.408h3.584v-3.584h-3.584v3.584zm22.327 9.856c-2.645 0-4.768-.725-6.368-2.176-1.6-1.472-2.4-3.69-2.4-6.656v-5.632c0-2.88.8-5.066 2.4-6.56 1.6-1.514 3.723-2.272 6.368-2.272 2.667 0 4.79.758 6.368 2.272 1.6 1.494 2.4 3.68 2.4 6.56v5.632c0 2.966-.8 5.184-2.4 6.656-1.578 1.451-3.701 2.176-6.368 2.176zm0-3.648c1.6 0 2.774-.437 3.52-1.312.768-.874 1.152-2.122 1.152-3.744v-5.952c0-1.642-.426-2.88-1.28-3.712-.832-.853-1.962-1.28-3.392-1.28-1.472 0-2.624.438-3.456 1.312-.81.875-1.216 2.102-1.216 3.68v5.952c0 1.686.384 2.955 1.152 3.808.79.832 1.963 1.248 3.52 1.248zm18.638 3.2v-19.392h-.576l-3.008 7.104h-4.288l4.576-10.112h7.392v22.4h-4.096z"/><path fill="url(#m)" d="M235.486 319.936h-26.003v58.522h26.003v-58.522z"/><path fill="#D3DFFF" d="M289.121 285.123h-26.003v93.335h26.003v-93.335z"/><path fill="url(#n)" d="M342.753 264.626H316.75v113.832h26.003V264.626z"/><path fill="#D3DFFF" d="M396.389 314.158h-26.003v64.3h26.003v-64.3z"/><path fill="url(#o)" d="M450.025 277.014h-26.003v101.444h26.003V277.014z"/><path fill="#D3DFFF" d="M503.66 238.478h-26.003v139.98h26.003v-139.98z"/><g filter="url(#p)"><rect width="80" height="80" x="410" y="155" fill="url(#q)" rx="40"/><rect width="79" height="79" x="410.5" y="155.5" stroke="#fff" rx="39.5"/></g><g stroke="#fff" stroke-linecap="round" stroke-linejoin="round" stroke-width="3" clip-path="url(#r)"><path d="M449.167 210H440a3.333 3.333 0 01-3.333-3.333v-23.334A3.333 3.333 0 01440 180h20a3.333 3.333 0 013.333 3.333v10M445 205h3.333"/><path d="M455 205c0 1.326.527 2.598 1.464 3.536a5.004 5.004 0 007.072 0 5.004 5.004 0 000-7.072 5.004 5.004 0 00-7.072 0A5.004 5.004 0 00455 205z"/></g><path fill="#6A4DFF" d="M376.392 496.589c11.13 2.272 23.859-1.466 33.15-7.652 8.896-5.926 18.47-16.842 15.351-28.455-1.135-4.232-4.777-7.751-9.29-5.688-4.194 1.913-5.408 6.805-3.351 10.775 5.556 10.725 21.547 5.642 29.151.396a37.403 37.403 0 0011.617-12.926c2.586-4.776 4.773-10.893 3.971-16.39-.116-.791-1.436-.773-1.571 0-.704 4.129-1.052 8.104-2.646 12.033-1.654 4.077-4.137 7.825-7.168 10.994-6.015 6.294-15.903 11.731-24.865 9.827-4.749-1.01-10.639-7.001-6.135-11.726 1.826-1.913 4.755-2.42 6.691-.381 1.766 1.861 2.294 4.836 2.317 7.303.098 10.05-8.215 18.605-16.102 23.642a47.986 47.986 0 01-14.527 6.177c-5.5 1.331-10.861 1.308-16.463 1.098-.547-.023-.682.861-.13.973z"/><path fill="#6A4DFF" d="M373.329 496.086c11.432 5.362 25.008 2.988 35.013-4.371 4.814-3.542 8.859-8.034 12.14-13.029 3.346-5.097 6.724-11.255 7.09-17.474.259-4.338-1.998-11.367-7.6-10.427-4.93.824-9.295 6.68-9.258 11.563.042 5.464 5.079 9.188 10.069 9.859 5.959.8 12.261-1.695 17.354-4.613 11.148-6.391 19.285-17.842 21.384-30.583.2-1.214-1.64-1.745-1.858-.512-1.608 9.231-6.255 17.652-13.132 23.982-3.503 3.226-7.581 5.87-11.983 7.681-5.041 2.071-11.422 3.714-16.324.446-5.413-3.607-4.129-10.18.296-14.011 2.581-2.234 5.788-3.072 7.933.256 1.742 2.7 1.589 6.308.867 9.315-2.322 9.631-9.217 19.215-16.89 25.294-9.62 7.62-23.002 10.697-34.461 5.53-.737-.34-1.381.745-.64 1.094z"/><path fill="#6A4DFF" d="M449.206 445.051c1.998-1.611 3.777-3.538 5.621-5.321.871-.842 1.747-1.685 2.618-2.532.403-.391 2.275-2.681 2.822-2.551.283.065.853 3.091.959 3.482l.96 3.482c.625 2.262.94 5.143 2.303 7.08.486.693 1.519.437 1.575-.428.107-1.606-.528-3.114-.964-4.651-.491-1.736-.987-3.472-1.478-5.208-.459-1.606-.746-5.558-2.766-6.112-1.928-.531-3.92 2.751-5.051 3.896-2.539 2.57-5.324 5.037-7.618 7.825a.728.728 0 001.019 1.038z"/><path fill="#6A4DFF" d="M449.814 445.386c1.774-2.113 3.012-4.757 4.531-7.066 1.766-2.677 3.624-5.321 5.756-7.718l-1.84-.489a93.963 93.963 0 012.178 8.719c.565 2.858.486 6.116 1.473 8.839.288.792 1.673 1.024 1.84 0 .445-2.727-.399-5.935-.908-8.62a79.467 79.467 0 00-2.461-9.524c-.306-.945-1.469-1.043-2.011-.265-1.802 2.592-3.674 5.12-5.361 7.796-1.515 2.407-3.346 5.028-4.143 7.774-.143.521.575.996.946.554z"/><path fill="#6A4DFF" d="M449.512 447.751c3.805-6.038 7.577-12.098 11.446-18.094l-2.011-.265c1.255 3.114 2.483 6.233 3.512 9.431.945 2.946 1.399 6.265 2.766 9.035.431.875 1.784.428 1.78-.485-.009-3.197-1.418-6.591-2.424-9.588-1.052-3.138-2.233-6.238-3.619-9.24-.356-.773-1.515-.671-1.899 0-3.564 6.181-7.224 12.302-10.857 18.442-.505.843.787 1.592 1.306.764z"/><defs><linearGradient id="a" x1="243.07" x2="243.07" y1="-157.146" y2="513.424" gradientUnits="userSpaceOnUse"><stop stop-color="#ECF3FE"/><stop offset=".339" stop-color="#ECF3FE" stop-opacity=".708"/><stop offset="1" stop-color="#ECF3FE" stop-opacity=".31"/></linearGradient><linearGradient id="c" x1="410.528" x2="134.179" y1="141.714" y2="399.769" gradientUnits="userSpaceOnUse"><stop stop-color="#00E3F2"/><stop offset=".287" stop-color="#0000F2"/><stop offset=".641" stop-color="#F87D7D"/><stop offset="1" stop-color="#FF2828"/></linearGradient><linearGradient id="d" x1="476.559" x2="170.622" y1="-119.002" y2="511.452" gradientUnits="userSpaceOnUse"><stop stop-color="#fff"/><stop offset="1" stop-color="#fff"/></linearGradient><linearGradient id="f" x1="126.631" x2="126.631" y1="169.581" y2="176.143" gradientUnits="userSpaceOnUse"><stop stop-color="#A18EFF"/><stop offset="1" stop-color="#6A4DFF"/></linearGradient><linearGradient id="h" x1="131.552" x2="131.552" y1="258.162" y2="264.724" gradientUnits="userSpaceOnUse"><stop stop-color="#A18EFF"/><stop offset="1" stop-color="#6A4DFF"/></linearGradient><linearGradient id="j" x1="131.552" x2="131.552" y1="348.932" y2="355.493" gradientUnits="userSpaceOnUse"><stop stop-color="#A18EFF"/><stop offset="1" stop-color="#6A4DFF"/></linearGradient><linearGradient id="k" x1="598.844" x2="-11.329" y1="41.795" y2="124.426" gradientUnits="userSpaceOnUse"><stop stop-color="#4B4D5E"/><stop offset="1" stop-color="#11121C"/></linearGradient><linearGradient id="m" x1="222.484" x2="222.484" y1="319.936" y2="378.458" gradientUnits="userSpaceOnUse"><stop stop-color="#A18EFF"/><stop offset="1" stop-color="#6A4DFF"/></linearGradient><linearGradient id="n" x1="329.752" x2="329.752" y1="264.626" y2="378.458" gradientUnits="userSpaceOnUse"><stop stop-color="#A18EFF"/><stop offset="1" stop-color="#6A4DFF"/></linearGradient><linearGradient id="o" x1="437.023" x2="437.023" y1="277.014" y2="378.458" gradientUnits="userSpaceOnUse"><stop stop-color="#A18EFF"/><stop offset="1" stop-color="#6A4DFF"/></linearGradient><linearGradient id="q" x1="450" x2="450" y1="155" y2="235" gradientUnits="userSpaceOnUse"><stop stop-color="#A18EFF"/><stop offset="1" stop-color="#6A4DFF"/></linearGradient><filter id="b" width="557.257" height="624.841" x="25.781" y=".629" color-interpolation-filters="sRGB" filterUnits="userSpaceOnUse"><feFlood flood-opacity="0" result="BackgroundImageFix"/><feBlend in="SourceGraphic" in2="BackgroundImageFix" result="shape"/><feGaussianBlur result="effect1_foregroundBlur_165_945" stdDeviation="50"/></filter><filter id="e" width="190.769" height="106.562" x="31.246" y="137.581" color-interpolation-filters="sRGB" filterUnits="userSpaceOnUse"><feFlood flood-opacity="0" result="BackgroundImageFix"/><feColorMatrix in="SourceAlpha" result="hardAlpha" values="0 0 0 0 0 0 0 0 0 0 0 0 0 0 0 0 0 0 127 0"/><feOffset dy="18"/><feGaussianBlur stdDeviation="25"/><feComposite in2="hardAlpha" operator="out"/><feColorMatrix values="0 0 0 0 0.0666667 0 0 0 0 0.0705882 0 0 0 0 0.109804 0 0 0 0.3 0"/><feBlend in2="BackgroundImageFix" result="effect1_dropShadow_165_945"/><feBlend in="SourceGraphic" in2="effect1_dropShadow_165_945" result="shape"/></filter><filter id="g" width="200.611" height="106.562" x="31.246" y="226.162" color-interpolation-filters="sRGB" filterUnits="userSpaceOnUse"><feFlood flood-opacity="0" result="BackgroundImageFix"/><feColorMatrix in="SourceAlpha" result="hardAlpha" values="0 0 0 0 0 0 0 0 0 0 0 0 0 0 0 0 0 0 127 0"/><feOffset dy="18"/><feGaussianBlur stdDeviation="25"/><feComposite in2="hardAlpha" operator="out"/><feColorMatrix values="0 0 0 0 0.0666667 0 0 0 0 0.0705882 0 0 0 0 0.109804 0 0 0 0.3 0"/><feBlend in2="BackgroundImageFix" result="effect1_dropShadow_165_945"/><feBlend in="SourceGraphic" in2="effect1_dropShadow_165_945" result="shape"/></filter><filter id="i" width="200.611" height="106.562" x="31.246" y="316.932" color-interpolation-filters="sRGB" filterUnits="userSpaceOnUse"><feFlood flood-opacity="0" result="BackgroundImageFix"/><feColorMatrix in="SourceAlpha" result="hardAlpha" values="0 0 0 0 0 0 0 0 0 0 0 0 0 0 0 0 0 0 127 0"/><feOffset dy="18"/><feGaussianBlur stdDeviation="25"/><feComposite in2="hardAlpha" operator="out"/><feColorMatrix values="0 0 0 0 0.0666667 0 0 0 0 0.0705882 0 0 0 0 0.109804 0 0 0 0.3 0"/><feBlend in2="BackgroundImageFix" result="effect1_dropShadow_165_945"/><feBlend in="SourceGraphic" in2="effect1_dropShadow_165_945" result="shape"/></filter><filter id="l" width="358.67" height="215.409" x="172.33" y="199.108" color-interpolation-filters="sRGB" filterUnits="userSpaceOnUse"><feFlood flood-opacity="0" result="BackgroundImageFix"/><feColorMatrix in="SourceAlpha" result="hardAlpha" values="0 0 0 0 0 0 0 0 0 0 0 0 0 0 0 0 0 0 127 0"/><feOffset dx="-12" dy="12"/><feComposite in2="hardAlpha" operator="out"/><feColorMatrix values="0 0 0 0 0.227451 0 0 0 0 0.494118 0 0 0 0 0.756863 0 0 0 0.16 0"/><feBlend in2="BackgroundImageFix" result="effect1_dropShadow_165_945"/><feBlend in="SourceGraphic" in2="effect1_dropShadow_165_945" result="shape"/></filter><filter id="p" width="180" height="180" x="360" y="123" color-interpolation-filters="sRGB" filterUnits="userSpaceOnUse"><feFlood flood-opacity="0" result="BackgroundImageFix"/><feColorMatrix in="SourceAlpha" result="hardAlpha" values="0 0 0 0 0 0 0 0 0 0 0 0 0 0 0 0 0 0 127 0"/><feOffset dy="18"/><feGaussianBlur stdDeviation="25"/><feComposite in2="hardAlpha" operator="out"/><feColorMatrix values="0 0 0 0 0.0666667 0 0 0 0 0.0705882 0 0 0 0 0.109804 0 0 0 0.3 0"/><feBlend in2="BackgroundImageFix" result="effect1_dropShadow_165_945"/><feBlend in="SourceGraphic" in2="effect1_dropShadow_165_945" result="shape"/></filter><clipPath id="r"><path fill="#fff" d="M430 175h40v40h-40z"/></clipPath></defs></svg>