<svg xmlns="http://www.w3.org/2000/svg" fill="none" viewBox="0 0 588 626"><g filter="url(#a)" opacity=".35"><path fill="url(#b)" d="M315.301 153.952c-15.497-85.737-118.163-44.272-138.246-36.349-1.744 1.757-32.595.581-69.75 123.467-37.156 122.885 77.912 151.648 125.831 138.553 47.919-13.096 39.407 42.351 85.107 121.115s129.617-49.855 138.514-117.406c8.896-67.551-94.767-36.275-120.049-42.262-25.283-5.986-5.909-101.381-21.407-187.118z"/></g><path fill="url(#c)" fill-opacity=".05" d="M337.882 525.424c134.244 0 243.07-105.756 243.07-236.212S472.126 53 337.882 53c-134.243 0-243.07 105.756-243.07 236.212s108.827 236.212 243.07 236.212z"/><path fill="#fff" d="M517.331 169.192a8.72 8.72 0 100-17.44 8.72 8.72 0 100 17.44z" opacity=".1"/><path fill="#fff" d="M154.706 171.946a8.72 8.72 0 100-17.44 8.72 8.72 0 100 17.44z" opacity=".5"/><path fill="#fff" d="M177.174 498.881c-4.872 0-9.324-3.289-10.584-8.22L94.376 207.875c-1.49-5.835 2.045-11.794 7.879-13.285l218.454-55.783c5.835-1.49 11.794 2.044 13.285 7.88l72.212 282.785a10.841 10.841 0 01-1.189 8.275 10.849 10.849 0 01-6.691 5.01l-218.453 55.785c-.903.231-1.809.341-2.701.341l.002-.002zM323.41 140.545c-.723 0-1.456.088-2.187.276l-218.452 55.785c-4.724 1.206-7.586 6.031-6.38 10.755l72.213 282.786c1.019 3.992 4.625 6.655 8.568 6.655.723 0 1.456-.089 2.187-.276l218.453-55.785a8.789 8.789 0 005.416-4.056 8.792 8.792 0 00.963-6.699l-72.213-282.784c-1.019-3.993-4.625-6.655-8.568-6.655v-.002z" opacity=".12"/><path fill="#121526" d="M430.468 399.661L283.567 147.466c-2.747-4.716-8.797-6.312-13.512-3.565L75.232 257.383c-4.717 2.747-6.312 8.798-3.565 13.513L218.57 523.09c2.747 4.717 8.798 6.312 13.513 3.565l194.821-113.482c4.717-2.747 6.312-8.797 3.565-13.512z" opacity=".32" style="mix-blend-mode:multiply"/><path fill="url(#d)" stroke="#000" d="M430.195 404.822l-194.82 113.482a9.383 9.383 0 01-12.829-3.385L75.642 262.725a9.382 9.382 0 013.384-12.829L273.85 136.414a9.383 9.383 0 0112.829 3.384L433.58 391.993a9.382 9.382 0 01-3.385 12.829z"/><path fill="#121526" d="M156.038 301.647l-9.934-17.1a4.53 4.53 0 00-6.188-1.64l-17.101 9.934a4.534 4.534 0 00-1.639 6.188l9.933 17.101a4.537 4.537 0 006.189 1.639l17.1-9.933a4.534 4.534 0 001.64-6.189zm-2.615 4.505l-17.099 9.937a2.585 2.585 0 01-3.531-.94l-9.932-17.097a2.586 2.586 0 01.935-3.535l17.097-9.932a2.59 2.59 0 013.533.935l9.933 17.101a2.588 2.588 0 01-.936 3.531z"/><path fill="#121526" d="M140.134 308.641a1.95 1.95 0 01-1.468.272l-6.567-1.397a1.95 1.95 0 01.813-3.816l4.659.991 2.966-13.935a1.952 1.952 0 013.816.813l-3.373 15.842c-.113.527-.427.96-.846 1.23zm88.459-64.956l-58.448 34.046a3.909 3.909 0 01-3.936-6.755l58.448-34.046a3.909 3.909 0 013.936 6.755zm74.604-25.935l-125.433 73.064a3.908 3.908 0 11-3.936-6.755l125.433-73.064a3.91 3.91 0 113.936 6.755zM182.872 347.713l-9.934-17.101a4.53 4.53 0 00-6.188-1.639l-17.101 9.933a4.535 4.535 0 00-1.639 6.189l9.933 17.1a4.537 4.537 0 006.189 1.639l17.1-9.933a4.533 4.533 0 001.64-6.188zm-2.615 4.504l-17.099 9.937a2.586 2.586 0 01-3.531-.939l-9.932-17.097a2.586 2.586 0 01.935-3.535l17.097-9.932a2.589 2.589 0 013.533.934l9.933 17.101a2.587 2.587 0 01-.936 3.531z"/><path fill="#121526" d="M166.966 354.708a1.945 1.945 0 01-1.468.272l-6.566-1.397a1.95 1.95 0 11.812-3.816l4.659.991 2.966-13.935a1.95 1.95 0 013.816.813l-3.373 15.843a1.942 1.942 0 01-.846 1.229zm88.459-64.955l-58.448 34.045a3.908 3.908 0 11-3.936-6.755l58.448-34.046a3.91 3.91 0 013.936 6.756zm74.604-25.937L204.596 336.88a3.909 3.909 0 01-3.936-6.756l125.433-73.064a3.91 3.91 0 013.936 6.756zM209.704 393.78l-9.934-17.101a4.53 4.53 0 00-6.188-1.639l-17.101 9.933a4.535 4.535 0 00-1.639 6.189l9.933 17.1a4.537 4.537 0 006.189 1.639l17.1-9.933a4.533 4.533 0 001.64-6.188zm-2.615 4.504l-17.099 9.937a2.586 2.586 0 01-3.531-.939l-9.932-17.097a2.586 2.586 0 01.935-3.535l17.097-9.932a2.589 2.589 0 013.533.934l9.933 17.101a2.587 2.587 0 01-.936 3.531zm75.17-62.464l-58.448 34.045a3.908 3.908 0 11-3.936-6.755l58.448-34.046a3.91 3.91 0 013.936 6.756zm74.604-25.937L231.43 382.947a3.908 3.908 0 01-3.936-6.755l125.433-73.065a3.91 3.91 0 013.936 6.756zM236.54 439.847l-9.934-17.1a4.53 4.53 0 00-6.188-1.64l-17.101 9.934a4.534 4.534 0 00-1.639 6.188l9.933 17.101a4.538 4.538 0 006.189 1.639l17.1-9.934a4.533 4.533 0 001.64-6.188zm-2.615 4.505l-17.099 9.937a2.585 2.585 0 01-3.531-.94l-9.932-17.097a2.586 2.586 0 01.935-3.535l17.097-9.932a2.59 2.59 0 013.533.935l9.933 17.1a2.588 2.588 0 01-.936 3.532z"/><path fill="#121526" d="M220.634 446.843a1.95 1.95 0 01-1.468.272l-6.567-1.398a1.95 1.95 0 11.813-3.815l4.659.991 2.966-13.935a1.952 1.952 0 013.816.812l-3.373 15.843a1.944 1.944 0 01-.846 1.23zm88.459-64.958l-58.448 34.046a3.909 3.909 0 01-3.936-6.755l58.448-34.046a3.908 3.908 0 013.936 6.755zm74.606-25.935l-125.433 73.064a3.908 3.908 0 11-3.936-6.755l125.433-73.064a3.91 3.91 0 113.936 6.755zm1.168 50.638L259.27 479.747a2.555 2.555 0 01-2.571-4.415l125.597-73.159a2.555 2.555 0 012.571 4.415z"/><path fill="#000" d="M440.688 434.554l-10.722-258.02c-.201-4.825-4.782-8.641-10.232-8.525l-65.94 1.419-.552-13.264c-.077-1.887-1.871-3.379-4.002-3.332l-15.217.328a4.476 4.476 0 01-.831-.061c-1.455-.251-2.658-1.228-3.049-2.542-2.847-9.588-12.872-16.582-24.503-16.332-11.63.25-21.056 7.664-23.1 17.357-.334 1.575-1.844 2.728-3.659 2.767l-15.216.328c-2.132.045-3.797 1.61-3.72 3.498l.552 13.265-65.94 1.419c-5.451.118-9.707 4.124-9.506 8.948l10.723 258.02c.201 4.825 4.782 8.641 10.232 8.523l225.173-4.845c5.451-.118 9.707-4.124 9.506-8.949l.003-.002zM306.413 152.761c4.152-.09 7.644 2.819 7.795 6.495.154 3.676-3.09 6.73-7.243 6.818-4.153.09-7.645-2.819-7.798-6.495-.153-3.676 3.091-6.73 7.244-6.82l.002.002z" opacity=".2" style="mix-blend-mode:multiply"/><path fill="url(#e)" stroke="#000" d="M194.677 141.124a9.382 9.382 0 019.089-9.667l225.355-6.97-.016-.5.016.5c5.179-.161 9.507 3.908 9.667 9.088l9.022 291.721.5-.016-.5.016c.161 5.179-3.908 9.507-9.088 9.667l-225.355 6.97.015.5-.015-.5c-5.179.161-9.507-3.908-9.668-9.089l-9.022-291.72z"/><path fill="#121526" d="M244.356 188.498l-.588-19.767a4.53 4.53 0 00-4.66-4.389l-19.766.588a4.534 4.534 0 00-4.39 4.66l.589 19.766a4.535 4.535 0 004.659 4.39l19.767-.589a4.53 4.53 0 004.389-4.659zm-4.445 2.716l-19.766.592a2.588 2.588 0 01-2.659-2.509l-.589-19.763a2.586 2.586 0 012.506-2.662l19.763-.589a2.59 2.59 0 012.662 2.506l.588 19.766a2.586 2.586 0 01-2.505 2.659z"/><path fill="#121526" d="M227.811 184.47a1.33 1.33 0 01-.972-.315l-3.495-2.982a1.336 1.336 0 011.734-2.032l2.48 2.115 6.327-7.419a1.336 1.336 0 012.032 1.734l-7.194 8.433a1.328 1.328 0 01-.909.465l-.003.001z"/><path fill="#121526" d="M335.759 172.1l-67.609 2.09a3.91 3.91 0 01-.242-7.815l67.609-2.09a3.91 3.91 0 11.242 7.815zm77.952 12.737l-145.091 4.488a3.909 3.909 0 11-.243-7.815l145.092-4.488a3.909 3.909 0 11.242 7.815z" opacity=".9"/><path fill="#121526" d="M246.003 241.785l-.589-19.767a4.53 4.53 0 00-4.659-4.389l-19.767.588a4.533 4.533 0 00-4.389 4.66l.588 19.766a4.535 4.535 0 004.66 4.39l19.766-.588a4.533 4.533 0 004.39-4.66zm-4.445 2.716l-19.767.592a2.588 2.588 0 01-2.659-2.508l-.588-19.764a2.585 2.585 0 012.505-2.662l19.763-.589a2.593 2.593 0 012.663 2.506l.588 19.766a2.588 2.588 0 01-2.505 2.659z"/><path fill="#121526" d="M229.293 238.308a1.458 1.458 0 01-1.066-.347l-3.836-3.273a1.466 1.466 0 011.902-2.23l2.722 2.321 6.944-8.142a1.467 1.467 0 012.23 1.903l-7.895 9.256c-.262.309-.625.48-.998.51l-.003.002z"/><path fill="#121526" d="M337.408 225.387l-67.609 2.09a3.91 3.91 0 01-.243-7.815l67.609-2.09a3.91 3.91 0 01.243 7.815zm77.949 12.737l-145.091 4.488a3.91 3.91 0 01-.242-7.815l145.091-4.488a3.91 3.91 0 11.242 7.815z" opacity=".8"/><path fill="#121526" d="M247.651 295.072l-.588-19.766a4.532 4.532 0 00-4.66-4.39l-19.766.588a4.535 4.535 0 00-4.39 4.66l.588 19.767a4.535 4.535 0 004.66 4.389l19.767-.588a4.532 4.532 0 004.389-4.66zm-4.445 2.717l-19.767.591a2.587 2.587 0 01-2.658-2.508l-.589-19.763a2.587 2.587 0 012.505-2.663l19.764-.588a2.59 2.59 0 012.662 2.505l.588 19.767a2.588 2.588 0 01-2.505 2.659z"/><path fill="#121526" d="M339.054 278.674l-67.609 2.09a3.909 3.909 0 11-.242-7.815l67.609-2.09a3.909 3.909 0 11.242 7.815zm77.952 12.735l-145.091 4.488a3.91 3.91 0 01-.243-7.815l145.091-4.488a3.91 3.91 0 01.243 7.815z" opacity=".7"/><path fill="#121526" d="M252.098 346.276l-.588-19.767a4.531 4.531 0 00-4.659-4.39l-19.767.589a4.533 4.533 0 00-4.39 4.659l.589 19.767a4.534 4.534 0 004.659 4.389l19.767-.588a4.531 4.531 0 004.389-4.659zm-4.444 2.716l-19.767.592a2.588 2.588 0 01-2.659-2.509l-.589-19.763a2.588 2.588 0 012.506-2.663l19.763-.588a2.59 2.59 0 012.662 2.505l.589 19.767a2.588 2.588 0 01-2.505 2.659z"/><path fill="#121526" d="M339.597 332.423l-67.609 2.09a3.91 3.91 0 01-.242-7.815l67.609-2.09a3.91 3.91 0 01.242 7.815zm77.952 12.735l-145.091 4.488a3.91 3.91 0 01-.243-7.815l145.091-4.488a3.91 3.91 0 01.243 7.815zm.291 16.968l-144.209 4.772a3.91 3.91 0 01-.242-7.815l144.208-4.771a3.91 3.91 0 01.243 7.814zm1.351 15.417L274.1 382.031a3.909 3.909 0 11-.242-7.815l145.091-4.488a3.91 3.91 0 014.029 3.786 3.91 3.91 0 01-3.787 4.029z" opacity=".6"/><path fill="#131627" d="M398.028 423.124l-145.283 4.492a2.553 2.553 0 11-.158-5.106l145.282-4.492a2.553 2.553 0 11.159 5.106z"/><path fill="#E6F85E" d="M340.334 506.184c7.164 3.008 16.202 2.229 23.26-.644 6.759-2.752 14.638-8.737 14.095-16.893-.197-2.971-2.171-5.805-5.474-5.037-3.068.711-4.535 3.806-3.685 6.728 2.297 7.891 13.703 6.653 19.504 4.18a25.478 25.478 0 009.518-7.05c2.372-2.834 4.655-6.615 4.851-10.385.027-.542-.861-.707-1.054-.211-1.024 2.656-1.787 5.258-3.381 7.66-1.653 2.495-3.82 4.657-6.276 6.361-4.874 3.385-12.233 5.678-17.992 3.206-3.051-1.311-6.203-6.093-2.551-8.636 1.48-1.029 3.512-.973 4.54.645.936 1.478.893 3.53.58 5.177-1.276 6.707-7.994 11.29-13.957 13.585a32.95 32.95 0 01-10.57 2.163c-3.867.148-7.461-.588-11.191-1.48-.364-.089-.572.482-.217.631z"/><path fill="#E6F85E" d="M338.345 505.437c6.954 5.108 16.379 5.351 24.073 1.793 3.702-1.713 7.015-4.162 9.882-7.048 2.925-2.946 6.013-6.595 7.088-10.688.753-2.855.177-7.841-3.707-7.967-3.418-.114-7.127 3.201-7.754 6.458-.701 3.646 2.181 6.804 5.44 7.921 3.891 1.334 8.452.518 12.257-.742 8.332-2.759 15.319-9.294 18.427-17.499.296-.782-.868-1.383-1.178-.591-2.311 5.933-6.552 10.918-12.01 14.211-2.78 1.679-5.869 2.892-9.064 3.507-3.658.702-8.158.94-11.011-1.896-3.15-3.13-1.412-7.336 2.068-9.293 2.03-1.142 4.293-1.269 5.288 1.236.809 2.033.225 4.415-.661 6.321-2.842 6.104-8.747 11.562-14.706 14.581-7.47 3.783-16.858 4.035-23.857-.946-.449-.326-1.025.31-.575.642z"/><path fill="#E6F85E" d="M396.057 481.635c1.555-.805 3.005-1.85 4.481-2.79.696-.444 1.396-.887 2.094-1.335.322-.206 1.884-1.48 2.233-1.32.181.082.16 2.174.179 2.449l.179 2.448c.118 1.591-.055 3.553.601 5.026.234.527.961.495 1.114-.074.286-1.055.061-2.145-.026-3.227l-.297-3.669c-.094-1.131.241-3.802-1.041-4.443-1.222-.612-2.997 1.306-3.908 1.917-2.046 1.371-4.244 2.64-6.154 4.189-.509.408-.021 1.121.545.829z"/><path fill="#E6F85E" d="M396.418 481.939c1.473-1.169 2.656-2.764 3.983-4.098 1.542-1.546 3.141-3.057 4.891-4.368l-1.169-.573c.192 2.029.302 4.063.298 6.101-.002 1.98-.49 4.14-.191 6.086.087.566.986.907 1.234.247.663-1.757.525-4.007.541-5.864a53.56 53.56 0 00-.38-6.675c-.079-.671-.846-.892-1.314-.447-1.555 1.485-3.148 2.917-4.637 4.473-1.337 1.4-2.915 2.9-3.816 4.622-.166.328.253.741.56.496z"/><path fill="#E6F85E" d="M395.903 483.474c3.358-3.511 6.697-7.041 10.092-10.515l-1.313-.447c.427 2.243.834 4.486 1.098 6.754.241 2.09.103 4.362.65 6.39.173.641 1.14.525 1.259-.083.42-2.132-.072-4.581-.347-6.713-.287-2.232-.666-4.455-1.195-6.642-.136-.562-.927-.65-1.275-.255-3.215 3.639-6.487 7.225-9.744 10.827-.451.493.316 1.166.775.684z"/><path fill="#000" d="M578.676 292.931c-11.686-9.923-34.296-19.03-34.296-19.03l-19.167-4.587s-.436-5.028-.633-8.826l-.078-1.536c1.89-1.829 3.508-4.299 4.636-7.181 1.31-.265 3.693-1.219 4.858-4.643 1.374-4.05-1.881-3.33-3.009-2.975 1.036-1.38 1.29-5.498 1.05-6.267-.262-.835 4.434-4.828 2.304-6.952-2.131-2.125-14.74-3.758-21.382.746-5.428 3.681-4.842 7.846-4.447 9.245a.41.41 0 00.253.271c-.084.243-.163.493-.239.746-.648-.419-4.072-2.419-4.122 2.133-.039 3.561 1.96 4.958 3.131 5.474.12 3.196.927 6.06 2.268 8.262l-2.207 4.863-2.355 4.719-.921-.088-30.156-4.64-31.999-22.812-.761.741-4.942-3.964s2.837-13.358-5.724-16.139c-8.562-2.782.636 10.51-1.399 10.732-2.036.221-2.558-4.321-5.23-2.438-2.325 1.638 8.594 14.248 11.47 17.494l-.937.914 29.461 27.451 21.95 10.733c1.283.626 2.031 1.952 1.922 3.401l-3.632 48.584c.431.136.955.287 1.554.445l-.116 2.235-3.246 62.31 15.196 34.161-2.512 25.38 1.587.164a321.293 321.293 0 01-1.434 5.69 4.218 4.218 0 00-1.794 2.823 70.172 70.172 0 01-1.005 5.323c-.89 3.821-1.299 14.251 8.141 13.96 9.438-.293 7.324-6.841 6.023-9.39-1.296-2.546 3.29-9.073.148-12.169l.03-5.195 1.514.157.409-1.767.604 1.328 2.247-1.415a203.387 203.387 0 002.308 5.301c-.755.349-1.304.557-1.454.571 0 0-1.324 1.337 2.118 4.224 3.443 2.886 1.474 10.28.397 13.161-1.076 2.881.421 7.641 7.845 3.572 6.424-3.52 7.368-24.587 7.506-30.193.021-.84-.568-1.528-1.402-1.652a22.027 22.027 0 00-3.471-.223c-1.94.022-2.62.794-3.217 2.159l-1.294-2.806.632-.398-6.765-19.899 20.088-87.214 1.545-6.697c.326-.202.611-.422.845-.663.026.012.049.026.075.04 2.245 1.011 6.494 1.262 8.285-.044 2.794-2.046 6.552-9.406 6.552-9.406l.1-.1 2.833-2.837c-1.594-1.352-4.503-3.73-6.003-4.956-.285.363-.554.715-.814 1.054-1.435 1.87-2.464 3.282-2.871 3.703-.776.796-5.195 2.085-7.507 3.345.646-13.094 5.141-34.287 5.141-34.287l17.931 5.922-12.835 19.479s7.665 6.249 8.059 6.701c.04.047 14.696-15.853 22.745-24.59 3.26-3.538 3.067-8.808-.376-11.731l-.009-.007zm-37.159 40.635c.877 1.56-1.385 2.081-3.481 3.431a35.51 35.51 0 01-.091-3.496c1.203-.251 2.792-1.318 3.574.065h-.002z" opacity=".32" style="mix-blend-mode:multiply"/><path fill="#fff" d="M509.812 458.634c.204.358 5.478 11.641 5.862 11.095.385-.547 7.784-7.686 7.784-7.686l-5.55-10.634-8.094 7.225h-.002zm-13.299 2.406c.049.351-1.444 8.138-1.444 8.138l11.872 1.225-.572-9.334-9.856-.029z"/><path fill="#464862" d="M520.59 455.001l-11.608 7.763-.691-1.336-.287 1.781-13.208-1.362.786-25.56-17.39-34.386-.973-62.747-.067-4.246 25.538 3.014 25.347.294-1.43 8.918-14.073 87.837 8.056 20.03z"/><path fill="#090A12" d="M501.83 362.406l-4.115 39.897 2.552 7.053 1.563-46.95zm26.207-24.19l-1.43 8.918c-13.609 4.403-42.738-5.573-49.388-7.98l-.066-4.248 25.537 3.014 25.347.294v.002z"/><path fill="url(#f)" d="M511.613 267.911l19.342 4.605s23.066 9.154 35.341 19.138c3.615 2.94 4.161 8.246 1.163 11.812-7.405 8.806-20.886 24.824-20.929 24.777-.42-.455-8.454-6.742-8.454-6.742l11.432-19.624-18.204-5.95s-4.395 30.894-2.19 41.308c2.206 10.413-44.472 2.051-53.503-.778l.333-48.924a3.774 3.774 0 00-2.138-3.424l-22.521-10.791-31.103-27.621 6.978-7.394 33.313 22.947 30.258 4.651 20.884 2.01h-.002z"/><path fill="#000" d="M512.36 467.251c.581-.055 7.059-3.093 8.185-6.198 1.127-3.107.973-4.963 3.969-5a21.883 21.883 0 013.461.222 1.755 1.755 0 011.504 1.663c.242 5.645.723 26.859-5.418 30.408-7.1 4.102-8.906-.689-8.032-3.591.875-2.902 2.335-10.348-1.279-13.253-3.614-2.904-2.387-4.251-2.387-4.251h-.003zm-18.609 3.334a3.917 3.917 0 012.613-3.383c2.67-.933 8.25-.952 10.43 1.063 3.364 3.11-.771 9.703.691 12.271 1.463 2.568 4.004 9.16-5.349 9.46-9.354.302-9.652-10.203-9.023-14.052.317-1.944.517-3.902.638-5.361v.002z"/><path fill="#FDC8AA" d="M427.247 239.664l-5.97-4.603s1.918-13.453-6.771-16.247c-8.688-2.794 1.342 10.584-.667 10.808-2.009.224-2.832-4.349-5.359-2.451-2.528 1.898 13.297 18.376 13.297 18.376l5.47-5.88v-.003zm118.125 87.615l-2.622 2.858-.094.101s-3.235 7.413-5.872 9.475c-1.69 1.318-5.924 1.067-8.222.051-1.287-.569-1.965-1.384-1.228-2.301.452-.569 1.004-1.022 1.567-1.406 1.992-1.363 4.207-1.887 3.23-3.459-.871-1.395-2.378-.315-3.556-.064-.522.113-.988.058-1.299-.45-.315-.502.255-1.059 1.23-1.621 2.209-1.271 6.515-2.574 7.233-3.376.376-.424 1.302-1.847 2.602-3.73.235-.342.478-.696.739-1.063 1.571 1.232 4.619 3.626 6.294 4.987l-.002-.002zm-33.76-59.368s-2.428 10.974-11.671 9.882c-9.244-1.093-8.294-11.804-8.294-11.804l2.022-4.754 2.625-6.897 13.728 1.416c-.007.067.15 1.44.366 3.27.452 3.827 1.224 8.887 1.224 8.887z"/><path fill="#EFA37D" d="M510.39 259.024c-2.476 2.964-9.068 9.142-16.719 2.211l2.625-6.897 13.728 1.416c-.007.067.15 1.44.366 3.27z"/><path fill="#FDC8AA" d="M515.324 245.431c-.944 9.157-6.767 16.062-13.006 15.418-6.239-.643-10.53-8.589-9.586-17.748.945-9.16 6.479-13.266 12.718-12.622 6.24.643 10.819 5.795 9.874 14.952z"/><path fill="#FDC8AA" d="M515.29 242.698s4.86-2.035 3.549 2.864c-1.312 4.899-5.413 4.783-5.413 4.783l1.865-7.649-.001.002z"/><path fill="#EFA37D" d="M515.729 245.033s1.011-1.01 1.596-.451c.585.559-.64 3.22-1.131 3.457-.492.237 1.153-2.496.566-2.747-.589-.254-1.031-.259-1.031-.259z"/><path fill="#FDC8AA" d="M493.304 240.431s-4.343-2.984-4.058 2.079c.284 5.065 4.322 5.787 4.322 5.787l-.264-7.869v.003z"/><path fill="#EFA37D" d="M492.396 242.626s-.784-1.195-1.471-.767c-.686.428-.031 3.283.402 3.615.433.332-.62-2.679.007-2.805.628-.128 1.062-.043 1.062-.043z"/><path fill="url(#g)" d="M493.745 239.584a.442.442 0 01-.631-.247c-.488-1.409-1.349-5.604 3.791-9.313 6.291-4.54 18.925-2.905 21.182-.767 2.257 2.138-2.134 6.159-1.819 7.003.315.843.32 5.698-.892 6.622 0 0-8.522-.308-11.916-3.752-2.877-2.922-8.178-.38-9.718.456l.003-.002z"/><path fill="#090A12" d="M495.58 436.287l12.709 25.141-.287 1.781-12.735-16.676.313-10.246z"/><path fill="#EFA37D" d="M545.372 327.279l-2.622 2.858c-1.245-1.936-3.441-5.341-4.411-6.78.235-.342.478-.697.738-1.063 1.572 1.231 4.62 3.626 6.295 4.987v-.002z"/><path fill="#000" d="M431.237 132.168l-.859-18.524a4.277 4.277 0 00-4.47-4.073l-229.986 10.682a4.278 4.278 0 00-4.074 4.47l.862 18.523a4.275 4.275 0 004.469 4.073l229.987-10.682a4.277 4.277 0 004.073-4.469h-.002z" opacity=".32" style="mix-blend-mode:multiply"/><path fill="url(#h)" d="M421.105 127.185l-229.332 20.366a4.275 4.275 0 01-4.637-3.881l-1.64-18.471a4.274 4.274 0 013.88-4.637l229.333-20.365a4.275 4.275 0 014.637 3.88l1.64 18.472a4.274 4.274 0 01-3.881 4.636z"/><rect width="6.811" height="6.811" x="201.684" y="127.896" fill="#F16C7A" rx="3.405" transform="rotate(-4.46 201.684 127.896)"/><rect width="6.811" height="6.811" x="212.775" y="126.97" fill="#49C3E8" rx="3.405" transform="rotate(-4.46 212.775 126.97)"/><rect width="6.811" height="6.811" x="223.865" y="126.108" fill="#FFD160" rx="3.405" transform="rotate(-4.46 223.865 126.108)"/><g filter="url(#i)"><rect width="80" height="80" x="94" y="156" fill="url(#j)" rx="40"/><rect width="79" height="79" x="94.5" y="156.5" stroke="#11121C" rx="39.5"/></g><g clip-path="url(#k)"><path stroke="#11121C" stroke-linecap="round" stroke-linejoin="round" stroke-width="3" d="M126.23 208.362a2.668 2.668 0 003.811 1.798 2.664 2.664 0 001.14-1.114l4.645-6.873 10.904 10.905a2.385 2.385 0 001.677.694 2.37 2.37 0 001.677-.694l2.326-2.327a2.376 2.376 0 00.514-2.584 2.365 2.365 0 00-.514-.769l-10.904-10.905 6.918-4.644a2.667 2.667 0 00-.687-4.951l-30.182-8.676 8.675 30.14z"/></g><defs><linearGradient id="b" x1="172.55" x2="448.898" y1="141.714" y2="399.769" gradientUnits="userSpaceOnUse"><stop stop-color="#00E3F2"/><stop offset=".287" stop-color="#0000F2"/><stop offset=".641" stop-color="#F87D7D"/><stop offset="1" stop-color="#FF2828"/></linearGradient><linearGradient id="c" x1="337.882" x2="337.882" y1="-145.146" y2="525.424" gradientUnits="userSpaceOnUse"><stop stop-color="#ECF3FE" stop-opacity="0"/><stop offset=".339" stop-color="#ECF3FE" stop-opacity=".708"/><stop offset="1" stop-color="#ECF3FE" stop-opacity="0"/></linearGradient><linearGradient id="d" x1="437.89" x2="244.632" y1="340.736" y2="250.816" gradientUnits="userSpaceOnUse"><stop stop-color="#383947"/><stop offset="1" stop-color="#222535"/></linearGradient><linearGradient id="e" x1="456.5" x2="309.831" y1="301.5" y2="233.343" gradientUnits="userSpaceOnUse"><stop stop-color="#383947"/><stop offset="1" stop-color="#222535"/></linearGradient><linearGradient id="f" x1="569.924" x2="499.488" y1="304.001" y2="242.747" gradientUnits="userSpaceOnUse"><stop stop-color="#383947"/><stop offset="1" stop-color="#090A12"/></linearGradient><linearGradient id="g" x1="518.373" x2="507.046" y1="236.149" y2="226.033" gradientUnits="userSpaceOnUse"><stop stop-color="#383947"/><stop offset="1" stop-color="#090A12"/></linearGradient><linearGradient id="h" x1="550.415" x2="130.989" y1="40.276" y2="135.471" gradientUnits="userSpaceOnUse"><stop stop-color="#4B4D5E"/><stop offset="1" stop-color="#11121C"/></linearGradient><linearGradient id="j" x1="134" x2="134" y1="156" y2="236" gradientUnits="userSpaceOnUse"><stop stop-color="#F4FFA2"/><stop offset="1" stop-color="#B9D100"/></linearGradient><filter id="a" width="557.258" height="624.841" x=".039" y=".63" color-interpolation-filters="sRGB" filterUnits="userSpaceOnUse"><feFlood flood-opacity="0" result="BackgroundImageFix"/><feBlend in="SourceGraphic" in2="BackgroundImageFix" result="shape"/><feGaussianBlur result="effect1_foregroundBlur_229_185" stdDeviation="50"/></filter><filter id="i" width="180" height="180" x="44" y="124" color-interpolation-filters="sRGB" filterUnits="userSpaceOnUse"><feFlood flood-opacity="0" result="BackgroundImageFix"/><feColorMatrix in="SourceAlpha" result="hardAlpha" values="0 0 0 0 0 0 0 0 0 0 0 0 0 0 0 0 0 0 127 0"/><feOffset dy="18"/><feGaussianBlur stdDeviation="25"/><feComposite in2="hardAlpha" operator="out"/><feColorMatrix values="0 0 0 0 0.0666667 0 0 0 0 0.0705882 0 0 0 0 0.109804 0 0 0 0.3 0"/><feBlend in2="BackgroundImageFix" result="effect1_dropShadow_229_185"/><feBlend in="SourceGraphic" in2="effect1_dropShadow_229_185" result="shape"/></filter><clipPath id="k"><path fill="#fff" d="M108.666 169.333h53.333v53.333h-53.333z"/></clipPath></defs></svg>