<svg xmlns="http://www.w3.org/2000/svg" fill="none" viewBox="0 0 598 626"><g filter="url(#a)" opacity=".35"><path fill="url(#b)" d="M281.777 153.952c15.497-85.737 118.163-44.272 138.246-36.349 1.743 1.757 32.595.581 69.75 123.466 37.156 122.886-77.913 151.649-125.831 138.554-47.919-13.096-39.407 42.351-85.107 121.115-45.701 78.764-129.617-49.855-138.514-117.406-8.897-67.551 94.766-36.276 120.049-42.262 25.283-5.987 5.909-101.381 21.407-187.118z"/></g><path fill="url(#c)" fill-opacity=".05" d="M257.07 506.424C122.826 506.424 14 400.668 14 270.212S122.826 34 257.07 34s243.07 105.756 243.07 236.212-108.826 236.212-243.07 236.212z"/><path fill="url(#d)" d="M357.046 52.89l-309.32 73.791a8 8 0 00-5.925 9.638l87.25 365.737a7.999 7.999 0 009.638 5.925l309.32-73.79a8.001 8.001 0 005.925-9.638l-87.25-365.737a8 8 0 00-9.638-5.926z"/><rect width="90.752" height="6.562" x="81.845" y="192.132" fill="#D7E4F9" rx="3.281" transform="rotate(-13.418 81.845 192.132)"/><rect width="144" height="7" x="90.992" y="230.475" fill="#D7E4F9" rx="3.5" transform="rotate(-13.418 90.992 230.475)"/><rect width="110.71" height="6.562" x="94.787" y="246.383" fill="#D7E4F9" rx="3.281" transform="rotate(-13.418 94.787 246.383)"/><rect width="129" height="9" x="86.583" y="211.993" fill="#D7E4F9" rx="4.5" transform="rotate(-13.418 86.583 211.993)"/><rect width="100.611" height="6.562" x="102.64" y="278.238" fill="#D7E4F9" rx="3.281" transform="rotate(-13.418 102.64 278.238)"/><rect width="293.084" height="7.655" x="111.775" y="316.533" fill="#D7E4F9" rx="3.828" transform="rotate(-13.418 111.775 316.533)"/><rect width="293" height="7" x="115.821" y="334.554" fill="#D7E4F9" rx="3.5" transform="rotate(-13.418 115.821 334.554)"/><rect width="293" height="9" x="107.235" y="298.564" fill="#D7E4F9" rx="4.5" transform="rotate(-13.418 107.235 298.564)"/><rect width="100.611" height="6.562" x="123.702" y="366.529" fill="#D7E4F9" rx="3.281" transform="rotate(-13.418 123.702 366.529)"/><rect width="263.557" height="7.655" x="132.838" y="404.824" fill="#D7E4F9" rx="3.828" transform="rotate(-13.418 132.838 404.824)"/><rect width="263.557" height="7.655" x="142.227" y="444.182" fill="#D7E4F9" rx="3.828" transform="rotate(-13.418 142.227 444.182)"/><rect width="227.468" height="8.749" x="128.524" y="386.74" fill="#D7E4F9" rx="4.374" transform="rotate(-13.418 128.524 386.74)"/><rect width="227.468" height="8.749" x="137.913" y="426.099" fill="#D7E4F9" rx="4.374" transform="rotate(-13.418 137.913 426.099)"/><rect width="79" height="79" x="424.5" y="139.5" fill="url(#e)" stroke="#11121C" rx="39.5"/><g stroke="#11121C" stroke-linecap="round" stroke-linejoin="round" stroke-width="2.5" clip-path="url(#f)"><path d="M460 179h10m-5-5v10m0-20c12 0 15 3 15 15s-3 15-15 15-15-3-15-15 3-15 15-15z"/></g><path fill="#fff" d="M70.149 453.136c-9.908-5.557-17.097-16.706-20.084-27.461-2.86-10.3-2.969-24.819 6.983-31.569 3.625-2.46 8.682-2.742 10.75 1.769 1.922 4.189-.357 8.685-4.51 10.344-11.215 4.485-19.993-9.815-22.319-18.756a37.41 37.41 0 01-.34-17.376c1.165-5.304 3.508-11.363 7.708-14.999.605-.523 1.592.355 1.189 1.027-2.166 3.585-4.502 6.821-5.864 10.836-1.413 4.167-1.983 8.626-1.762 13.006.438 8.694 4.367 19.272 12.393 23.69 4.255 2.34 12.628 1.656 12.308-4.863-.131-2.641-2.016-4.94-4.814-4.663-2.553.255-4.898 2.161-6.528 4.012-6.643 7.542-5.945 19.451-3.269 28.418a48.003 48.003 0 006.956 14.17c3.292 4.603 7.364 8.09 11.74 11.594.43.339-.047 1.097-.537.821z"/><path fill="#fff" d="M72.795 454.757c-12.156-3.414-20.879-14.086-23.639-26.195-1.327-5.827-1.452-11.871-.67-17.795.8-6.045 2.27-12.913 6.057-17.859 2.64-3.452 8.942-7.296 12.567-2.923 3.193 3.847 2.668 11.132-.552 14.802-3.604 4.109-9.85 3.634-14.065.879-5.032-3.289-8.17-9.297-10.116-14.834-4.26-12.125-2.932-26.109 3.808-37.123.643-1.049 2.382-.248 1.74.827-4.816 8.037-6.804 17.447-5.738 26.733.542 4.731 1.9 9.398 4.047 13.645 2.462 4.864 6.216 10.278 12.062 11.01 6.454.808 9.78-5.005 8.935-10.797-.493-3.378-2.372-6.108-6.171-4.992-3.083.904-5.326 3.734-6.745 6.482-4.538 8.806-5.586 20.566-3.752 30.183 2.298 12.055 10.414 23.131 22.463 26.712.78.224.559 1.466-.23 1.245z"/><path fill="#fff" d="M48.736 366.535c-.459-2.524-.546-5.146-.776-7.7-.108-1.207-.22-2.417-.326-3.628-.05-.559.031-3.516-.468-3.775-.256-.136-2.666 1.782-3.002 2.008-1 .668-2 1.336-3.002 2.008-1.952 1.303-4.074 3.277-6.37 3.852-.822.207-1.437-.662-.913-1.354.97-1.285 2.435-2.011 3.77-2.889 1.506-.993 3.016-1.983 4.523-2.975 1.397-.916 4.197-3.719 6.088-2.817 1.806.858 1.169 4.644 1.276 6.25.242 3.604.736 7.292.65 10.901a.728.728 0 01-1.45.119z"/><path fill="#fff" d="M48.057 366.392c.039-2.759.83-5.569 1.19-8.31.413-3.179.736-6.395.69-9.602l1.711.833a93.854 93.854 0 00-7.347 5.174c-2.296 1.793-4.367 4.31-6.894 5.726-.734.411-1.935-.319-1.392-1.203 1.447-2.355 4.181-4.23 6.323-5.93a79.325 79.325 0 018.087-5.599c.85-.515 1.794.172 1.696 1.114-.331 3.141-.567 6.277-1.04 9.405-.426 2.812-.754 5.992-1.946 8.591-.232.488-1.086.378-1.078-.199z"/><path fill="#fff" d="M46.74 368.378c1.067-7.055 2.174-14.107 3.166-21.174l1.695 1.114c-2.986 1.536-5.954 3.093-8.823 4.841-2.641 1.612-5.155 3.827-8 5.029-.898.381-1.63-.842-1.03-1.529 2.098-2.414 5.382-4.062 8.103-5.673 2.846-1.686 5.767-3.26 8.778-4.626.775-.352 1.585.483 1.438 1.241-1.344 7.008-2.575 14.033-3.84 21.054-.168.968-1.636.69-1.487-.277z"/><g filter="url(#g)"><rect width="138.398" height="92.79" x="219.024" y="152.7" fill="#fff" rx="12" transform="rotate(-13.245 219.024 152.7)"/><rect width="137.398" height="91.79" x="219.625" y="153.072" stroke="#3442F4" rx="11.5" transform="rotate(-13.245 219.625 153.072)"/></g><path fill="#3761DA" d="M263.764 219.223l14.952-52.695 28.2 24.794 9.157-18.853 26.839 28.125-79.148 18.629zm42.461-62.875a6.231 6.231 0 01-4.636 7.491 6.23 6.23 0 01-7.491-4.637 6.224 6.224 0 014.636-7.491c3.351-.8 6.702 1.284 7.491 4.637z"/><path fill="#003889" d="M406.761 103.312l-5.065-26.06a6.123 6.123 0 00-7.178-4.84l-323.557 62.9a6.124 6.124 0 00-4.841 7.177l5.067 26.06a6.123 6.123 0 007.178 4.841l323.557-62.902a6.123 6.123 0 004.841-7.177h-.002z" opacity=".18" style="mix-blend-mode:multiply"/><path fill="url(#h)" d="M391.375 98.36l-320.62 76.48a6.12 6.12 0 01-7.374-4.533l-6.16-25.825a6.12 6.12 0 014.533-7.374l320.62-76.482a6.12 6.12 0 017.374 4.534l6.16 25.824a6.12 6.12 0 01-4.533 7.374z"/><rect width="9.751" height="9.751" x="80.712" y="144.942" fill="#F16C7A" rx="4.875" transform="rotate(-12.802 80.712 144.942)"/><rect width="9.751" height="9.751" x="96.228" y="141.326" fill="#49C3E8" rx="4.875" transform="rotate(-12.802 96.228 141.326)"/><rect width="9.751" height="9.751" x="111.759" y="137.803" fill="#FFD160" rx="4.875" transform="rotate(-12.802 111.759 137.803)"/><path fill="#156A97" d="M458.355 506H287.652c-3.743 0-6.873-2.685-6.991-5.998l-8.039-224.238c-.119-3.313 2.819-5.998 6.562-5.998h170.704c3.743 0 6.874 2.685 6.992 5.998l8.039 224.238c.118 3.313-2.821 5.998-6.564 5.998z" opacity=".2"/><path fill="url(#i)" d="M309.736 262.708h-16.781c-3.742 0-6.778 2.766-6.778 6.177v230.938c0 3.411 3.036 6.177 6.778 6.177h16.781V262.708z"/><path fill="url(#j)" d="M479 268.883v230.94c0 .419-.045.829-.132 1.222-.625 2.825-3.362 4.953-6.644 4.953H301.52c-3.745 0-6.78-2.764-6.78-6.175v-230.94c0-3.411 3.033-6.178 6.78-6.178h170.702c3.743.002 6.778 2.769 6.778 6.178z"/><path fill="url(#k)" d="M347.725 307.418l-15.161-13.505-15.163 13.505v-44.71h30.324v44.71z"/><path fill="#BDD1F2" d="M450.709 299.11h-82.698a4 4 0 00-4 4v.31a4 4 0 004 4h82.698a4 4 0 004-4v-.31a4 4 0 00-4-4zm.156 30.884H321.02a4 4 0 00-4 4v.31a4 4 0 004 4h129.845a4 4 0 004-4v-.31a4 4 0 00-4-4zM401.498 361h-80.861a4 4 0 000 8h80.861a4 4 0 000-8zm49.367 0h-32.591a4 4 0 000 8h32.591a4 4 0 000-8zm-82.279 31h-47.949a4 4 0 000 8h47.949a4 4 0 000-8zm82.279 0h-60.017a4 4 0 000 8h60.017a4 4 0 000-8zm-.156 30.647H321.02a4 4 0 00-4 4v.31a4 4 0 004 4h129.689a4 4 0 004-4v-.31a4 4 0 00-4-4zm-84.824 30.884H321.02a4 4 0 00-4 4v.31a4 4 0 004 4h44.865a4 4 0 004-4v-.31a4 4 0 00-4-4z"/><defs><linearGradient id="b" x1="424.528" x2="148.179" y1="141.714" y2="399.769" gradientUnits="userSpaceOnUse"><stop stop-color="#00E3F2"/><stop offset=".287" stop-color="#0000F2"/><stop offset=".641" stop-color="#F87D7D"/><stop offset="1" stop-color="#FF2828"/></linearGradient><linearGradient id="c" x1="257.07" x2="257.07" y1="-164.146" y2="506.424" gradientUnits="userSpaceOnUse"><stop stop-color="#ECF3FE" stop-opacity="0"/><stop offset=".339" stop-color="#ECF3FE" stop-opacity=".708"/><stop offset="1" stop-color="#ECF3FE" stop-opacity="0"/></linearGradient><linearGradient id="d" x1="399.643" x2="248.351" y1="-180.362" y2="503.875" gradientUnits="userSpaceOnUse"><stop stop-color="#fff"/><stop offset="1" stop-color="#fff"/></linearGradient><linearGradient id="e" x1="464" x2="464" y1="139" y2="219" gradientUnits="userSpaceOnUse"><stop stop-color="#F4FFA2"/><stop offset="1" stop-color="#B9D100"/></linearGradient><linearGradient id="h" x1="556.491" x2="-17.853" y1="-51.607" y2="170.356" gradientUnits="userSpaceOnUse"><stop stop-color="#4B4D5E"/><stop offset="1" stop-color="#11121C"/></linearGradient><linearGradient id="i" x1="297.957" x2="297.957" y1="262.708" y2="506" gradientUnits="userSpaceOnUse"><stop stop-color="#3442F4"/><stop offset="1" stop-color="#3A7EC1"/></linearGradient><linearGradient id="j" x1="479" x2="401.567" y1="193.5" y2="509.598" gradientUnits="userSpaceOnUse"><stop stop-color="#E6EDFF"/><stop offset="1" stop-color="#fff"/></linearGradient><linearGradient id="k" x1="332.563" x2="332.563" y1="262.708" y2="307.418" gradientUnits="userSpaceOnUse"><stop stop-color="#3442F4"/><stop offset="1" stop-color="#3A7EC1"/></linearGradient><filter id="a" width="557.257" height="624.841" x="39.781" y=".629" color-interpolation-filters="sRGB" filterUnits="userSpaceOnUse"><feFlood flood-opacity="0" result="BackgroundImageFix"/><feBlend in="SourceGraphic" in2="BackgroundImageFix" result="shape"/><feGaussianBlur result="effect1_foregroundBlur_327_134" stdDeviation="50"/></filter><filter id="g" width="163.121" height="129.175" x="209.451" y="123.419" color-interpolation-filters="sRGB" filterUnits="userSpaceOnUse"><feFlood flood-opacity="0" result="BackgroundImageFix"/><feColorMatrix in="SourceAlpha" result="hardAlpha" values="0 0 0 0 0 0 0 0 0 0 0 0 0 0 0 0 0 0 127 0"/><feOffset dx="-12" dy="12"/><feComposite in2="hardAlpha" operator="out"/><feColorMatrix values="0 0 0 0 0.227451 0 0 0 0 0.494118 0 0 0 0 0.756863 0 0 0 0.16 0"/><feBlend in2="BackgroundImageFix" result="effect1_dropShadow_327_134"/><feBlend in="SourceGraphic" in2="effect1_dropShadow_327_134" result="shape"/></filter><clipPath id="f"><path fill="#fff" d="M445 159h40v40h-40z"/></clipPath></defs></svg>