<svg xmlns="http://www.w3.org/2000/svg" fill="none" viewBox="0 0 568 612"><g filter="url(#a)" opacity=".35"><path fill="url(#b)" d="M259.233 152.325c15.003-83.002 114.393-42.859 133.835-35.19 1.688 1.701 31.555.563 67.525 119.528 35.97 118.965-75.427 146.81-121.817 134.132-46.39-12.677-38.15 41-82.392 117.251s-125.481-48.264-134.094-113.66c-8.612-65.396 91.743-35.118 116.219-40.913 24.476-5.796 5.721-98.147 20.724-181.148z"/></g><path fill="url(#c)" fill-opacity=".05" d="M235.314 500.327C105.354 500.327 0 397.946 0 271.652 0 145.358 105.354 42.976 235.314 42.976c129.961 0 235.315 102.382 235.315 228.676 0 126.294-105.354 228.675-235.315 228.675z"/><path fill="url(#d)" stroke="#000" d="M61.245 98.658H368.59a7.5 7.5 0 017.5 7.5v363.493a7.5 7.5 0 01-7.5 7.5H61.245a7.5 7.5 0 01-7.5-7.5V106.158a7.5 7.5 0 017.5-7.5z"/><rect width="87.873" height="6.352" x="78.654" y="167.455" fill="#121526" fill-opacity=".8" rx="3.176"/><rect width="229.739" height="6.352" x="78.654" y="205.568" fill="#121526" fill-opacity=".8" rx="3.176"/><rect width="177.862" height="6.352" x="78.654" y="221.449" fill="#121526" fill-opacity=".8" rx="3.176"/><rect width="206.447" height="8.47" x="78.654" y="187.57" fill="#121526" fill-opacity=".8" rx="4.235"/><rect width="97.401" height="6.352" x="78.654" y="253.21" fill="#121526" fill-opacity=".7" rx="3.176"/><rect width="283.733" height="7.411" x="78.654" y="291.323" fill="#121526" fill-opacity=".7" rx="3.705"/><rect width="253.03" height="6.352" x="78.654" y="309.321" fill="#121526" fill-opacity=".7" rx="3.176"/><rect width="236.091" height="8.47" x="78.654" y="273.326" fill="#121526" fill-opacity=".7" rx="4.235"/><g fill="#121526" opacity=".6"><rect width="97.401" height="6.352" x="78.654" y="341.083" rx="3.176"/><rect width="255.148" height="7.411" x="78.654" y="379.196" rx="3.705"/><rect width="255.148" height="7.411" x="78.654" y="418.368" rx="3.705"/><rect width="220.21" height="8.47" x="78.654" y="361.198" rx="4.235"/><rect width="220.21" height="8.47" x="78.654" y="400.37" rx="4.235"/></g><path fill="#000" d="M403.94 155.994l1.085-25.678a5.927 5.927 0 00-5.671-6.171L80.539 110.693a5.928 5.928 0 00-6.171 5.671l-1.082 25.678a5.927 5.927 0 005.671 6.171l318.815 13.452a5.929 5.929 0 006.171-5.671h-.003z" opacity=".32" style="mix-blend-mode:multiply"/><path fill="url(#e)" d="M390.564 147.874l-319.1-.005a5.924 5.924 0 01-5.925-5.925l.001-25.702a5.925 5.925 0 015.925-5.926l319.1.005a5.925 5.925 0 015.926 5.925l-.001 25.702a5.926 5.926 0 01-5.926 5.926z"/><rect width="9.44" height="9.44" x="87.558" y="121.951" fill="#F16C7A" rx="4.72" transform="rotate(.615 87.558 121.951)"/><rect width="9.44" height="9.44" x="102.981" y="122.031" fill="#49C3E8" rx="4.72" transform="rotate(.615 102.981 122.031)"/><rect width="9.44" height="9.44" x="118.397" y="122.202" fill="#FFD160" rx="4.72" transform="rotate(.615 118.397 122.202)"/><rect width="334.609" height="195.919" x="178.949" y="196.54" fill="url(#f)" stroke="#000" rx="7.5"/><path fill="#121526" d="M200.125 236.51v-5.952h-3.456v-3.456h3.456v-3.584h-3.456v-3.456h3.456v-5.952h3.648v5.952h3.584v-5.952h3.648v5.952h3.456v3.456h-3.456v3.584h3.456v3.456h-3.456v5.952h-3.648v-5.952h-3.584v5.952h-3.648zm3.648-9.408h3.584v-3.584h-3.584v3.584zm22.327 9.856c-2.645 0-4.768-.725-6.368-2.176-1.6-1.472-2.4-3.69-2.4-6.656v-5.632c0-2.88.8-5.066 2.4-6.56 1.6-1.514 3.723-2.272 6.368-2.272 2.667 0 4.79.758 6.368 2.272 1.6 1.494 2.4 3.68 2.4 6.56v5.632c0 2.966-.8 5.184-2.4 6.656-1.578 1.451-3.701 2.176-6.368 2.176zm0-3.648c1.6 0 2.774-.437 3.52-1.312.768-.874 1.152-2.122 1.152-3.744v-5.952c0-1.642-.426-2.88-1.28-3.712-.832-.853-1.962-1.28-3.392-1.28-1.472 0-2.624.438-3.456 1.312-.81.875-1.216 2.102-1.216 3.68v5.952c0 1.686.384 2.955 1.152 3.808.79.832 1.963 1.248 3.52 1.248zm18.638 3.2v-19.392h-.576l-3.008 7.104h-4.288l4.576-10.112h7.392v22.4h-4.096zm-16.765 76.503H202.8v56.655h25.173v-56.655z"/><path fill="#121526" fill-opacity=".4" d="M279.897 279.31h-25.173v90.358h25.173V279.31z"/><path fill="#121526" d="M331.818 259.468h-25.173v110.2h25.173v-110.2z"/><path fill="#121526" fill-opacity=".4" d="M383.742 307.419h-25.174v62.249h25.174v-62.249z"/><path fill="#121526" d="M435.667 271.46h-25.173v98.208h25.173V271.46z"/><path fill="#121526" fill-opacity=".4" d="M487.591 234.154h-25.173v135.514h25.173V234.154z"/><g filter="url(#g)"><rect width="77.448" height="77.448" x="396.918" y="153.339" fill="url(#h)" rx="38.724"/><rect width="76.448" height="76.448" x="397.418" y="153.839" stroke="#11121C" rx="38.224"/></g><g stroke="#11121C" stroke-linecap="round" stroke-linejoin="round" stroke-width="3" clip-path="url(#i)"><path d="M434.834 206.584h-8.875a3.227 3.227 0 01-3.227-3.227v-22.589c0-.855.34-1.676.946-2.281a3.223 3.223 0 012.281-.945h19.362a3.223 3.223 0 013.227 3.226v9.681m-17.747 11.295h3.227"/><path d="M440.482 201.744a4.84 4.84 0 109.68 0 4.84 4.84 0 00-9.68 0z"/></g><path fill="#E6F85E" d="M394.202 461.459c7.112 1.451 15.246-.937 21.183-4.89 5.685-3.787 11.803-10.762 9.81-18.183-.726-2.704-3.053-4.953-5.937-3.635-2.68 1.223-3.455 4.349-2.141 6.886 3.551 6.853 13.769 3.605 18.628.253a23.913 23.913 0 007.423-8.26c1.652-3.052 3.05-6.961 2.538-10.473-.074-.506-.918-.494-1.004 0-.45 2.638-.672 5.178-1.691 7.689-1.057 2.605-2.644 5-4.58 7.025-3.844 4.022-10.163 7.496-15.889 6.279-3.035-.645-6.799-4.473-3.921-7.492 1.167-1.223 3.038-1.547 4.276-.244 1.128 1.19 1.466 3.09 1.481 4.667.062 6.422-5.25 11.889-10.29 15.107a30.64 30.64 0 01-9.283 3.947c-3.514.851-6.94.836-10.52.702-.349-.015-.435.551-.083.622z"/><path fill="#E6F85E" d="M392.245 461.138c7.305 3.426 15.981 1.909 22.374-2.793 3.076-2.264 5.661-5.134 7.757-8.326 2.138-3.257 4.297-7.192 4.531-11.166.165-2.772-1.277-7.264-4.856-6.663-3.151.527-5.94 4.269-5.916 7.389.026 3.492 3.245 5.871 6.434 6.3 3.808.511 7.835-1.083 11.089-2.948 7.124-4.084 12.323-11.401 13.665-19.542.127-.777-1.048-1.116-1.188-.328-1.027 5.899-3.997 11.28-8.391 15.325-2.239 2.061-4.844 3.751-7.657 4.908-3.222 1.324-7.299 2.374-10.432.285-3.458-2.305-2.638-6.505.19-8.953 1.649-1.427 3.698-1.963 5.069.164 1.113 1.725 1.016 4.03.554 5.952-1.484 6.154-5.89 12.278-10.793 16.163-6.147 4.869-14.699 6.835-22.021 3.534-.471-.217-.883.476-.409.699z"/><path fill="#E6F85E" d="M440.73 428.526c1.276-1.029 2.413-2.261 3.592-3.4.556-.538 1.116-1.077 1.672-1.618.258-.25 1.454-1.713 1.804-1.63.18.041.545 1.975.613 2.225l.613 2.225c.399 1.445.601 3.286 1.471 4.524.311.443.971.279 1.007-.274.068-1.026-.338-1.99-.616-2.971-.314-1.11-.631-2.219-.944-3.329-.294-1.026-.477-3.551-1.768-3.905-1.232-.339-2.505 1.758-3.228 2.489-1.622 1.642-3.402 3.219-4.868 5a.466.466 0 00.652.664z"/><path fill="#E6F85E" d="M441.12 428.74c1.134-1.351 1.925-3.04 2.896-4.515 1.128-1.711 2.315-3.4 3.677-4.932l-1.175-.312a60.218 60.218 0 011.392 5.571c.361 1.826.31 3.908.941 5.648.184.506 1.069.655 1.176 0 .284-1.743-.255-3.792-.581-5.508a50.795 50.795 0 00-1.572-6.086c-.195-.604-.939-.667-1.285-.17-1.152 1.657-2.348 3.272-3.426 4.982-.968 1.538-2.138 3.213-2.647 4.968-.092.333.367.636.604.354z"/><path fill="#E6F85E" d="M440.926 430.251c2.431-3.858 4.841-7.731 7.314-11.562l-1.285-.17c.802 1.99 1.587 3.983 2.244 6.027.604 1.883.894 4.003 1.768 5.773.275.559 1.14.274 1.137-.309-.006-2.044-.906-4.212-1.549-6.128-.672-2.004-1.427-3.985-2.312-5.904-.228-.494-.969-.428-1.214 0-2.277 3.95-4.617 7.862-6.938 11.785-.323.538.503 1.017.835.488z"/><defs><linearGradient id="b" x1="397.43" x2="129.898" y1="140.477" y2="390.299" gradientUnits="userSpaceOnUse"><stop stop-color="#00E3F2"/><stop offset=".287" stop-color="#0000F2"/><stop offset=".641" stop-color="#F87D7D"/><stop offset="1" stop-color="#FF2828"/></linearGradient><linearGradient id="c" x1="235.314" x2="235.314" y1="-148.847" y2="500.327" gradientUnits="userSpaceOnUse"><stop stop-color="#ECF3FE" stop-opacity="0"/><stop offset=".339" stop-color="#ECF3FE" stop-opacity=".708"/><stop offset="1" stop-color="#ECF3FE" stop-opacity="0"/></linearGradient><linearGradient id="d" x1="515" x2="373.794" y1="423" y2="194.788" gradientUnits="userSpaceOnUse"><stop stop-color="#383947"/><stop offset="1" stop-color="#222535"/></linearGradient><linearGradient id="e" x1="579.738" x2="-10.967" y1="43.746" y2="123.741" gradientUnits="userSpaceOnUse"><stop stop-color="#4B4D5E"/><stop offset="1" stop-color="#11121C"/></linearGradient><linearGradient id="f" x1="657.72" x2="611.489" y1="364.601" y2="215.146" gradientUnits="userSpaceOnUse"><stop stop-color="#383947"/><stop offset="1" stop-color="#222535"/></linearGradient><linearGradient id="h" x1="435.642" x2="435.642" y1="153.339" y2="230.787" gradientUnits="userSpaceOnUse"><stop stop-color="#F4FFA2"/><stop offset="1" stop-color="#B9D100"/></linearGradient><filter id="a" width="545.859" height="611.286" x="21.768" y=".703" color-interpolation-filters="sRGB" filterUnits="userSpaceOnUse"><feFlood flood-opacity="0" result="BackgroundImageFix"/><feBlend in="SourceGraphic" in2="BackgroundImageFix" result="shape"/><feGaussianBlur result="effect1_foregroundBlur_229_334" stdDeviation="50"/></filter><filter id="g" width="177.447" height="177.448" x="346.918" y="121.339" color-interpolation-filters="sRGB" filterUnits="userSpaceOnUse"><feFlood flood-opacity="0" result="BackgroundImageFix"/><feColorMatrix in="SourceAlpha" result="hardAlpha" values="0 0 0 0 0 0 0 0 0 0 0 0 0 0 0 0 0 0 127 0"/><feOffset dy="18"/><feGaussianBlur stdDeviation="25"/><feComposite in2="hardAlpha" operator="out"/><feColorMatrix values="0 0 0 0 0.0666667 0 0 0 0 0.0705882 0 0 0 0 0.109804 0 0 0 0.3 0"/><feBlend in2="BackgroundImageFix" result="effect1_dropShadow_229_334"/><feBlend in="SourceGraphic" in2="effect1_dropShadow_229_334" result="shape"/></filter><clipPath id="i"><path fill="#fff" d="M416.279 172.701h38.724v38.724h-38.724z"/></clipPath></defs></svg>